OxygenSans-Regular.ufo
<glyph name="exclam" format="1">
  <advance width="566"/>
  <unicode hex="0021"/>
  <outline>
    <contour>
      <point x="372" y="1232" type="line"/>
      <point x="372" y="1390" type="line"/>
      <point x="193" y="1390" type="line"/>
      <point x="193" y="1232" type="line"/>
      <point x="249" y="396" type="line"/>
      <point x="321" y="396" type="line"/>
    </contour>
    <contour>
      <point x="283" y="-11" type="curve" smooth="yes"/>
      <point x="364" y="-11"/>
      <point x="404" y="49"/>
      <point x="404" y="109" type="curve" smooth="yes"/>
      <point x="404" y="169"/>
      <point x="364" y="229"/>
      <point x="283" y="229" type="curve" smooth="yes"/>
      <point x="203" y="229"/>
      <point x="162" y="169"/>
      <point x="162" y="109" type="curve" smooth="yes"/>
      <point x="162" y="49"/>
      <point x="203" y="-11"/>
    </contour>
  </outline>
</glyph>
<glyph name="quotedbl" format="1">
  <advance width="856"/>
  <unicode hex="0022"/>
  <outline>
    <contour>
      <point x="229" y="925" type="line"/>
      <point x="320" y="925" type="line"/>
      <point x="347" y="1374" type="line"/>
      <point x="209" y="1374" type="line"/>
    </contour>
    <contour>
      <point x="529" y="925" type="line"/>
      <point x="621" y="925" type="line"/>
      <point x="647" y="1374" type="line"/>
      <point x="510" y="1374" type="line"/>
    </contour>
  </outline>
</glyph>
<glyph name="numbersign" format="1">
  <advance width="1079"/>
  <unicode hex="0023"/>
  <outline>
    <contour>
      <point x="411" y="488" type="line"/>
      <point x="626" y="488" type="line"/>
      <point x="698" y="847" type="line"/>
      <point x="484" y="847" type="line"/>
    </contour>
    <contour>
      <point x="286" y="488" type="line"/>
      <point x="341" y="846" type="line"/>
      <point x="180" y="846" type="line"/>
      <point x="188" y="960" type="line"/>
      <point x="364" y="960" type="line"/>
      <point x="440" y="1330" type="line"/>
      <point x="579" y="1330" type="line"/>
      <point x="507" y="960" type="line"/>
      <point x="720" y="960" type="line"/>
      <point x="784" y="1330" type="line"/>
      <point x="901" y="1330" type="line"/>
      <point x="841" y="960" type="line"/>
      <point x="966" y="960" type="line"/>
      <point x="954" y="847" type="line"/>
      <point x="820" y="847" type="line"/>
      <point x="759" y="488" type="line"/>
      <point x="893" y="488" type="line"/>
      <point x="884" y="373" type="line"/>
      <point x="743" y="373" type="line"/>
      <point x="664" y="-21" type="line"/>
      <point x="527" y="-21" type="line"/>
      <point x="603" y="373" type="line"/>
      <point x="389" y="373" type="line"/>
      <point x="317" y="-21" type="line"/>
      <point x="199" y="-21" type="line"/>
      <point x="266" y="373" type="line"/>
      <point x="110" y="373" type="line"/>
      <point x="119" y="488" type="line"/>
    </contour>
  </outline>
</glyph>
<glyph name="dollar" format="1">
  <advance width="1166"/>
  <unicode hex="0024"/>
  <outline>
    <contour>
      <point x="632" y="-177" type="line"/>
      <point x="546" y="-177" type="line"/>
      <point x="546" y="-19" type="line"/>
      <point x="374" y="-12"/>
      <point x="209" y="43"/>
      <point x="131" y="91" type="curve"/>
      <point x="178" y="222" type="line"/>
      <point x="289" y="167"/>
      <point x="392" y="119"/>
      <point x="589" y="119" type="curve" smooth="yes"/>
      <point x="799" y="119"/>
      <point x="854" y="227"/>
      <point x="854" y="398" type="curve" smooth="yes"/>
      <point x="854" y="507"/>
      <point x="778.880996704" y="574.651000977"/>
      <point x="611.0" y="633.0" type="curve" smooth="yes"/>
      <point x="447.0" y="690.0" type="line" smooth="yes"/>
      <point x="263.391998291" y="751.20300293"/>
      <point x="133.0" y="846.0"/>
      <point x="133.0" y="1026.0" type="curve" smooth="yes"/>
      <point x="133.0" y="1276.0"/>
      <point x="315.0" y="1394.0"/>
      <point x="546.0" y="1408.0" type="curve"/>
      <point x="546.0" y="1584.0" type="line"/>
      <point x="632.0" y="1584.0" type="line"/>
      <point x="632.0" y="1408.0" type="line"/>
      <point x="737.0" y="1403.0"/>
      <point x="878.0" y="1375.0"/>
      <point x="964.0" y="1321.0" type="curve"/>
      <point x="918.0" y="1198.0" type="line"/>
      <point x="831.0" y="1240.0"/>
      <point x="744.0" y="1266.0"/>
      <point x="576.0" y="1270.0" type="curve" smooth="yes"/>
      <point x="408.0" y="1270.0"/>
      <point x="300.0" y="1177.0"/>
      <point x="300.0" y="1037.0" type="curve" smooth="yes"/>
      <point x="300.0" y="931.0"/>
      <point x="378.285995483" y="873.833999634"/>
      <point x="506.0" y="833.0" type="curve" smooth="yes"/>
      <point x="658.0" y="782.0" type="line" smooth="yes"/>
      <point x="856.17300415" y="715.507995605"/>
      <point x="1021.0" y="625.0"/>
      <point x="1021.0" y="403.0" type="curve" smooth="yes"/>
      <point x="1021.0" y="137.0"/>
      <point x="884.0" y="-3.0"/>
      <point x="632.0" y="-18.0" type="curve"/>
    </contour>
  </outline>
</glyph>
<glyph name="ampersand" format="1">
  <advance width="1258"/>
  <unicode hex="0026"/>
  <outline>
    <contour>
      <point x="515" y="838" type="curve"/>
      <point x="639" y="899"/>
      <point x="744" y="1011"/>
      <point x="744" y="1127" type="curve" smooth="yes"/>
      <point x="744" y="1233"/>
      <point x="660" y="1288"/>
      <point x="564" y="1288" type="curve" smooth="yes"/>
      <point x="453" y="1288"/>
      <point x="369" y="1226"/>
      <point x="369" y="1121" type="curve" smooth="yes"/>
      <point x="369" y="1031"/>
      <point x="435" y="915"/>
    </contour>
    <contour>
      <point x="536" y="120" type="curve" smooth="yes"/>
      <point x="666" y="120"/>
      <point x="772" y="166"/>
      <point x="860" y="236" type="curve"/>
      <point x="724" y="381"/>
      <point x="595" y="536"/>
      <point x="459" y="681" type="curve"/>
      <point x="321" y="611"/>
      <point x="219" y="504"/>
      <point x="219" y="369" type="curve" smooth="yes"/>
      <point x="219" y="213"/>
      <point x="337" y="120"/>
    </contour>
    <contour>
      <point x="528" y="-21" type="curve" smooth="yes"/>
      <point x="216" y="-21"/>
      <point x="58" y="125"/>
      <point x="58" y="359" type="curve" smooth="yes"/>
      <point x="58" y="556"/>
      <point x="192" y="689"/>
      <point x="374" y="781" type="curve"/>
      <point x="280" y="884"/>
      <point x="207" y="996"/>
      <point x="207" y="1115" type="curve" smooth="yes"/>
      <point x="207" y="1297"/>
      <point x="346" y="1413"/>
      <point x="561" y="1413" type="curve" smooth="yes"/>
      <point x="747" y="1413"/>
      <point x="915" y="1319"/>
      <point x="915" y="1131" type="curve" smooth="yes"/>
      <point x="915" y="971"/>
      <point x="772" y="826"/>
      <point x="600" y="746" type="curve"/>
      <point x="966" y="337" type="line"/>
      <point x="1018" y="392"/>
      <point x="1068" y="471"/>
      <point x="1101" y="545" type="curve"/>
      <point x="1211" y="461" type="line"/>
      <point x="1175" y="381"/>
      <point x="1121" y="298"/>
      <point x="1063" y="230" type="curve"/>
      <point x="1251" y="27" type="line"/>
      <point x="1108" y="-20" type="line"/>
      <point x="965" y="130" type="line"/>
      <point x="852" y="39"/>
      <point x="710" y="-21"/>
    </contour>
  </outline>
</glyph>
<glyph name="quotesingle" format="1">
  <advance width="364"/>
  <unicode hex="0027"/>
  <outline>
    <contour>
      <point x="142" y="885" type="line"/>
      <point x="95" y="1390" type="line"/>
      <point x="269" y="1390" type="line"/>
      <point x="227" y="885" type="line"/>
    </contour>
  </outline>
</glyph>
<glyph name="parenleft" format="1">
  <advance width="663"/>
  <unicode hex="0028"/>
  <outline>
    <contour>
      <point x="391" y="1453" type="line"/>
      <point x="238" y="1241"/>
      <point x="140" y="961"/>
      <point x="140" y="662" type="curve" smooth="yes"/>
      <point x="140" y="358"/>
      <point x="234" y="83"/>
      <point x="390" y="-146" type="curve"/>
      <point x="531" y="-146" type="line"/>
      <point x="378" y="92"/>
      <point x="295" y="370"/>
      <point x="295" y="658" type="curve" smooth="yes"/>
      <point x="295" y="933"/>
      <point x="383" y="1226"/>
      <point x="530" y="1453" type="curve"/>
    </contour>
  </outline>
</glyph>
<glyph name="parenright" format="1">
  <advance width="663"/>
  <unicode hex="0029"/>
  <outline>
    <contour>
      <point x="242" y="-146" type="line"/>
      <point x="395" y="66"/>
      <point x="493" y="346"/>
      <point x="493" y="645" type="curve" smooth="yes"/>
      <point x="493" y="949"/>
      <point x="399" y="1224"/>
      <point x="243" y="1453" type="curve"/>
      <point x="102" y="1453" type="line"/>
      <point x="255" y="1215"/>
      <point x="338" y="937"/>
      <point x="338" y="649" type="curve" smooth="yes"/>
      <point x="338" y="374"/>
      <point x="250" y="81"/>
      <point x="103" y="-146" type="curve"/>
    </contour>
  </outline>
</glyph>
<glyph name="asterisk" format="1">
  <advance width="983"/>
  <unicode hex="002A"/>
  <outline>
    <contour>
      <point x="114" y="1153" type="line"/>
      <point x="69" y="998" type="line"/>
      <point x="399" y="922" type="line"/>
      <point x="173" y="619" type="line"/>
      <point x="315" y="534" type="line"/>
      <point x="487" y="863" type="line"/>
      <point x="669" y="534" type="line"/>
      <point x="715" y="564"/>
      <point x="764" y="589"/>
      <point x="810" y="619" type="curve"/>
      <point x="735" y="720"/>
      <point x="617" y="872"/>
      <point x="580" y="922" type="curve"/>
      <point x="914" y="998" type="line"/>
      <point x="869" y="1153" type="line"/>
      <point x="542" y="1016" type="line"/>
      <point x="575" y="1390" type="line"/>
      <point x="406" y="1390" type="line"/>
      <point x="439" y="1016" type="line"/>
    </contour>
  </outline>
</glyph>
<glyph name="plus" format="1">
  <advance width="1156"/>
  <unicode hex="002B"/>
  <outline>
    <contour>
      <point x="519" y="653" type="line"/>
      <point x="157" y="653" type="line"/>
      <point x="157" y="530" type="line"/>
      <point x="518" y="530" type="line"/>
      <point x="518" y="139" type="line"/>
      <point x="643" y="139" type="line"/>
      <point x="643" y="530" type="line"/>
      <point x="999" y="530" type="line"/>
      <point x="999" y="653" type="line"/>
      <point x="644" y="653" type="line"/>
      <point x="644" y="1039" type="line"/>
      <point x="519" y="1039" type="line"/>
    </contour>
  </outline>
</glyph>
<glyph name="comma" format="1">
  <advance width="503"/>
  <unicode hex="002C"/>
  <outline>
    <contour>
      <point x="216" y="-293" type="line"/>
      <point x="228" y="-266"/>
      <point x="335" y="45"/>
      <point x="367" y="173" type="curve"/>
      <point x="367" y="213" type="line"/>
      <point x="187" y="213" type="line"/>
      <point x="120" y="-293" type="line"/>
    </contour>
  </outline>
</glyph>
<glyph name="hyphen" format="1">
  <advance width="812"/>
  <unicode hex="002D"/>
  <outline>
    <contour>
      <point x="127" y="452" type="line"/>
      <point x="127" y="586" type="line"/>
      <point x="685" y="586" type="line"/>
      <point x="685" y="452" type="line"/>
    </contour>
  </outline>
</glyph>
<glyph name="period" format="1">
  <advance width="524"/>
  <unicode hex="002E"/>
  <outline>
    <contour>
      <point x="271" y="-11" type="curve" smooth="yes"/>
      <point x="352" y="-11"/>
      <point x="392" y="49"/>
      <point x="392" y="109" type="curve" smooth="yes"/>
      <point x="392" y="169"/>
      <point x="352" y="229"/>
      <point x="271" y="229" type="curve" smooth="yes"/>
      <point x="190" y="229"/>
      <point x="150" y="169"/>
      <point x="150" y="109" type="curve" smooth="yes"/>
      <point x="150" y="49"/>
      <point x="191" y="-11"/>
    </contour>
  </outline>
</glyph>
<glyph name="slash" format="1">
  <advance width="786"/>
  <unicode hex="002F"/>
  <outline>
    <contour>
      <point x="19" y="-119" type="line"/>
      <point x="150" y="-119" type="line"/>
      <point x="767" y="1413" type="line"/>
      <point x="634" y="1413" type="line"/>
    </contour>
  </outline>
</glyph>
<glyph name="zero" format="1">
  <advance width="1145"/>
  <unicode hex="0030"/>
  <outline>
    <contour>
      <point x="576" y="-18" type="curve" smooth="yes"/>
      <point x="907" y="-18"/>
      <point x="1038" y="275"/>
      <point x="1038" y="674" type="curve" smooth="yes"/>
      <point x="1038" y="1092"/>
      <point x="894" y="1366"/>
      <point x="576" y="1366" type="curve" smooth="yes"/>
      <point x="258" y="1366"/>
      <point x="107" y="1092"/>
      <point x="107" y="674" type="curve" smooth="yes"/>
      <point x="107" y="275"/>
      <point x="245" y="-18"/>
    </contour>
    <contour>
      <point x="576" y="120" type="curve" smooth="yes"/>
      <point x="387" y="120"/>
      <point x="282" y="309"/>
      <point x="282" y="680" type="curve" smooth="yes"/>
      <point x="282" y="1033"/>
      <point x="387" y="1228"/>
      <point x="576" y="1228" type="curve" smooth="yes"/>
      <point x="765" y="1228"/>
      <point x="863" y="1056"/>
      <point x="863" y="680" type="curve" smooth="yes"/>
      <point x="863" y="309"/>
      <point x="765" y="120"/>
    </contour>
  </outline>
</glyph>
<glyph name="one" format="1">
  <advance width="1155"/>
  <unicode hex="0031"/>
  <outline>
    <contour>
      <point x="981" y="0" type="line"/>
      <point x="981" y="140" type="line"/>
      <point x="721" y="140" type="line"/>
      <point x="721" y="1390" type="line"/>
      <point x="576" y="1390" type="line"/>
      <point x="504" y="1339"/>
      <point x="364" y="1277"/>
      <point x="284" y="1271" type="curve"/>
      <point x="284" y="1129" type="line"/>
      <point x="379" y="1135"/>
      <point x="488" y="1175"/>
      <point x="560" y="1222" type="curve"/>
      <point x="560" y="140" type="line"/>
      <point x="255" y="140" type="line"/>
      <point x="255" y="0" type="line"/>
    </contour>
  </outline>
</glyph>
<glyph name="two" format="1">
  <advance width="1155"/>
  <unicode hex="0032"/>
  <outline>
    <contour>
      <point x="185" y="0" type="line"/>
      <point x="982" y="0" type="line"/>
      <point x="992" y="140" type="line"/>
      <point x="357" y="140" type="line"/>
      <point x="773" y="581" type="line" smooth="yes"/>
      <point x="932" y="749"/>
      <point x="1017" y="856"/>
      <point x="1017" y="1043" type="curve" smooth="yes"/>
      <point x="1017" y="1267"/>
      <point x="853" y="1413"/>
      <point x="605" y="1413" type="curve" smooth="yes"/>
      <point x="428" y="1413"/>
      <point x="317" y="1368"/>
      <point x="214" y="1294" type="curve"/>
      <point x="266" y="1158" type="line"/>
      <point x="387" y="1245"/>
      <point x="486" y="1275"/>
      <point x="600" y="1275" type="curve" smooth="yes"/>
      <point x="755" y="1275"/>
      <point x="842" y="1182"/>
      <point x="842" y="1032" type="curve" smooth="yes"/>
      <point x="842" y="888"/>
      <point x="778" y="807"/>
      <point x="669" y="690" type="curve" smooth="yes"/>
      <point x="165" y="149" type="line"/>
    </contour>
  </outline>
</glyph>
<glyph name="four" format="1">
  <advance width="1138"/>
  <unicode hex="0034"/>
  <outline>
    <contour>
      <point x="732" y="470" type="line"/>
      <point x="732" y="1155" type="line"/>
      <point x="277" y="470" type="line"/>
    </contour>
    <contour>
      <point x="715" y="1361" type="line"/>
      <point x="885" y="1361" type="line"/>
      <point x="885" y="470" type="line"/>
      <point x="1052" y="470" type="line"/>
      <point x="1040" y="338" type="line"/>
      <point x="885" y="338" type="line"/>
      <point x="885" y="0" type="line"/>
      <point x="732" y="0" type="line"/>
      <point x="732" y="338" type="line"/>
      <point x="117" y="338" type="line"/>
      <point x="117" y="477" type="line"/>
    </contour>
  </outline>
</glyph>
<glyph name="five" format="1">
  <advance width="1043"/>
  <unicode hex="0035"/>
  <outline>
    <contour>
      <point x="474" y="-21" type="curve" smooth="yes"/>
      <point x="781" y="-21"/>
      <point x="957" y="162"/>
      <point x="957" y="434" type="curve" smooth="yes"/>
      <point x="957" y="665"/>
      <point x="819" y="849"/>
      <point x="543" y="849" type="curve" smooth="yes"/>
      <point x="467" y="849"/>
      <point x="393" y="830"/>
      <point x="320" y="784" type="curve"/>
      <point x="324" y="916"/>
      <point x="328" y="1080"/>
      <point x="333" y="1212" type="curve"/>
      <point x="889" y="1212" type="line"/>
      <point x="902" y="1361" type="line"/>
      <point x="204" y="1361" type="line"/>
      <point x="169" y="633" type="line"/>
      <point x="295" y="616" type="line"/>
      <point x="352" y="679"/>
      <point x="426" y="706"/>
      <point x="512" y="706" type="curve" smooth="yes"/>
      <point x="697" y="706"/>
      <point x="792" y="589"/>
      <point x="792" y="432" type="curve" smooth="yes"/>
      <point x="792" y="254"/>
      <point x="682" y="126"/>
      <point x="480" y="126" type="curve" smooth="yes"/>
      <point x="329" y="126"/>
      <point x="226" y="186"/>
      <point x="168" y="232" type="curve"/>
      <point x="109" y="104" type="line"/>
      <point x="190" y="30"/>
      <point x="315" y="-21"/>
    </contour>
  </outline>
</glyph>
<glyph name="six" format="1">
  <advance width="1172"/>
  <unicode hex="0036"/>
  <outline>
    <contour>
      <point x="580" y="120" type="curve" smooth="yes"/>
      <point x="767" y="120"/>
      <point x="868" y="252"/>
      <point x="868" y="409" type="curve" smooth="yes"/>
      <point x="868" y="576"/>
      <point x="778" y="705"/>
      <point x="594" y="705" type="curve" smooth="yes"/>
      <point x="392" y="705"/>
      <point x="290" y="572"/>
      <point x="290" y="415" type="curve" smooth="yes"/>
      <point x="290" y="258"/>
      <point x="393" y="120"/>
    </contour>
    <contour>
      <point x="585" y="-18" type="curve" smooth="yes"/>
      <point x="294" y="-18"/>
      <point x="132" y="187"/>
      <point x="132" y="433" type="curve" smooth="yes"/>
      <point x="132" y="638"/>
      <point x="201" y="765"/>
      <point x="383" y="994" type="curve" smooth="yes"/>
      <point x="460" y="1092"/>
      <point x="678" y="1346"/>
      <point x="678" y="1346" type="curve"/>
      <point x="886" y="1346" type="line"/>
      <point x="404" y="776" type="line"/>
      <point x="462" y="807"/>
      <point x="558" y="841"/>
      <point x="631" y="841" type="curve" smooth="yes"/>
      <point x="860" y="841"/>
      <point x="1040" y="663"/>
      <point x="1040" y="412" type="curve" smooth="yes"/>
      <point x="1040" y="169"/>
      <point x="863" y="-18"/>
    </contour>
  </outline>
</glyph>
<glyph name="seven" format="1">
  <advance width="1155"/>
  <unicode hex="0037"/>
  <outline>
    <contour>
      <point x="1032" y="1361" type="line"/>
      <point x="206" y="1361" type="line"/>
      <point x="216" y="1220" type="line"/>
      <point x="852" y="1220" type="line"/>
      <point x="380" y="0" type="line"/>
      <point x="559" y="0" type="line"/>
      <point x="1032" y="1238" type="line"/>
    </contour>
  </outline>
</glyph>
<glyph name="eight" format="1">
  <advance width="1157"/>
  <unicode hex="0038"/>
  <outline>
    <contour>
      <point x="578" y="760" type="curve"/>
      <point x="412" y="797"/>
      <point x="322" y="891"/>
      <point x="322" y="1034" type="curve" smooth="yes"/>
      <point x="322" y="1163"/>
      <point x="444" y="1228"/>
      <point x="578" y="1228" type="curve" smooth="yes"/>
      <point x="713" y="1228"/>
      <point x="831" y="1163"/>
      <point x="831" y="1034" type="curve" smooth="yes"/>
      <point x="831" y="891"/>
      <point x="745" y="797"/>
    </contour>
    <contour>
      <point x="578" y="120" type="curve" smooth="yes"/>
      <point x="416" y="120"/>
      <point x="293" y="208"/>
      <point x="293" y="358" type="curve" smooth="yes"/>
      <point x="293" y="506"/>
      <point x="416" y="602"/>
      <point x="578" y="638" type="curve"/>
      <point x="741" y="602"/>
      <point x="860" y="506"/>
      <point x="860" y="358" type="curve" smooth="yes"/>
      <point x="860" y="208"/>
      <point x="741" y="120"/>
    </contour>
    <contour>
      <point x="578" y="-18" type="curve" smooth="yes"/>
      <point x="821" y="-18"/>
      <point x="1020" y="108"/>
      <point x="1020" y="347" type="curve" smooth="yes"/>
      <point x="1020" y="520"/>
      <point x="920" y="650"/>
      <point x="758" y="707" type="curve"/>
      <point x="900" y="762"/>
      <point x="991" y="867"/>
      <point x="991" y="1031" type="curve" smooth="yes"/>
      <point x="991" y="1247"/>
      <point x="818" y="1366"/>
      <point x="578" y="1366" type="curve" smooth="yes"/>
      <point x="338" y="1366"/>
      <point x="162" y="1247"/>
      <point x="162" y="1031" type="curve" smooth="yes"/>
      <point x="162" y="867"/>
      <point x="260" y="762"/>
      <point x="416" y="707" type="curve"/>
      <point x="240" y="650"/>
      <point x="134" y="520"/>
      <point x="134" y="347" type="curve" smooth="yes"/>
      <point x="134" y="108"/>
      <point x="336" y="-18"/>
    </contour>
  </outline>
</glyph>
<glyph name="nine" format="1">
  <advance width="1156"/>
  <unicode hex="0039"/>
  <outline>
    <contour>
      <point x="581" y="672" type="curve" smooth="yes"/>
      <point x="779" y="672"/>
      <point x="856" y="798"/>
      <point x="856" y="952" type="curve" smooth="yes"/>
      <point x="856" y="1107"/>
      <point x="770" y="1229"/>
      <point x="587" y="1229" type="curve" smooth="yes"/>
      <point x="404" y="1229"/>
      <point x="299" y="1102"/>
      <point x="299" y="947" type="curve" smooth="yes"/>
      <point x="299" y="783"/>
      <point x="401" y="672"/>
    </contour>
    <contour>
      <point x="472" y="0" type="curve"/>
      <point x="276" y="0" type="line"/>
      <point x="749" y="591" type="line"/>
      <point x="693" y="561"/>
      <point x="620" y="537"/>
      <point x="549" y="537" type="curve" smooth="yes"/>
      <point x="324" y="537"/>
      <point x="131" y="698"/>
      <point x="131" y="944" type="curve" smooth="yes"/>
      <point x="131" y="1183"/>
      <point x="309" y="1367"/>
      <point x="581" y="1367" type="curve" smooth="yes"/>
      <point x="866" y="1367"/>
      <point x="1024" y="1176"/>
      <point x="1024" y="934" type="curve" smooth="yes"/>
      <point x="1024" y="757"/>
      <point x="968" y="639"/>
      <point x="831" y="453" type="curve"/>
      <point x="744" y="338"/>
      <point x="472" y="0"/>
    </contour>
  </outline>
</glyph>
<glyph name="semicolon" format="1">
  <advance width="524"/>
  <unicode hex="003B"/>
  <outline>
    <contour>
      <point x="154" y="788" type="line"/>
      <point x="341" y="788" type="line"/>
      <point x="341" y="998" type="line"/>
      <point x="154" y="998" type="line"/>
    </contour>
    <component base="comma"/>
  </outline>
</glyph>
<glyph name="less" format="1">
  <advance width="1094"/>
  <unicode hex="003C"/>
  <outline>
    <contour>
      <point x="976" y="944" type="line"/>
      <point x="976" y="1087" type="line"/>
      <point x="102" y="639" type="line"/>
      <point x="102" y="551" type="line"/>
      <point x="974" y="133" type="line"/>
      <point x="974" y="277" type="line"/>
      <point x="270" y="599" type="line"/>
    </contour>
  </outline>
</glyph>
<glyph name="equal" format="1">
  <advance width="1156"/>
  <unicode hex="003D"/>
  <outline>
    <contour>
      <point x="139" y="343" type="line"/>
      <point x="1018" y="343" type="line"/>
      <point x="1018" y="472" type="line"/>
      <point x="139" y="472" type="line"/>
    </contour>
    <contour>
      <point x="138" y="727" type="line"/>
      <point x="1018" y="727" type="line"/>
      <point x="1018" y="858" type="line"/>
      <point x="138" y="858" type="line"/>
    </contour>
  </outline>
</glyph>
<glyph name="greater" format="1">
  <advance width="1102"/>
  <unicode hex="003E"/>
  <outline>
    <contour>
      <point x="123" y="1092" type="line"/>
      <point x="995" y="638" type="line"/>
      <point x="995" y="550" type="line"/>
      <point x="121" y="138" type="line"/>
      <point x="121" y="283" type="line"/>
      <point x="825" y="599" type="line"/>
      <point x="123" y="950" type="line"/>
    </contour>
  </outline>
</glyph>
<glyph name="question" format="1">
  <advance width="819"/>
  <unicode hex="003F"/>
  <outline>
    <contour>
      <point x="359" y="-11" type="curve" smooth="yes"/>
      <point x="279" y="-11"/>
      <point x="238" y="49"/>
      <point x="238" y="109" type="curve" smooth="yes"/>
      <point x="238" y="169"/>
      <point x="279" y="229"/>
      <point x="359" y="229" type="curve" smooth="yes"/>
      <point x="440" y="229"/>
      <point x="480" y="169"/>
      <point x="480" y="109" type="curve" smooth="yes"/>
      <point x="480" y="49"/>
      <point x="440" y="-11"/>
    </contour>
    <contour>
      <point x="386" y="396" type="curve"/>
      <point x="307" y="396" type="line"/>
      <point x="307" y="608"/>
      <point x="566" y="900"/>
      <point x="566" y="1079" type="curve" smooth="yes"/>
      <point x="564" y="1199"/>
      <point x="482" y="1249"/>
      <point x="361" y="1249" type="curve" smooth="yes"/>
      <point x="252" y="1249"/>
      <point x="170" y="1203"/>
      <point x="126" y="1176" type="curve"/>
      <point x="85" y="1299" type="line"/>
      <point x="167" y="1364"/>
      <point x="285" y="1387"/>
      <point x="386" y="1387" type="curve" smooth="yes"/>
      <point x="577" y="1387"/>
      <point x="714" y="1281"/>
      <point x="714" y="1092" type="curve" smooth="yes"/>
      <point x="714" y="844"/>
      <point x="522" y="701"/>
    </contour>
  </outline>
</glyph>
<glyph name="at" format="1">
  <advance width="1634"/>
  <unicode hex="0040"/>
  <outline>
    <contour>
      <point x="757" y="360" type="curve" smooth="yes"/>
      <point x="656" y="360"/>
      <point x="611" y="438"/>
      <point x="611" y="554" type="curve" smooth="yes"/>
      <point x="611" y="737"/>
      <point x="690" y="890"/>
      <point x="863" y="890" type="curve" smooth="yes"/>
      <point x="907" y="890"/>
      <point x="962" y="884"/>
      <point x="996" y="872" type="curve"/>
      <point x="989" y="803"/>
      <point x="981" y="732"/>
      <point x="972" y="664" type="curve" smooth="yes"/>
      <point x="950" y="487"/>
      <point x="893" y="360"/>
    </contour>
    <contour>
      <point x="797" y="-119" type="curve" smooth="yes"/>
      <point x="968" y="-119"/>
      <point x="1121" y="-80"/>
      <point x="1236" y="-3" type="curve"/>
      <point x="1204" y="98" type="line"/>
      <point x="1085" y="30"/>
      <point x="945" y="-5"/>
      <point x="798" y="-5" type="curve" smooth="yes"/>
      <point x="449" y="-5"/>
      <point x="215" y="215"/>
      <point x="215" y="591" type="curve" smooth="yes"/>
      <point x="215" y="969"/>
      <point x="477" y="1245"/>
      <point x="849" y="1245" type="curve" smooth="yes"/>
      <point x="1181" y="1245"/>
      <point x="1422" y="1048"/>
      <point x="1422" y="720" type="curve" smooth="yes"/>
      <point x="1422" y="508"/>
      <point x="1297" y="347"/>
      <point x="1180" y="347" type="curve" smooth="yes"/>
      <point x="1114" y="347"/>
      <point x="1079" y="388"/>
      <point x="1079" y="476" type="curve" smooth="yes"/>
      <point x="1079" y="586"/>
      <point x="1113" y="770"/>
      <point x="1138" y="950" type="curve"/>
      <point x="1061" y="976"/>
      <point x="948" y="1000"/>
      <point x="862" y="1000" type="curve" smooth="yes"/>
      <point x="616" y="1000"/>
      <point x="481" y="802"/>
      <point x="481" y="561" type="curve" smooth="yes"/>
      <point x="481" y="365"/>
      <point x="583" y="244"/>
      <point x="740" y="244" type="curve" smooth="yes"/>
      <point x="858" y="244"/>
      <point x="943" y="333"/>
      <point x="984" y="391" type="curve"/>
      <point x="998" y="292"/>
      <point x="1069" y="236"/>
      <point x="1166" y="236" type="curve" smooth="yes"/>
      <point x="1353" y="236"/>
      <point x="1542" y="418"/>
      <point x="1542" y="713" type="curve" smooth="yes"/>
      <point x="1542" y="1106"/>
      <point x="1246" y="1358"/>
      <point x="857" y="1358" type="curve" smooth="yes"/>
      <point x="408" y="1358"/>
      <point x="93" y="1025"/>
      <point x="93" y="587" type="curve" smooth="yes"/>
      <point x="93" y="148"/>
      <point x="376" y="-119"/>
    </contour>
  </outline>
</glyph>
<glyph name="A" format="1">
  <advance width="1283"/>
  <unicode hex="0041"/>
  <outline>
    <contour>
      <point x="37" y="0" type="line"/>
      <point x="541" y="1390" type="line"/>
      <point x="743" y="1390" type="line"/>
      <point x="1246" y="0" type="line"/>
      <point x="1078" y="0" type="line"/>
      <point x="919" y="430" type="line"/>
      <point x="375" y="430" type="line"/>
      <point x="215" y="0" type="line"/>
    </contour>
    <contour>
      <point x="426" y="561" type="line"/>
      <point x="870" y="561" type="line"/>
      <point x="641" y="1223" type="line"/>
    </contour>
  </outline>
</glyph>
<glyph name="B" format="1">
  <advance width="1295"/>
  <unicode hex="0042"/>
  <outline>
    <contour>
      <point x="375" y="797" type="line"/>
      <point x="375" y="1257" type="line"/>
      <point x="599" y="1257" type="line" smooth="yes"/>
      <point x="831" y="1257"/>
      <point x="959" y="1208"/>
      <point x="959" y="1031" type="curve" smooth="yes"/>
      <point x="959" y="854"/>
      <point x="845" y="797"/>
      <point x="668" y="797" type="curve" smooth="yes"/>
    </contour>
    <contour>
      <point x="375" y="129" type="line"/>
      <point x="375" y="671" type="line"/>
      <point x="623" y="671" type="line" smooth="yes"/>
      <point x="878" y="671"/>
      <point x="1010" y="611"/>
      <point x="1010" y="419" type="curve" smooth="yes"/>
      <point x="1010" y="239"/>
      <point x="892" y="129"/>
      <point x="661" y="129" type="curve" smooth="yes"/>
    </contour>
    <contour>
      <point x="214" y="0" type="line"/>
      <point x="693" y="0" type="line" smooth="yes"/>
      <point x="1020" y="0"/>
      <point x="1178" y="175"/>
      <point x="1178" y="413" type="curve" smooth="yes"/>
      <point x="1178" y="574"/>
      <point x="1088" y="708"/>
      <point x="897" y="743" type="curve"/>
      <point x="1110" y="809"/>
      <point x="1127" y="989"/>
      <point x="1127" y="1055" type="curve" smooth="yes"/>
      <point x="1127" y="1289"/>
      <point x="955" y="1390"/>
      <point x="607" y="1390" type="curve" smooth="yes"/>
      <point x="214" y="1390" type="line"/>
    </contour>
  </outline>
</glyph>
<glyph name="C" format="1">
  <advance width="1315"/>
  <unicode hex="0043"/>
  <outline>
    <contour>
      <point x="804" y="-18" type="curve" smooth="yes"/>
      <point x="975" y="-25"/>
      <point x="1121" y="28"/>
      <point x="1186" y="68" type="curve"/>
      <point x="1160" y="196" type="line"/>
      <point x="1061" y="149"/>
      <point x="957" y="117"/>
      <point x="840" y="120" type="curve" smooth="yes"/>
      <point x="475" y="129"/>
      <point x="336" y="401"/>
      <point x="336" y="719" type="curve" smooth="yes"/>
      <point x="336" y="1038"/>
      <point x="507" y="1275"/>
      <point x="824" y="1275" type="curve" smooth="yes"/>
      <point x="946" y="1275"/>
      <point x="1063" y="1247"/>
      <point x="1154" y="1193" type="curve"/>
      <point x="1196" y="1317" type="line"/>
      <point x="1095" y="1381"/>
      <point x="984" y="1413"/>
      <point x="822" y="1413" type="curve" smooth="yes"/>
      <point x="410" y="1413"/>
      <point x="164" y="1130"/>
      <point x="164" y="725" type="curve" smooth="yes"/>
      <point x="164" y="310"/>
      <point x="388" y="-2"/>
    </contour>
  </outline>
</glyph>
<glyph name="D" format="1">
  <advance width="1410"/>
  <unicode hex="0044"/>
  <outline>
    <contour>
      <point x="178" y="0" type="line"/>
      <point x="178" y="1390" type="line"/>
      <point x="558" y="1390" type="line" smooth="yes"/>
      <point x="1008" y="1390"/>
      <point x="1307" y="1166"/>
      <point x="1307" y="698" type="curve" smooth="yes"/>
      <point x="1307" y="253"/>
      <point x="1034" y="0"/>
      <point x="586" y="0" type="curve" smooth="yes"/>
    </contour>
    <contour>
      <point x="356" y="1252" type="line"/>
      <point x="356" y="137" type="line"/>
      <point x="581" y="137" type="line" smooth="yes"/>
      <point x="939" y="137"/>
      <point x="1129" y="340"/>
      <point x="1129" y="694" type="curve" smooth="yes"/>
      <point x="1129" y="1082"/>
      <point x="919" y="1252"/>
      <point x="554" y="1252" type="curve" smooth="yes"/>
    </contour>
  </outline>
</glyph>
<glyph name="E" format="1">
  <advance width="1114"/>
  <unicode hex="0045"/>
  <outline>
    <contour>
      <point x="356" y="1251" type="line"/>
      <point x="356" y="799" type="line"/>
      <point x="936" y="799" type="line"/>
      <point x="936" y="662" type="line"/>
      <point x="356" y="662" type="line"/>
      <point x="356" y="139" type="line"/>
      <point x="996" y="139" type="line"/>
      <point x="988" y="0" type="line"/>
      <point x="178" y="0" type="line"/>
      <point x="178" y="1390" type="line"/>
      <point x="996" y="1390" type="line"/>
      <point x="989" y="1251" type="line"/>
    </contour>
  </outline>
</glyph>
<glyph name="F" format="1">
  <advance width="1088"/>
  <unicode hex="0046"/>
  <outline>
    <contour>
      <point x="395" y="1251" type="line"/>
      <point x="981" y="1251" type="line"/>
      <point x="992" y="1390" type="line"/>
      <point x="216" y="1390" type="line"/>
      <point x="216" y="0" type="line"/>
      <point x="395" y="0" type="line"/>
      <point x="395" y="657" type="line"/>
      <point x="936" y="657" type="line"/>
      <point x="936" y="790" type="line"/>
      <point x="395" y="790" type="line"/>
    </contour>
  </outline>
</glyph>
<glyph name="G" format="1">
  <advance width="1425"/>
  <unicode hex="0047"/>
  <outline>
    <contour>
      <point x="768" y="-18" type="curve" smooth="yes"/>
      <point x="308" y="-18"/>
      <point x="103" y="291"/>
      <point x="103" y="692" type="curve" smooth="yes"/>
      <point x="103" y="1098"/>
      <point x="319" y="1413"/>
      <point x="800" y="1413" type="curve" smooth="yes"/>
      <point x="961" y="1413"/>
      <point x="1129" y="1380"/>
      <point x="1242" y="1307" type="curve"/>
      <point x="1192" y="1185" type="line"/>
      <point x="1148" y="1208"/>
      <point x="1021" y="1275"/>
      <point x="800" y="1275" type="curve" smooth="yes"/>
      <point x="425" y="1275"/>
      <point x="281" y="1011"/>
      <point x="281" y="692" type="curve" smooth="yes"/>
      <point x="281" y="361"/>
      <point x="428" y="120"/>
      <point x="778" y="120" type="curve" smooth="yes"/>
      <point x="883" y="120"/>
      <point x="1037" y="131"/>
      <point x="1095" y="147" type="curve"/>
      <point x="1095" y="579" type="line"/>
      <point x="766" y="579" type="line"/>
      <point x="774" y="716" type="line"/>
      <point x="1273" y="716" type="line"/>
      <point x="1273" y="59" type="line"/>
      <point x="1130" y="4"/>
      <point x="956" y="-18"/>
    </contour>
  </outline>
</glyph>
<glyph name="H" format="1">
  <advance width="1507"/>
  <unicode hex="0048"/>
  <outline>
    <contour>
      <point x="392" y="766" type="line"/>
      <point x="392" y="1390" type="line"/>
      <point x="214" y="1390" type="line"/>
      <point x="214" y="0" type="line"/>
      <point x="392" y="0" type="line"/>
      <point x="392" y="634" type="line"/>
      <point x="1115" y="634" type="line"/>
      <point x="1115" y="0" type="line"/>
      <point x="1293" y="0" type="line"/>
      <point x="1293" y="1390" type="line"/>
      <point x="1115" y="1390" type="line"/>
      <point x="1115" y="766" type="line"/>
    </contour>
  </outline>
</glyph>
<glyph name="I" format="1">
  <advance width="557"/>
  <unicode hex="0049"/>
  <outline>
    <contour>
      <point x="196" y="0" type="line"/>
      <point x="196" y="1390" type="line"/>
      <point x="375" y="1390" type="line"/>
      <point x="375" y="0" type="line"/>
    </contour>
  </outline>
</glyph>
<glyph name="J" format="1">
  <advance width="678"/>
  <unicode hex="004A"/>
  <outline>
    <contour>
      <point x="93" y="-192" type="curve"/>
      <point x="79" y="-45" type="line"/>
      <point x="317" y="-45"/>
      <point x="321" y="51"/>
      <point x="321" y="186" type="curve" smooth="yes"/>
      <point x="321" y="1408" type="line"/>
      <point x="499" y="1408" type="line"/>
      <point x="499" y="219" type="line" smooth="yes"/>
      <point x="499" y="-61"/>
      <point x="452" y="-192"/>
    </contour>
  </outline>
</glyph>
<glyph name="K" format="1">
  <advance width="1234"/>
  <unicode hex="004B"/>
  <outline>
    <contour>
      <point x="949" y="1389" type="line"/>
      <point x="1173" y="1389" type="line"/>
      <point x="603" y="763" type="line"/>
      <point x="1220" y="0" type="line"/>
      <point x="1011" y="0" type="line"/>
      <point x="468" y="675" type="line"/>
      <point x="356" y="568" type="line"/>
      <point x="356" y="0" type="line"/>
      <point x="178" y="0" type="line"/>
      <point x="178" y="1389" type="line"/>
      <point x="356" y="1389" type="line"/>
      <point x="356" y="752" type="line"/>
    </contour>
  </outline>
</glyph>
<glyph name="L" format="1">
  <advance width="979"/>
  <unicode hex="004C"/>
  <outline>
    <contour>
      <point x="945" y="140" type="line"/>
      <point x="938" y="0" type="line"/>
      <point x="178" y="0" type="line"/>
      <point x="178" y="1390" type="line"/>
      <point x="357" y="1390" type="line"/>
      <point x="357" y="140" type="line"/>
    </contour>
  </outline>
</glyph>
<glyph name="M" format="1">
  <advance width="1786"/>
  <unicode hex="004D"/>
  <outline>
    <contour>
      <point x="1363" y="1390" type="line"/>
      <point x="897" y="305" type="line"/>
      <point x="429" y="1390" type="line"/>
      <point x="216" y="1390" type="line"/>
      <point x="216" y="0" type="line"/>
      <point x="371" y="0" type="line"/>
      <point x="371" y="839" type="line"/>
      <point x="360" y="1167" type="line"/>
      <point x="818" y="108" type="line"/>
      <point x="976" y="108" type="line"/>
      <point x="1422" y="1163" type="line"/>
      <point x="1415" y="843" type="line"/>
      <point x="1415" y="0" type="line"/>
      <point x="1570" y="0" type="line"/>
      <point x="1570" y="1390" type="line"/>
    </contour>
  </outline>
</glyph>
<glyph name="N" format="1">
  <advance width="1598"/>
  <unicode hex="004E"/>
  <outline>
    <contour>
      <point x="1231" y="215" type="line"/>
      <point x="395" y="1390" type="line"/>
      <point x="216" y="1390" type="line"/>
      <point x="216" y="0" type="line"/>
      <point x="372" y="0" type="line"/>
      <point x="372" y="830" type="line"/>
      <point x="367" y="1171" type="line"/>
      <point x="1199" y="0" type="line"/>
      <point x="1382" y="0" type="line"/>
      <point x="1382" y="1390" type="line"/>
      <point x="1226" y="1390" type="line"/>
      <point x="1226" y="555" type="line"/>
    </contour>
  </outline>
</glyph>
<glyph name="O" format="1">
  <advance width="1635"/>
  <unicode hex="004F"/>
  <outline>
    <contour>
      <point x="1471" y="697" type="curve" smooth="yes"/>
      <point x="1471" y="1122"/>
      <point x="1228" y="1413"/>
      <point x="819" y="1413" type="curve" smooth="yes"/>
      <point x="403" y="1413"/>
      <point x="164" y="1125"/>
      <point x="164" y="698" type="curve" smooth="yes"/>
      <point x="164" y="281"/>
      <point x="395" y="-20"/>
      <point x="818" y="-20" type="curve" smooth="yes"/>
      <point x="1236" y="-20"/>
      <point x="1471" y="287"/>
    </contour>
    <contour>
      <point x="818" y="118" type="curve" smooth="yes"/>
      <point x="494" y="118"/>
      <point x="343" y="379"/>
      <point x="343" y="697" type="curve" smooth="yes"/>
      <point x="343" y="1028"/>
      <point x="502" y="1275"/>
      <point x="819" y="1275" type="curve" smooth="yes"/>
      <point x="1136" y="1275"/>
      <point x="1292" y="1027"/>
      <point x="1292" y="697" type="curve" smooth="yes"/>
      <point x="1292" y="379"/>
      <point x="1142" y="118"/>
    </contour>
  </outline>
</glyph>
<glyph name="P" format="1">
  <advance width="1245"/>
  <unicode hex="0050"/>
  <outline>
    <contour>
      <point x="182" y="0" type="line"/>
      <point x="361" y="0" type="line"/>
      <point x="361" y="586" type="line"/>
      <point x="431" y="582"/>
      <point x="615" y="583"/>
      <point x="688" y="583" type="curve" smooth="yes"/>
      <point x="1032" y="583"/>
      <point x="1167" y="755"/>
      <point x="1167" y="1008" type="curve" smooth="yes"/>
      <point x="1167" y="1253"/>
      <point x="972" y="1390"/>
      <point x="709" y="1390" type="curve" smooth="yes"/>
      <point x="182" y="1390" type="line"/>
    </contour>
    <contour>
      <point x="696" y="714" type="curve" smooth="yes"/>
      <point x="633" y="714"/>
      <point x="361" y="716"/>
      <point x="361" y="716" type="curve"/>
      <point x="361" y="1253" type="line"/>
      <point x="705" y="1253" type="line" smooth="yes"/>
      <point x="876" y="1253"/>
      <point x="988" y="1167"/>
      <point x="988" y="1005" type="curve" smooth="yes"/>
      <point x="988" y="825"/>
      <point x="920" y="714"/>
    </contour>
  </outline>
</glyph>
<glyph name="Q" format="1">
  <advance width="1593"/>
  <unicode hex="0051"/>
  <outline>
    <contour>
      <point x="1318" y="-318" type="line"/>
      <point x="1209" y="-211"/>
      <point x="1066" y="1"/>
      <point x="1044" y="36" type="curve"/>
      <point x="897" y="-1" type="line"/>
      <point x="976" y="-158"/>
      <point x="1179" y="-386"/>
      <point x="1215" y="-421" type="curve"/>
    </contour>
    <component base="O"/>
  </outline>
</glyph>
<glyph name="R" format="1">
  <advance width="1357"/>
  <unicode hex="0052"/>
  <outline>
    <contour>
      <point x="178" y="0" type="line"/>
      <point x="178" y="1390" type="line"/>
      <point x="681" y="1390" type="line" smooth="yes"/>
      <point x="1011" y="1390"/>
      <point x="1198" y="1323"/>
      <point x="1198" y="1040" type="curve" smooth="yes"/>
      <point x="1198" y="872"/>
      <point x="1149" y="755"/>
      <point x="953" y="700" type="curve"/>
      <point x="953" y="695"/>
      <point x="1010" y="585"/>
      <point x="1042" y="517" type="curve" smooth="yes"/>
      <point x="1262" y="0" type="line"/>
      <point x="1076" y="0" type="line"/>
      <point x="891" y="464" type="line" smooth="yes"/>
      <point x="855" y="544"/>
      <point x="822" y="618"/>
      <point x="793" y="664" type="curve"/>
      <point x="766" y="662"/>
      <point x="664" y="659"/>
      <point x="632" y="659" type="curve" smooth="yes"/>
      <point x="615" y="659"/>
      <point x="357" y="661"/>
      <point x="357" y="661" type="curve"/>
      <point x="357" y="0" type="line"/>
    </contour>
    <contour>
      <point x="716" y="799" type="line" smooth="yes"/>
      <point x="961" y="799"/>
      <point x="1021" y="878"/>
      <point x="1021" y="1038" type="curve" smooth="yes"/>
      <point x="1021" y="1180"/>
      <point x="951" y="1252"/>
      <point x="708" y="1252" type="curve" smooth="yes"/>
      <point x="357" y="1252" type="line"/>
      <point x="357" y="799" type="line"/>
    </contour>
  </outline>
</glyph>
<glyph name="S" format="1">
  <advance width="1229"/>
  <unicode hex="0053"/>
  <outline>
    <contour>
      <point x="606" y="-18" type="curve" smooth="yes"/>
      <point x="380" y="-18"/>
      <point x="219" y="59"/>
      <point x="140" y="110" type="curve"/>
      <point x="195" y="238" type="line"/>
      <point x="307" y="172"/>
      <point x="440" y="120"/>
      <point x="606" y="120" type="curve" smooth="yes"/>
      <point x="786" y="120"/>
      <point x="906" y="204"/>
      <point x="906" y="369" type="curve" smooth="yes"/>
      <point x="906" y="492"/>
      <point x="831" y="565"/>
      <point x="663" y="624" type="curve" smooth="yes"/>
      <point x="434" y="704" type="line"/>
      <point x="258" y="760"/>
      <point x="142" y="871"/>
      <point x="142" y="1051" type="curve" smooth="yes"/>
      <point x="142" y="1316"/>
      <point x="360" y="1413"/>
      <point x="617" y="1413" type="curve" smooth="yes"/>
      <point x="776" y="1413"/>
      <point x="918" y="1356"/>
      <point x="1006" y="1298" type="curve"/>
      <point x="951" y="1173" type="line"/>
      <point x="887" y="1212"/>
      <point x="764" y="1275"/>
      <point x="623" y="1275" type="curve" smooth="yes"/>
      <point x="451" y="1275"/>
      <point x="301" y="1215"/>
      <point x="301" y="1062" type="curve" smooth="yes"/>
      <point x="301" y="956"/>
      <point x="368" y="886"/>
      <point x="491" y="848" type="curve"/>
      <point x="708" y="772" type="line"/>
      <point x="905" y="711"/>
      <point x="1061" y="612"/>
      <point x="1061" y="376" type="curve" smooth="yes"/>
      <point x="1061" y="105"/>
      <point x="867" y="-18"/>
    </contour>
  </outline>
</glyph>
<glyph name="T" format="1">
  <advance width="1088"/>
  <unicode hex="0054"/>
  <outline>
    <contour>
      <point x="1049" y="1390" type="line"/>
      <point x="1049" y="1251" type="line"/>
      <point x="633" y="1251" type="line"/>
      <point x="633" y="0" type="line"/>
      <point x="454" y="0" type="line"/>
      <point x="454" y="1251" type="line"/>
      <point x="39" y="1251" type="line"/>
      <point x="39" y="1390" type="line"/>
    </contour>
  </outline>
</glyph>
<glyph name="U" format="1">
  <advance width="1451"/>
  <unicode hex="0055"/>
  <outline>
    <contour>
      <point x="725" y="-20" type="curve" smooth="yes"/>
      <point x="1090" y="-20"/>
      <point x="1261" y="195"/>
      <point x="1261" y="493" type="curve" smooth="yes"/>
      <point x="1261" y="1390" type="line"/>
      <point x="1084" y="1390" type="line"/>
      <point x="1084" y="492" type="line" smooth="yes"/>
      <point x="1084" y="248"/>
      <point x="965" y="118"/>
      <point x="725" y="118" type="curve" smooth="yes"/>
      <point x="479" y="118"/>
      <point x="367" y="248"/>
      <point x="367" y="492" type="curve" smooth="yes"/>
      <point x="367" y="1390" type="line"/>
      <point x="190" y="1390" type="line"/>
      <point x="190" y="495" type="line" smooth="yes"/>
      <point x="190" y="196"/>
      <point x="360" y="-20"/>
    </contour>
  </outline>
</glyph>
<glyph name="V" format="1">
  <advance width="1319"/>
  <unicode hex="0056"/>
  <outline>
    <contour>
      <point x="748" y="0" type="line"/>
      <point x="1258" y="1390" type="line"/>
      <point x="1074" y="1390" type="line"/>
      <point x="768" y="495" type="line"/>
      <point x="664" y="197" type="line"/>
      <point x="561" y="492" type="line"/>
      <point x="256" y="1390" type="line"/>
      <point x="70" y="1390" type="line"/>
      <point x="580" y="0" type="line"/>
    </contour>
  </outline>
</glyph>
<glyph name="W" format="1">
  <advance width="1902"/>
  <unicode hex="0057"/>
  <outline>
    <contour>
      <point x="861" y="1365" type="line"/>
      <point x="523" y="222" type="line"/>
      <point x="234" y="1390" type="line"/>
      <point x="56" y="1390" type="line"/>
      <point x="428" y="0" type="line"/>
      <point x="610" y="0" type="line"/>
      <point x="959" y="1160" type="line"/>
      <point x="1286" y="0" type="line"/>
      <point x="1471" y="0" type="line"/>
      <point x="1846" y="1390" type="line"/>
      <point x="1669" y="1390" type="line"/>
      <point x="1373" y="221" type="line"/>
      <point x="1043" y="1365" type="line"/>
    </contour>
  </outline>
</glyph>
<glyph name="X" format="1">
  <advance width="1293"/>
  <unicode hex="0058"/>
  <outline>
    <contour>
      <point x="746" y="709" type="line"/>
      <point x="1213" y="1390" type="line"/>
      <point x="1027" y="1390" type="line"/>
      <point x="646" y="831" type="line"/>
      <point x="266" y="1390" type="line"/>
      <point x="80" y="1390" type="line"/>
      <point x="543" y="709" type="line"/>
      <point x="80" y="0" type="line"/>
      <point x="266" y="0" type="line"/>
      <point x="646" y="576" type="line"/>
      <point x="1027" y="0" type="line"/>
      <point x="1213" y="0" type="line"/>
    </contour>
  </outline>
</glyph>
<glyph name="Y" format="1">
  <advance width="1181"/>
  <unicode hex="0059"/>
  <outline>
    <contour>
      <point x="604" y="723" type="line"/>
      <point x="991" y="1390" type="line"/>
      <point x="1169" y="1390" type="line"/>
      <point x="694" y="577" type="line"/>
      <point x="694" y="0" type="line"/>
      <point x="516" y="0" type="line"/>
      <point x="516" y="573" type="line"/>
      <point x="12" y="1390" type="line"/>
      <point x="190" y="1390" type="line"/>
    </contour>
  </outline>
</glyph>
<glyph name="Z" format="1">
  <advance width="1190"/>
  <unicode hex="005A"/>
  <outline>
    <contour>
      <point x="149" y="1390" type="line"/>
      <point x="1061" y="1390" type="line"/>
      <point x="1061" y="1272" type="line"/>
      <point x="323" y="138" type="line"/>
      <point x="1068" y="138" type="line"/>
      <point x="1062" y="0" type="line"/>
      <point x="122" y="0" type="line"/>
      <point x="122" y="124" type="line"/>
      <point x="856" y="1252" type="line"/>
      <point x="149" y="1252" type="line"/>
    </contour>
  </outline>
</glyph>
<glyph name="bracketleft" format="1">
  <advance width="643"/>
  <unicode hex="005B"/>
  <outline>
    <contour>
      <point x="294" y="1229" type="line"/>
      <point x="294" y="-147" type="line"/>
      <point x="549" y="-147" type="line"/>
      <point x="549" y="-267" type="line"/>
      <point x="136" y="-267" type="line"/>
      <point x="136" y="1350" type="line"/>
      <point x="549" y="1350" type="line"/>
      <point x="549" y="1229" type="line"/>
    </contour>
  </outline>
</glyph>
<glyph name="backslash" format="1">
  <advance width="850"/>
  <unicode hex="005C"/>
  <outline>
    <contour>
      <point x="625" y="-55" type="line"/>
      <point x="767" y="-55" type="line"/>
      <point x="222" y="1332" type="line"/>
      <point x="80" y="1332" type="line"/>
    </contour>
  </outline>
</glyph>
<glyph name="bracketright" format="1">
  <advance width="645"/>
  <unicode hex="005D"/>
  <outline>
    <contour>
      <point x="96" y="1229" type="line"/>
      <point x="96" y="1350" type="line"/>
      <point x="509" y="1350" type="line"/>
      <point x="509" y="-267" type="line"/>
      <point x="96" y="-267" type="line"/>
      <point x="96" y="-147" type="line"/>
      <point x="351" y="-147" type="line"/>
      <point x="351" y="1229" type="line"/>
    </contour>
  </outline>
</glyph>
<glyph name="asciicircum" format="1">
  <advance width="1143"/>
  <unicode hex="005E"/>
  <outline>
    <contour>
      <point x="109" y="536" type="line"/>
      <point x="514" y="1380" type="line"/>
      <point x="607" y="1380" type="line"/>
      <point x="1035" y="536" type="line"/>
      <point x="905" y="536" type="line"/>
      <point x="561" y="1215" type="line"/>
      <point x="241" y="536" type="line"/>
    </contour>
  </outline>
</glyph>
<glyph name="underscore" format="1">
  <advance width="1009"/>
  <unicode hex="005F"/>
  <outline>
    <contour>
      <point x="78" y="-277" type="line"/>
      <point x="78" y="-155" type="line"/>
      <point x="933" y="-155" type="line"/>
      <point x="933" y="-277" type="line"/>
    </contour>
  </outline>
</glyph>
<glyph name="grave" format="1">
  <advance width="585"/>
  <unicode hex="0060"/>
  <outline>
    <contour>
      <point x="371" y="1138" type="line"/>
      <point x="77" y="1491" type="line"/>
      <point x="305" y="1491" type="line"/>
      <point x="473" y="1138" type="line"/>
    </contour>
  </outline>
</glyph>
<glyph name="a" format="1">
  <advance width="1079"/>
  <unicode hex="0061"/>
  <outline>
    <contour>
      <point x="429" y="-20" type="curve" smooth="yes"/>
      <point x="563" y="-20"/>
      <point x="700" y="36"/>
      <point x="761" y="126" type="curve"/>
      <point x="788" y="0" type="line"/>
      <point x="929" y="0" type="line"/>
      <point x="929" y="661" type="line" smooth="yes"/>
      <point x="929" y="927"/>
      <point x="771" y="1019"/>
      <point x="527" y="1019" type="curve" smooth="yes"/>
      <point x="398" y="1019"/>
      <point x="241" y="975"/>
      <point x="155" y="927" type="curve"/>
      <point x="195" y="802" type="line"/>
      <point x="289" y="848"/>
      <point x="435" y="887"/>
      <point x="531" y="887" type="curve" smooth="yes"/>
      <point x="674" y="887"/>
      <point x="754" y="823"/>
      <point x="754" y="685" type="curve" smooth="yes"/>
      <point x="754" y="597" type="line"/>
      <point x="754" y="597"/>
      <point x="625" y="587"/>
      <point x="579" y="583" type="curve" smooth="yes"/>
      <point x="294" y="562"/>
      <point x="118" y="478"/>
      <point x="118" y="263" type="curve" smooth="yes"/>
      <point x="118" y="79"/>
      <point x="253" y="-20"/>
    </contour>
    <contour>
      <point x="451" y="103" type="curve" smooth="yes"/>
      <point x="368" y="103"/>
      <point x="292" y="152"/>
      <point x="292" y="262" type="curve" smooth="yes"/>
      <point x="292" y="402"/>
      <point x="377" y="447"/>
      <point x="638" y="478" type="curve" smooth="yes"/>
      <point x="661" y="481"/>
      <point x="754" y="490"/>
      <point x="754" y="490" type="curve"/>
      <point x="754" y="251" type="line"/>
      <point x="722" y="165"/>
      <point x="572" y="103"/>
    </contour>
  </outline>
</glyph>
<glyph name="b" format="1">
  <advance width="1206"/>
  <unicode hex="0062"/>
  <outline>
    <contour>
      <point x="661" y="-20" type="curve" smooth="yes"/>
      <point x="940" y="-20"/>
      <point x="1090" y="198"/>
      <point x="1090" y="504" type="curve" smooth="yes"/>
      <point x="1090" y="802"/>
      <point x="919" y="1019"/>
      <point x="659" y="1019" type="curve" smooth="yes"/>
      <point x="527" y="1019"/>
      <point x="412" y="955"/>
      <point x="346" y="862" type="curve"/>
      <point x="350" y="928"/>
      <point x="351" y="991"/>
      <point x="351" y="1053" type="curve" smooth="yes"/>
      <point x="351" y="1409" type="line"/>
      <point x="176" y="1395" type="line"/>
      <point x="176" y="0" type="line"/>
      <point x="334" y="0" type="line"/>
      <point x="351" y="163" type="line"/>
      <point x="406" y="45"/>
      <point x="524" y="-20"/>
    </contour>
    <contour>
      <point x="636" y="112" type="curve" smooth="yes"/>
      <point x="430" y="112"/>
      <point x="351" y="252"/>
      <point x="351" y="482" type="curve" smooth="yes"/>
      <point x="351" y="741"/>
      <point x="419" y="887"/>
      <point x="634" y="887" type="curve" smooth="yes"/>
      <point x="825" y="887"/>
      <point x="915" y="738"/>
      <point x="915" y="499" type="curve" smooth="yes"/>
      <point x="915" y="265"/>
      <point x="830" y="112"/>
    </contour>
  </outline>
</glyph>
<glyph name="c" format="1">
  <advance width="952"/>
  <unicode hex="0063"/>
  <outline>
    <contour>
      <point x="590" y="-20" type="curve" smooth="yes"/>
      <point x="690" y="-20"/>
      <point x="795" y="3"/>
      <point x="861" y="51" type="curve"/>
      <point x="838" y="175" type="line"/>
      <point x="766" y="138"/>
      <point x="705" y="112"/>
      <point x="619" y="112" type="curve" smooth="yes"/>
      <point x="405" y="112"/>
      <point x="290" y="265"/>
      <point x="290" y="495" type="curve" smooth="yes"/>
      <point x="290" y="733"/>
      <point x="409" y="887"/>
      <point x="619" y="887" type="curve" smooth="yes"/>
      <point x="685" y="887"/>
      <point x="754" y="870"/>
      <point x="825" y="832" type="curve"/>
      <point x="867" y="950" type="line"/>
      <point x="812" y="990"/>
      <point x="701" y="1019"/>
      <point x="596" y="1019" type="curve" smooth="yes"/>
      <point x="316" y="1019"/>
      <point x="116" y="810"/>
      <point x="116" y="496" type="curve" smooth="yes"/>
      <point x="116" y="195"/>
      <point x="309" y="-20"/>
    </contour>
  </outline>
</glyph>
<glyph name="d" format="1">
  <advance width="1206"/>
  <unicode hex="0064"/>
  <outline>
    <contour>
      <point x="551" y="-20" type="curve" smooth="yes"/>
      <point x="688" y="-20"/>
      <point x="800" y="45"/>
      <point x="855" y="163" type="curve"/>
      <point x="872" y="0" type="line"/>
      <point x="1030" y="0" type="line"/>
      <point x="1030" y="1409" type="line"/>
      <point x="855" y="1395" type="line"/>
      <point x="855" y="1053" type="line" smooth="yes"/>
      <point x="855" y="991"/>
      <point x="855" y="928"/>
      <point x="859" y="862" type="curve"/>
      <point x="793" y="955"/>
      <point x="682" y="1019"/>
      <point x="550" y="1019" type="curve" smooth="yes"/>
      <point x="290" y="1019"/>
      <point x="116" y="807"/>
      <point x="116" y="504" type="curve" smooth="yes"/>
      <point x="116" y="198"/>
      <point x="272" y="-20"/>
    </contour>
    <contour>
      <point x="578" y="112" type="curve" smooth="yes"/>
      <point x="384" y="112"/>
      <point x="290" y="265"/>
      <point x="290" y="499" type="curve" smooth="yes"/>
      <point x="290" y="738"/>
      <point x="388" y="887"/>
      <point x="579" y="887" type="curve" smooth="yes"/>
      <point x="794" y="887"/>
      <point x="855" y="741"/>
      <point x="855" y="482" type="curve" smooth="yes"/>
      <point x="855" y="252"/>
      <point x="784" y="112"/>
    </contour>
  </outline>
</glyph>
<glyph name="e" format="1">
  <advance width="1128"/>
  <unicode hex="0065"/>
  <outline>
    <contour>
      <point x="616" y="-21" type="curve" smooth="yes"/>
      <point x="327" y="-21"/>
      <point x="122" y="176"/>
      <point x="122" y="496" type="curve" smooth="yes"/>
      <point x="122" y="805"/>
      <point x="334" y="1019"/>
      <point x="597" y="1019" type="curve" smooth="yes"/>
      <point x="854" y="1019"/>
      <point x="997" y="832"/>
      <point x="997" y="553" type="curve" smooth="yes"/>
      <point x="997" y="530"/>
      <point x="991" y="469"/>
      <point x="991" y="469" type="curve"/>
      <point x="294" y="469" type="line"/>
      <point x="298" y="240"/>
      <point x="451" y="112"/>
      <point x="641" y="112" type="curve" smooth="yes"/>
      <point x="766" y="112"/>
      <point x="863" y="151"/>
      <point x="951" y="197" type="curve"/>
      <point x="975" y="65" type="line"/>
      <point x="879" y="7"/>
      <point x="765" y="-21"/>
    </contour>
    <contour>
      <point x="298" y="582" type="curve"/>
      <point x="833" y="582" type="line"/>
      <point x="828" y="779"/>
      <point x="763" y="888"/>
      <point x="602" y="888" type="curve" smooth="yes"/>
      <point x="446" y="888"/>
      <point x="315" y="772"/>
    </contour>
  </outline>
</glyph>
<glyph name="f" format="1">
  <advance width="769"/>
  <unicode hex="0066"/>
  <outline>
    <contour>
      <point x="266" y="0" type="line"/>
      <point x="441" y="0" type="line"/>
      <point x="441" y="886" type="line"/>
      <point x="674" y="886" type="line"/>
      <point x="674" y="998" type="line"/>
      <point x="441" y="998" type="line"/>
      <point x="441" y="1055" type="line" smooth="yes"/>
      <point x="441" y="1230"/>
      <point x="496" y="1273"/>
      <point x="598" y="1273" type="curve" smooth="yes"/>
      <point x="634" y="1273"/>
      <point x="679" y="1267"/>
      <point x="704" y="1263" type="curve"/>
      <point x="716" y="1394" type="line"/>
      <point x="698" y="1398"/>
      <point x="603" y="1410"/>
      <point x="558" y="1410" type="curve" smooth="yes"/>
      <point x="380" y="1410"/>
      <point x="266" y="1318"/>
      <point x="266" y="1061" type="curve" smooth="yes"/>
      <point x="266" y="998" type="line"/>
      <point x="64" y="981" type="line"/>
      <point x="59" y="886" type="line"/>
      <point x="266" y="886" type="line"/>
    </contour>
  </outline>
</glyph>
<glyph name="g" format="1">
  <advance width="1206"/>
  <unicode hex="0067"/>
  <outline>
    <contour>
      <point x="566" y="137" type="curve" smooth="yes"/>
      <point x="359" y="137"/>
      <point x="280" y="333"/>
      <point x="280" y="504" type="curve" smooth="yes"/>
      <point x="280" y="677"/>
      <point x="353" y="887"/>
      <point x="570" y="887" type="curve" smooth="yes"/>
      <point x="777" y="887"/>
      <point x="863" y="732"/>
      <point x="863" y="543" type="curve" smooth="yes"/>
      <point x="863" y="470" type="line" smooth="yes"/>
      <point x="863" y="291"/>
      <point x="781" y="137"/>
    </contour>
    <contour>
      <point x="527" y="-425" type="curve" smooth="yes"/>
      <point x="936" y="-425"/>
      <point x="1038" y="-187"/>
      <point x="1038" y="148" type="curve" smooth="yes"/>
      <point x="1038" y="998" type="line"/>
      <point x="879" y="998" type="line"/>
      <point x="867" y="865" type="line"/>
      <point x="791" y="968"/>
      <point x="689" y="1019"/>
      <point x="556" y="1019" type="curve" smooth="yes"/>
      <point x="251" y="1019"/>
      <point x="106" y="780"/>
      <point x="106" y="496" type="curve" smooth="yes"/>
      <point x="106" y="249"/>
      <point x="257" y="7"/>
      <point x="553" y="7" type="curve" smooth="yes"/>
      <point x="711" y="7"/>
      <point x="816" y="73"/>
      <point x="863" y="191" type="curve"/>
      <point x="863" y="73" type="line" smooth="yes"/>
      <point x="863" y="-199"/>
      <point x="758" y="-291"/>
      <point x="514" y="-291" type="curve" smooth="yes"/>
      <point x="413" y="-291"/>
      <point x="321" y="-273"/>
      <point x="281" y="-262" type="curve"/>
      <point x="270" y="-390" type="line"/>
      <point x="310" y="-400"/>
      <point x="408" y="-425"/>
    </contour>
  </outline>
</glyph>
<glyph name="h" format="1">
  <advance width="1134"/>
  <unicode hex="0068"/>
  <outline>
    <contour>
      <point x="166" y="1395" type="line"/>
      <point x="166" y="0" type="line"/>
      <point x="341" y="0" type="line"/>
      <point x="341" y="546" type="line" smooth="yes"/>
      <point x="341" y="752"/>
      <point x="408" y="887"/>
      <point x="624" y="887" type="curve" smooth="yes"/>
      <point x="777" y="887"/>
      <point x="819" y="788"/>
      <point x="819" y="623" type="curve" smooth="yes"/>
      <point x="819" y="0" type="line"/>
      <point x="994" y="0" type="line"/>
      <point x="994" y="612" type="line" smooth="yes"/>
      <point x="994" y="880"/>
      <point x="884" y="1019"/>
      <point x="654" y="1019" type="curve" smooth="yes"/>
      <point x="516" y="1019"/>
      <point x="399" y="963"/>
      <point x="341" y="864" type="curve"/>
      <point x="341" y="1409" type="line"/>
    </contour>
  </outline>
</glyph>
<glyph name="i" format="1">
  <advance width="537"/>
  <unicode hex="0069"/>
  <outline>
    <contour>
      <point x="189" y="0" type="line"/>
      <point x="364" y="0" type="line"/>
      <point x="364" y="998" type="line"/>
      <point x="189" y="998" type="line"/>
    </contour>
    <contour>
      <point x="189" y="1181" type="line"/>
      <point x="364" y="1181" type="line"/>
      <point x="364" y="1361" type="line"/>
      <point x="189" y="1361" type="line"/>
    </contour>
  </outline>
</glyph>
<glyph name="j" format="1">
  <advance width="591"/>
  <unicode hex="006A"/>
  <outline>
    <contour>
      <point x="253" y="1181" type="line"/>
      <point x="428" y="1181" type="line"/>
      <point x="428" y="1361" type="line"/>
      <point x="253" y="1361" type="line"/>
    </contour>
    <contour>
      <point x="77" y="-398" type="line"/>
      <point x="125" y="-398" type="line" smooth="yes"/>
      <point x="373" y="-398"/>
      <point x="428" y="-312"/>
      <point x="428" y="-68" type="curve" smooth="yes"/>
      <point x="428" y="998" type="line"/>
      <point x="253" y="998" type="line"/>
      <point x="254" y="-127" type="line" smooth="yes"/>
      <point x="254" y="-215"/>
      <point x="240" y="-257"/>
      <point x="105" y="-257" type="curve" smooth="yes"/>
      <point x="57" y="-257" type="line"/>
    </contour>
  </outline>
</glyph>
<glyph name="k" format="1">
  <advance width="1091"/>
  <unicode hex="006B"/>
  <outline>
    <contour>
      <point x="185" y="1395" type="line"/>
      <point x="185" y="0" type="line"/>
      <point x="360" y="0" type="line"/>
      <point x="360" y="363" type="line"/>
      <point x="471" y="459" type="line"/>
      <point x="853" y="0" type="line"/>
      <point x="1049" y="0" type="line"/>
      <point x="596" y="535" type="line"/>
      <point x="1042" y="998" type="line"/>
      <point x="827" y="998" type="line"/>
      <point x="360" y="515" type="line"/>
      <point x="360" y="1409" type="line"/>
    </contour>
  </outline>
</glyph>
<glyph name="l" format="1">
  <advance width="613"/>
  <unicode hex="006C"/>
  <outline>
    <contour>
      <point x="412" y="-18" type="curve" smooth="yes"/>
      <point x="438" y="-18"/>
      <point x="474" y="-16"/>
      <point x="522" y="-9" type="curve"/>
      <point x="511" y="116" type="line"/>
      <point x="447" y="116" type="line" smooth="yes"/>
      <point x="372" y="116"/>
      <point x="357" y="153"/>
      <point x="357" y="345" type="curve" smooth="yes"/>
      <point x="357" y="1409" type="line"/>
      <point x="182" y="1395" type="line"/>
      <point x="182" y="305" type="line" smooth="yes"/>
      <point x="182" y="45"/>
      <point x="255" y="-18"/>
    </contour>
  </outline>
</glyph>
<glyph name="m" format="1">
  <advance width="1749"/>
  <unicode hex="006D"/>
  <outline>
    <contour>
      <point x="356" y="525" type="line" smooth="yes"/>
      <point x="356" y="738"/>
      <point x="413" y="889"/>
      <point x="620" y="889" type="curve" smooth="yes"/>
      <point x="758" y="889"/>
      <point x="803" y="787"/>
      <point x="803" y="563" type="curve" smooth="yes"/>
      <point x="803" y="0" type="line"/>
      <point x="972" y="0" type="line"/>
      <point x="972" y="535" type="line" smooth="yes"/>
      <point x="972" y="751"/>
      <point x="1042" y="889"/>
      <point x="1229" y="889" type="curve" smooth="yes"/>
      <point x="1396" y="889"/>
      <point x="1415" y="734"/>
      <point x="1415" y="520" type="curve" smooth="yes"/>
      <point x="1415" y="0" type="line"/>
      <point x="1584" y="0" type="line"/>
      <point x="1584" y="642" type="line" smooth="yes"/>
      <point x="1584" y="886"/>
      <point x="1466" y="1019"/>
      <point x="1254" y="1019" type="curve" smooth="yes"/>
      <point x="1119" y="1019"/>
      <point x="1002" y="960"/>
      <point x="933" y="840" type="curve"/>
      <point x="906" y="918"/>
      <point x="826" y="1019"/>
      <point x="643" y="1019" type="curve" smooth="yes"/>
      <point x="500" y="1019"/>
      <point x="400" y="939"/>
      <point x="348" y="855" type="curve"/>
      <point x="330" y="998" type="line"/>
      <point x="185" y="998" type="line"/>
      <point x="185" y="936"/>
      <point x="187" y="0"/>
      <point x="187" y="0" type="curve"/>
      <point x="356" y="0" type="line"/>
    </contour>
  </outline>
</glyph>
<glyph name="n" format="1">
  <advance width="1142"/>
  <unicode hex="006E"/>
  <outline>
    <contour>
      <point x="163" y="0" type="line"/>
      <point x="338" y="0" type="line"/>
      <point x="338" y="546" type="line" smooth="yes"/>
      <point x="338" y="752"/>
      <point x="407" y="887"/>
      <point x="623" y="887" type="curve" smooth="yes"/>
      <point x="776" y="887"/>
      <point x="827" y="788"/>
      <point x="827" y="623" type="curve" smooth="yes"/>
      <point x="827" y="0" type="line"/>
      <point x="1002" y="0" type="line"/>
      <point x="1002" y="612" type="line" smooth="yes"/>
      <point x="1002" y="880"/>
      <point x="887" y="1019"/>
      <point x="657" y="1019" type="curve" smooth="yes"/>
      <point x="514" y="1019"/>
      <point x="403" y="963"/>
      <point x="331" y="855" type="curve"/>
      <point x="312" y="998" type="line"/>
      <point x="163" y="998" type="line"/>
    </contour>
  </outline>
</glyph>
<glyph name="o" format="1">
  <advance width="1138"/>
  <unicode hex="006F"/>
  <outline>
    <contour>
      <point x="569" y="112" type="curve" smooth="yes"/>
      <point x="776" y="112"/>
      <point x="860" y="279"/>
      <point x="860" y="497" type="curve" smooth="yes"/>
      <point x="860" y="719"/>
      <point x="775" y="886"/>
      <point x="569" y="886" type="curve" smooth="yes"/>
      <point x="363" y="886"/>
      <point x="277" y="719"/>
      <point x="277" y="497" type="curve" smooth="yes"/>
      <point x="277" y="279"/>
      <point x="362" y="112"/>
    </contour>
    <contour>
      <point x="569" y="-21" type="curve" smooth="yes"/>
      <point x="284" y="-21"/>
      <point x="103" y="200"/>
      <point x="103" y="499" type="curve" smooth="yes"/>
      <point x="103" y="804"/>
      <point x="274" y="1019"/>
      <point x="569" y="1019" type="curve" smooth="yes"/>
      <point x="864" y="1019"/>
      <point x="1035" y="804"/>
      <point x="1035" y="499" type="curve" smooth="yes"/>
      <point x="1035" y="200"/>
      <point x="854" y="-21"/>
    </contour>
  </outline>
</glyph>
<glyph name="p" format="1">
  <advance width="1185"/>
  <unicode hex="0070"/>
  <outline>
    <contour>
      <point x="620" y="107" type="curve" smooth="yes"/>
      <point x="811" y="107"/>
      <point x="907" y="261"/>
      <point x="907" y="500" type="curve" smooth="yes"/>
      <point x="907" y="734"/>
      <point x="815" y="890"/>
      <point x="621" y="890" type="curve" smooth="yes"/>
      <point x="415" y="890"/>
      <point x="325" y="746"/>
      <point x="325" y="516" type="curve" smooth="yes"/>
      <point x="325" y="257"/>
      <point x="433" y="107"/>
    </contour>
    <contour>
      <point x="150" y="998" type="line"/>
      <point x="308" y="998" type="line"/>
      <point x="325" y="835" type="line"/>
      <point x="382" y="956"/>
      <point x="516" y="1019"/>
      <point x="653" y="1019" type="curve" smooth="yes"/>
      <point x="932" y="1019"/>
      <point x="1082" y="800"/>
      <point x="1082" y="494" type="curve" smooth="yes"/>
      <point x="1082" y="196"/>
      <point x="914" y="-21"/>
      <point x="644" y="-21" type="curve" smooth="yes"/>
      <point x="512" y="-21"/>
      <point x="376" y="48"/>
      <point x="320" y="154" type="curve"/>
      <point x="324" y="88"/>
      <point x="325" y="7"/>
      <point x="325" y="-55" type="curve" smooth="yes"/>
      <point x="325" y="-423" type="line"/>
      <point x="150" y="-433" type="line"/>
    </contour>
  </outline>
</glyph>
<glyph name="q" format="1">
  <advance width="1238"/>
  <unicode hex="0071"/>
  <outline>
    <contour>
      <point x="587" y="107" type="curve" smooth="yes"/>
      <point x="802" y="107"/>
      <point x="879" y="257"/>
      <point x="879" y="516" type="curve" smooth="yes"/>
      <point x="879" y="746"/>
      <point x="793" y="890"/>
      <point x="587" y="890" type="curve" smooth="yes"/>
      <point x="393" y="890"/>
      <point x="296" y="734"/>
      <point x="296" y="500" type="curve" smooth="yes"/>
      <point x="296" y="261"/>
      <point x="396" y="107"/>
    </contour>
    <contour>
      <point x="1053" y="998" type="line"/>
      <point x="1053" y="-423" type="line"/>
      <point x="879" y="-433" type="line"/>
      <point x="879" y="-55" type="line" smooth="yes"/>
      <point x="879" y="7"/>
      <point x="879" y="70"/>
      <point x="883" y="136" type="curve"/>
      <point x="817" y="43"/>
      <point x="691" y="-21"/>
      <point x="559" y="-21" type="curve" smooth="yes"/>
      <point x="299" y="-21"/>
      <point x="122" y="196"/>
      <point x="122" y="494" type="curve" smooth="yes"/>
      <point x="122" y="800"/>
      <point x="281" y="1019"/>
      <point x="560" y="1019" type="curve" smooth="yes"/>
      <point x="697" y="1019"/>
      <point x="824" y="953"/>
      <point x="879" y="835" type="curve"/>
      <point x="896" y="998" type="line"/>
    </contour>
  </outline>
</glyph>
<glyph name="r" format="1">
  <advance width="735"/>
  <unicode hex="0072"/>
  <outline>
    <contour>
      <point x="147" y="998" type="line"/>
      <point x="296" y="998" type="line"/>
      <point x="310" y="819" type="line"/>
      <point x="376" y="928"/>
      <point x="488" y="1007"/>
      <point x="612" y="1007" type="curve" smooth="yes"/>
      <point x="639" y="1007"/>
      <point x="664" y="1006"/>
      <point x="687" y="1002" type="curve"/>
      <point x="681" y="862" type="line"/>
      <point x="655" y="867"/>
      <point x="631" y="869"/>
      <point x="609" y="869" type="curve" smooth="yes"/>
      <point x="435" y="869"/>
      <point x="322" y="732"/>
      <point x="322" y="561" type="curve" smooth="yes"/>
      <point x="322" y="0" type="line"/>
      <point x="147" y="0" type="line"/>
    </contour>
  </outline>
</glyph>
<glyph name="s" format="1">
  <advance width="911"/>
  <unicode hex="0073"/>
  <outline>
    <contour>
      <point x="472" y="-20" type="curve" smooth="yes"/>
      <point x="695" y="-20"/>
      <point x="818" y="82"/>
      <point x="821" y="269" type="curve" smooth="yes"/>
      <point x="821" y="420"/>
      <point x="751" y="491"/>
      <point x="536" y="568" type="curve" smooth="yes"/>
      <point x="466" y="593" type="line" smooth="yes"/>
      <point x="319" y="646"/>
      <point x="282" y="672"/>
      <point x="282" y="751" type="curve" smooth="yes"/>
      <point x="282" y="836"/>
      <point x="357" y="887"/>
      <point x="486" y="887" type="curve" smooth="yes"/>
      <point x="584" y="887"/>
      <point x="674" y="849"/>
      <point x="743" y="813" type="curve"/>
      <point x="782" y="934" type="line"/>
      <point x="717" y="973"/>
      <point x="599" y="1019"/>
      <point x="478" y="1019" type="curve" smooth="yes"/>
      <point x="247" y="1019"/>
      <point x="128" y="896"/>
      <point x="128" y="745" type="curve" smooth="yes"/>
      <point x="129" y="620"/>
      <point x="191" y="534"/>
      <point x="378" y="465" type="curve" smooth="yes"/>
      <point x="448" y="439" type="line" smooth="yes"/>
      <point x="635" y="373"/>
      <point x="676" y="342"/>
      <point x="676" y="254" type="curve" smooth="yes"/>
      <point x="676" y="154"/>
      <point x="606" y="112"/>
      <point x="464" y="112" type="curve" smooth="yes"/>
      <point x="331" y="112"/>
      <point x="225" y="167"/>
      <point x="172" y="200" type="curve"/>
      <point x="126" y="72" type="line"/>
      <point x="207" y="29"/>
      <point x="326" y="-20"/>
    </contour>
  </outline>
</glyph>
<glyph name="t" format="1">
  <advance width="823"/>
  <unicode hex="0074"/>
  <outline>
    <contour>
      <point x="551" y="-18" type="curve" smooth="yes"/>
      <point x="590" y="-18"/>
      <point x="681" y="-13"/>
      <point x="743" y="13" type="curve"/>
      <point x="716" y="139" type="line"/>
      <point x="671" y="122"/>
      <point x="615" y="114"/>
      <point x="580" y="114" type="curve" smooth="yes"/>
      <point x="469" y="114"/>
      <point x="429" y="160"/>
      <point x="429" y="313" type="curve" smooth="yes"/>
      <point x="429" y="887" type="line"/>
      <point x="720" y="887" type="line"/>
      <point x="720" y="998" type="line"/>
      <point x="429" y="998" type="line"/>
      <point x="429" y="1244" type="line"/>
      <point x="305" y="1241" type="line"/>
      <point x="253" y="998" type="line"/>
      <point x="112" y="986" type="line"/>
      <point x="106" y="887" type="line"/>
      <point x="254" y="887" type="line"/>
      <point x="254" y="313" type="line" smooth="yes"/>
      <point x="254" y="104"/>
      <point x="351" y="-18"/>
    </contour>
  </outline>
</glyph>
<glyph name="u" format="1">
  <advance width="1175"/>
  <unicode hex="0075"/>
  <outline>
    <contour>
      <point x="825" y="998" type="line"/>
      <point x="825" y="453" type="line" smooth="yes"/>
      <point x="825" y="247"/>
      <point x="756" y="112"/>
      <point x="540" y="112" type="curve" smooth="yes"/>
      <point x="387" y="112"/>
      <point x="336" y="211"/>
      <point x="336" y="376" type="curve" smooth="yes"/>
      <point x="336" y="998" type="line"/>
      <point x="161" y="998" type="line"/>
      <point x="161" y="387" type="line" smooth="yes"/>
      <point x="161" y="119"/>
      <point x="276" y="-20"/>
      <point x="506" y="-20" type="curve" smooth="yes"/>
      <point x="649" y="-20"/>
      <point x="760" y="36"/>
      <point x="832" y="144" type="curve"/>
      <point x="851" y="0" type="line"/>
      <point x="1000" y="0" type="line"/>
      <point x="1000" y="998" type="line"/>
    </contour>
    <contour>
      <point x="1057" y="10" type="move" name="ogonek"/>
    </contour>
    <contour>
      <point x="588" y="0" type="move" name="top"/>
    </contour>
  </outline>
</glyph>
<glyph name="v" format="1">
  <advance width="1076"/>
  <unicode hex="0076"/>
  <outline>
    <contour>
      <point x="453" y="0" type="line"/>
      <point x="631" y="0" type="line"/>
      <point x="1015" y="998" type="line"/>
      <point x="835" y="998" type="line"/>
      <point x="544" y="173" type="line"/>
      <point x="242" y="998" type="line"/>
      <point x="61" y="998" type="line"/>
    </contour>
  </outline>
</glyph>
<glyph name="w" format="1">
  <advance width="1528"/>
  <unicode hex="0077"/>
  <outline>
    <contour>
      <point x="66" y="998" type="line"/>
      <point x="347" y="0" type="line"/>
      <point x="514" y="0" type="line"/>
      <point x="767" y="855" type="line"/>
      <point x="1028" y="0" type="line"/>
      <point x="1187" y="0" type="line"/>
      <point x="1462" y="998" type="line"/>
      <point x="1302" y="998" type="line"/>
      <point x="1104" y="193" type="line"/>
      <point x="858" y="998" type="line"/>
      <point x="675" y="998" type="line"/>
      <point x="437" y="190" type="line"/>
      <point x="229" y="998" type="line"/>
    </contour>
  </outline>
</glyph>
<glyph name="x" format="1">
  <advance width="1047"/>
  <unicode hex="0078"/>
  <outline>
    <contour>
      <point x="521" y="623" type="line"/>
      <point x="254" y="998" type="line"/>
      <point x="70" y="998" type="line"/>
      <point x="420" y="508" type="line"/>
      <point x="54" y="0" type="line"/>
      <point x="238" y="0" type="line"/>
      <point x="521" y="396" type="line"/>
      <point x="805" y="0" type="line"/>
      <point x="991" y="0" type="line"/>
      <point x="622" y="504" type="line"/>
      <point x="978" y="998" type="line"/>
      <point x="786" y="998" type="line"/>
    </contour>
  </outline>
</glyph>
<glyph name="y" format="1">
  <advance width="1045"/>
  <unicode hex="0079"/>
  <outline>
    <contour>
      <point x="104" y="-412" type="curve"/>
      <point x="98" y="-281" type="line"/>
      <point x="107" y="-284"/>
      <point x="218" y="-294"/>
      <point x="243" y="-294" type="curve" smooth="yes"/>
      <point x="337" y="-294"/>
      <point x="400" y="-268"/>
      <point x="446" y="-124" type="curve" smooth="yes"/>
      <point x="459" y="-84"/>
      <point x="482" y="33"/>
      <point x="482" y="33" type="curve"/>
      <point x="44" y="998" type="line"/>
      <point x="232" y="998" type="line"/>
      <point x="563" y="199" type="line"/>
      <point x="817" y="998" type="line"/>
      <point x="1005" y="998" type="line"/>
      <point x="1005" y="998"/>
      <point x="608" y="-127"/>
      <point x="595" y="-161" type="curve" smooth="yes"/>
      <point x="518" y="-365"/>
      <point x="427" y="-429"/>
      <point x="264" y="-429" type="curve" smooth="yes"/>
      <point x="233" y="-429"/>
      <point x="124" y="-417"/>
    </contour>
  </outline>
</glyph>
<glyph name="z" format="1">
  <advance width="964"/>
  <unicode hex="007A"/>
  <outline>
    <contour>
      <point x="155" y="998" type="line"/>
      <point x="155" y="878" type="line"/>
      <point x="647" y="878" type="line"/>
      <point x="134" y="117" type="line"/>
      <point x="134" y="0" type="line"/>
      <point x="834" y="0" type="line"/>
      <point x="834" y="120" type="line"/>
      <point x="313" y="120" type="line"/>
      <point x="817" y="873" type="line"/>
      <point x="817" y="998" type="line"/>
    </contour>
  </outline>
</glyph>
<glyph name="bar" format="1">
  <advance width="488"/>
  <unicode hex="007C"/>
  <outline>
    <contour>
      <point x="178" y="-276" type="line"/>
      <point x="310" y="-276" type="line"/>
      <point x="310" y="1525" type="line"/>
      <point x="178" y="1525" type="line"/>
    </contour>
  </outline>
</glyph>
<glyph name="braceright" format="1">
  <advance width="726"/>
  <unicode hex="007D"/>
  <outline>
    <contour>
      <point x="101" y="-256" type="curve"/>
      <point x="101" y="-130" type="line"/>
      <point x="233" y="-128"/>
      <point x="271" y="-78"/>
      <point x="271" y="76" type="curve" smooth="yes"/>
      <point x="271" y="318" type="line" smooth="yes"/>
      <point x="271" y="434"/>
      <point x="313" y="490"/>
      <point x="439" y="575" type="curve"/>
      <point x="317" y="613"/>
      <point x="271" y="718"/>
      <point x="271" y="826" type="curve" smooth="yes"/>
      <point x="271" y="1067" type="line" smooth="yes"/>
      <point x="271" y="1217"/>
      <point x="235" y="1273"/>
      <point x="101" y="1275" type="curve"/>
      <point x="101" y="1400" type="line"/>
      <point x="328" y="1400"/>
      <point x="421" y="1297"/>
      <point x="421" y="1087" type="curve" smooth="yes"/>
      <point x="421" y="898" type="line" smooth="yes"/>
      <point x="421" y="741"/>
      <point x="441" y="640"/>
      <point x="617" y="638" type="curve"/>
      <point x="617" y="506" type="line"/>
      <point x="447" y="506"/>
      <point x="421" y="401"/>
      <point x="421" y="245" type="curve" smooth="yes"/>
      <point x="421" y="25" type="line" smooth="yes"/>
      <point x="421" y="-162"/>
      <point x="314" y="-255"/>
    </contour>
  </outline>
</glyph>
<glyph name="exclamdown" format="1">
  <advance width="557"/>
  <unicode hex="00A1"/>
  <outline>
    <contour>
      <point x="279" y="877.932998657" type="line"/>
      <point x="198" y="877.932983398"/>
      <point x="158" y="937.932983398"/>
      <point x="158" y="997.932983398" type="curve" smooth="yes"/>
      <point x="158" y="1057.92997742"/>
      <point x="198" y="1117.92997742"/>
      <point x="279" y="1117.92997742" type="curve" smooth="yes"/>
      <point x="359" y="1117.92997742"/>
      <point x="400" y="1057.92997742"/>
      <point x="400" y="997.932983398" type="curve" smooth="yes"/>
      <point x="400" y="937.932983398"/>
      <point x="359" y="877.932983398"/>
      <point x="279" y="877.932983398" type="curve"/>
    </contour>
    <contour>
      <point x="369" y="-125.067016602" type="line"/>
      <point x="369" y="-254.067016602" type="line"/>
      <point x="190" y="-254.067016602" type="line"/>
      <point x="190" y="-125.067016602" type="line"/>
      <point x="241" y="710.932983398" type="line"/>
      <point x="313" y="710.932983398" type="line"/>
    </contour>
  </outline>
</glyph>
<glyph name="cent" format="1">
  <advance width="977"/>
  <unicode hex="00A2"/>
  <outline>
    <contour>
      <point x="543" y="282" type="curve"/>
      <point x="543" y="1068" type="line"/>
      <point x="382" y="1043"/>
      <point x="265" y="883"/>
      <point x="265" y="671" type="curve" smooth="yes"/>
      <point x="265" y="464"/>
      <point x="374" y="309"/>
    </contour>
    <contour>
      <point x="543" y="1" type="line"/>
      <point x="543" y="155" type="line"/>
      <point x="263" y="179"/>
      <point x="109" y="411"/>
      <point x="109" y="675" type="curve"/>
      <point x="111" y="936"/>
      <point x="273" y="1172"/>
      <point x="543" y="1196" type="curve"/>
      <point x="543" y="1361" type="line"/>
      <point x="630" y="1361" type="line"/>
      <point x="630" y="1196" type="line"/>
      <point x="728" y="1190"/>
      <point x="811" y="1158"/>
      <point x="861" y="1111" type="curve"/>
      <point x="823" y="1003" type="line"/>
      <point x="761" y="1045"/>
      <point x="694" y="1065"/>
      <point x="630" y="1070" type="curve"/>
      <point x="630" y="279" type="line"/>
      <point x="707" y="286"/>
      <point x="775" y="318"/>
      <point x="824" y="353" type="curve"/>
      <point x="862" y="244" type="line"/>
      <point x="805" y="191"/>
      <point x="717" y="161"/>
      <point x="630" y="155" type="curve"/>
      <point x="630" y="1" type="line"/>
    </contour>
  </outline>
</glyph>
<glyph name="yen" format="1">
  <advance width="1183"/>
  <unicode hex="00A5"/>
  <outline>
    <contour>
      <point x="520" y="385" type="line"/>
      <point x="520" y="551" type="line"/>
      <point x="199" y="551" type="line"/>
      <point x="199" y="663" type="line"/>
      <point x="476" y="663" type="line"/>
      <point x="99" y="1346" type="line"/>
      <point x="261" y="1346" type="line"/>
      <point x="592" y="733" type="line"/>
      <point x="928" y="1346" type="line"/>
      <point x="1085" y="1346" type="line"/>
      <point x="700" y="663" type="line"/>
      <point x="978" y="663" type="line"/>
      <point x="978" y="551" type="line"/>
      <point x="663" y="551" type="line"/>
      <point x="663" y="385" type="line"/>
      <point x="979" y="385" type="line"/>
      <point x="979" y="272" type="line"/>
      <point x="663" y="272" type="line"/>
      <point x="663" y="0" type="line"/>
      <point x="520" y="0" type="line"/>
      <point x="520" y="272" type="line"/>
      <point x="198" y="272" type="line"/>
      <point x="198" y="385" type="line"/>
    </contour>
  </outline>
</glyph>
<glyph name="brokenbar" format="1">
  <advance width="399"/>
  <unicode hex="00A6"/>
  <outline>
    <contour>
      <point x="134" y="-363" type="line"/>
      <point x="267" y="-363" type="line"/>
      <point x="267" y="282" type="line"/>
      <point x="134" y="282" type="line"/>
    </contour>
    <contour>
      <point x="134" y="794" type="line"/>
      <point x="267" y="794" type="line"/>
      <point x="267" y="1437" type="line"/>
      <point x="134" y="1437" type="line"/>
    </contour>
  </outline>
</glyph>
<glyph name="dieresis" format="1">
  <advance width="700"/>
  <unicode hex="00A8"/>
  <outline>
    <contour>
      <point x="462" y="1141" type="line"/>
      <point x="462" y="1334" type="line"/>
      <point x="603" y="1334" type="line"/>
      <point x="603" y="1141" type="line"/>
    </contour>
    <contour>
      <point x="107" y="1141" type="line"/>
      <point x="107" y="1334" type="line"/>
      <point x="248" y="1334" type="line"/>
      <point x="248" y="1141" type="line"/>
    </contour>
  </outline>
</glyph>
<glyph name="copyright" format="1">
  <advance width="1671"/>
  <unicode hex="00A9"/>
  <outline>
    <contour>
      <point x="828" y="-24" type="curve" smooth="yes"/>
      <point x="471" y="-24"/>
      <point x="114" y="221"/>
      <point x="114" y="711" type="curve" smooth="yes"/>
      <point x="114" y="1200"/>
      <point x="467" y="1443"/>
      <point x="824" y="1443" type="curve" smooth="yes"/>
      <point x="1202" y="1443"/>
      <point x="1555" y="1198"/>
      <point x="1555" y="711" type="curve" smooth="yes"/>
      <point x="1555" y="221"/>
      <point x="1206" y="-24"/>
    </contour>
    <contour>
      <point x="828" y="61" type="curve" smooth="yes"/>
      <point x="1238" y="61"/>
      <point x="1452" y="352"/>
      <point x="1452" y="708" type="curve" smooth="yes"/>
      <point x="1452" y="1063"/>
      <point x="1236" y="1359"/>
      <point x="824" y="1359" type="curve" smooth="yes"/>
      <point x="434" y="1359"/>
      <point x="217" y="1064"/>
      <point x="217" y="713" type="curve" smooth="yes"/>
      <point x="217" y="354"/>
      <point x="434" y="61"/>
    </contour>
    <contour>
      <point x="834" y="246" type="curve" smooth="yes"/>
      <point x="583" y="246"/>
      <point x="402" y="445"/>
      <point x="402" y="714" type="curve" smooth="yes"/>
      <point x="402" y="983"/>
      <point x="577" y="1184"/>
      <point x="844" y="1184" type="curve" smooth="yes"/>
      <point x="953" y="1184"/>
      <point x="1049" y="1154"/>
      <point x="1124" y="1102" type="curve"/>
      <point x="1069" y="1014" type="line"/>
      <point x="1013" y="1054"/>
      <point x="920" y="1076"/>
      <point x="835" y="1076" type="curve" smooth="yes"/>
      <point x="622" y="1076"/>
      <point x="526" y="907"/>
      <point x="526" y="718" type="curve" smooth="yes"/>
      <point x="526" y="513"/>
      <point x="628" y="352"/>
      <point x="853" y="352" type="curve" smooth="yes"/>
      <point x="937" y="352"/>
      <point x="1040" y="383"/>
      <point x="1091" y="418" type="curve"/>
      <point x="1127" y="320" type="line"/>
      <point x="1063" y="279"/>
      <point x="947" y="246"/>
    </contour>
  </outline>
</glyph>
<glyph name="ordfeminine" format="1">
  <advance width="751"/>
  <unicode hex="00AA"/>
  <outline>
    <contour>
      <point x="345" y="853" type="curve" smooth="yes"/>
      <point x="453" y="853"/>
      <point x="498" y="953"/>
      <point x="503" y="1063" type="curve"/>
      <point x="503" y="1087" type="line"/>
      <point x="390" y="1075"/>
      <point x="234" y="1080"/>
      <point x="234" y="954" type="curve" smooth="yes"/>
      <point x="234" y="881"/>
      <point x="279" y="853"/>
    </contour>
    <contour>
      <point x="131" y="578" type="line"/>
      <point x="131" y="674" type="line"/>
      <point x="627" y="674" type="line"/>
      <point x="627" y="578" type="line"/>
    </contour>
    <contour>
      <point x="328" y="752" type="curve" smooth="yes"/>
      <point x="212" y="752"/>
      <point x="126" y="831"/>
      <point x="126" y="956" type="curve" smooth="yes"/>
      <point x="126" y="1131"/>
      <point x="287" y="1159"/>
      <point x="503" y="1173" type="curve"/>
      <point x="503" y="1189" type="line"/>
      <point x="500" y="1295"/>
      <point x="474" y="1340"/>
      <point x="385" y="1340" type="curve" smooth="yes"/>
      <point x="319" y="1340"/>
      <point x="255" y="1335"/>
      <point x="189" y="1260" type="curve"/>
      <point x="134" y="1331" type="line"/>
      <point x="202" y="1420"/>
      <point x="289" y="1447"/>
      <point x="390" y="1447" type="curve" smooth="yes"/>
      <point x="508" y="1447"/>
      <point x="610" y="1380"/>
      <point x="610" y="1210" type="curve"/>
      <point x="608" y="894" type="line" smooth="yes"/>
      <point x="608" y="882"/>
      <point x="608" y="854"/>
      <point x="613" y="771" type="curve"/>
      <point x="506" y="771" type="line"/>
      <point x="503" y="843" type="line"/>
      <point x="467" y="788"/>
      <point x="408" y="752"/>
    </contour>
  </outline>
</glyph>
<glyph name="guillemotleft" format="1">
  <advance width="941"/>
  <unicode hex="00AB"/>
  <outline>
    <contour>
      <point x="495" y="851" type="line"/>
      <point x="365" y="883" type="line"/>
      <point x="98" y="516" type="line"/>
      <point x="116" y="473" type="line"/>
      <point x="362" y="136" type="line"/>
      <point x="490" y="168" type="line"/>
      <point x="246" y="511" type="line"/>
    </contour>
    <contour>
      <point x="592" y="511" type="line"/>
      <point x="827" y="851" type="line"/>
      <point x="711" y="883" type="line"/>
      <point x="434" y="516" type="line"/>
      <point x="709" y="136" type="line"/>
      <point x="824" y="168" type="line"/>
    </contour>
  </outline>
</glyph>
<glyph name="logicalnot" format="1">
  <advance width="1128"/>
  <unicode hex="00AC"/>
  <outline>
    <contour>
      <point x="1008" y="751" type="line"/>
      <point x="1008" y="237" type="line"/>
      <point x="885" y="237" type="line"/>
      <point x="885" y="620" type="line"/>
      <point x="106" y="620" type="line"/>
      <point x="106" y="751" type="line"/>
    </contour>
  </outline>
</glyph>
<glyph name="uni00AD" format="1">
  <advance width="860"/>
  <unicode hex="00AD"/>
  <outline>
    <contour>
      <point x="98" y="215" type="line"/>
      <point x="767" y="215" type="line"/>
      <point x="767" y="351" type="line"/>
      <point x="98" y="351" type="line"/>
    </contour>
  </outline>
</glyph>
<glyph name="uni00AD" format="1">
  <advance width="860"/>
  <unicode hex="00AD"/>
  <outline>
    <contour>
      <point x="98" y="215" type="line"/>
      <point x="98" y="351" type="line"/>
      <point x="767" y="351" type="line"/>
      <point x="767" y="215" type="line"/>
    </contour>
  </outline>
</glyph>
<glyph name="macron" format="1">
  <advance width="966"/>
  <unicode hex="00AF"/>
  <outline>
    <contour>
      <point x="181" y="1352" type="line"/>
      <point x="181" y="1479" type="line"/>
      <point x="789" y="1479" type="line"/>
      <point x="789" y="1352" type="line"/>
    </contour>
  </outline>
</glyph>
<glyph name="plusminus" format="1">
  <advance width="1126"/>
  <unicode hex="00B1"/>
  <outline>
    <contour>
      <point x="122" y="0" type="line"/>
      <point x="122" y="130" type="line"/>
      <point x="1005" y="130" type="line"/>
      <point x="1005" y="0" type="line"/>
    </contour>
    <contour>
      <point x="499" y="719" type="line"/>
      <point x="499" y="1097" type="line"/>
      <point x="622" y="1097" type="line"/>
      <point x="622" y="719" type="line"/>
      <point x="1003" y="719" type="line"/>
      <point x="1003" y="589" type="line"/>
      <point x="624" y="589" type="line"/>
      <point x="624" y="212" type="line"/>
      <point x="500" y="212" type="line"/>
      <point x="500" y="589" type="line"/>
      <point x="122" y="589" type="line"/>
      <point x="122" y="719" type="line"/>
    </contour>
  </outline>
</glyph>
<glyph name="uni00B2" format="1">
  <advance width="786"/>
  <unicode hex="00B2"/>
  <outline>
    <contour>
      <point x="172" y="655" type="line"/>
      <point x="660" y="655" type="line"/>
      <point x="666" y="755" type="line"/>
      <point x="313" y="755" type="line"/>
      <point x="529" y="947" type="line" smooth="yes"/>
      <point x="623" y="1030"/>
      <point x="664" y="1098"/>
      <point x="664" y="1189" type="curve" smooth="yes"/>
      <point x="664" y="1197"/>
      <point x="664" y="1204"/>
      <point x="663" y="1212" type="curve" smooth="yes"/>
      <point x="654" y="1344"/>
      <point x="537" y="1413"/>
      <point x="399" y="1413" type="curve" smooth="yes"/>
      <point x="321" y="1413"/>
      <point x="237" y="1392"/>
      <point x="162" y="1347" type="curve"/>
      <point x="193" y="1249" type="line"/>
      <point x="251" y="1291"/>
      <point x="324" y="1313"/>
      <point x="389" y="1313" type="curve" smooth="yes"/>
      <point x="470" y="1313"/>
      <point x="537" y="1278"/>
      <point x="545" y="1202" type="curve" smooth="yes"/>
      <point x="546" y="1196"/>
      <point x="546" y="1189"/>
      <point x="546" y="1183" type="curve" smooth="yes"/>
      <point x="546" y="1113"/>
      <point x="500" y="1064"/>
      <point x="445" y="1015" type="curve" smooth="yes"/>
      <point x="160" y="759" type="line"/>
    </contour>
  </outline>
</glyph>
<glyph name="uni00B2" format="1">
  <advance width="683"/>
  <unicode hex="00B2"/>
  <outline>
    <contour>
      <point x="558" y="592" type="line"/>
      <point x="558" y="708" type="line"/>
      <point x="268" y="708" type="line"/>
      <point x="431" y="878"/>
      <point x="560" y="1021"/>
      <point x="560" y="1188" type="curve" smooth="yes"/>
      <point x="560" y="1324"/>
      <point x="469" y="1411"/>
      <point x="350" y="1411" type="curve" smooth="yes"/>
      <point x="248" y="1411"/>
      <point x="164" y="1350"/>
      <point x="128" y="1244" type="curve"/>
      <point x="196" y="1167" type="line"/>
      <point x="228" y="1248"/>
      <point x="275" y="1296"/>
      <point x="344" y="1296" type="curve" smooth="yes"/>
      <point x="416" y="1296"/>
      <point x="457" y="1252"/>
      <point x="457" y="1186" type="curve" smooth="yes"/>
      <point x="457" y="1077"/>
      <point x="315" y="919"/>
      <point x="120" y="700" type="curve"/>
      <point x="120" y="592" type="line"/>
    </contour>
  </outline>
</glyph>
<glyph name="uni00B3" format="1">
  <advance width="787"/>
  <unicode hex="00B3"/>
  <outline>
    <contour>
      <point x="530" y="754"/>
      <point x="457" y="720"/>
      <point x="376" y="720" type="curve" smooth="yes"/>
      <point x="308" y="720"/>
      <point x="234" y="744"/>
      <point x="192" y="777" type="curve"/>
      <point x="176" y="681" type="line"/>
      <point x="207" y="653"/>
      <point x="283" y="622"/>
      <point x="390" y="622" type="curve" smooth="yes"/>
      <point x="548" y="622"/>
      <point x="653" y="705"/>
      <point x="663" y="843" type="curve" smooth="yes"/>
      <point x="663" y="849"/>
      <point x="664" y="854"/>
      <point x="664" y="860" type="curve" smooth="yes"/>
      <point x="664" y="954"/>
      <point x="610" y="1020"/>
      <point x="512" y="1048" type="curve"/>
      <point x="600" y="1075"/>
      <point x="638" y="1127"/>
      <point x="638" y="1227" type="curve" smooth="yes"/>
      <point x="638" y="1364"/>
      <point x="531" y="1413"/>
      <point x="406" y="1413" type="curve" smooth="yes"/>
      <point x="312" y="1413"/>
      <point x="210" y="1385"/>
      <point x="144" y="1347" type="curve"/>
      <point x="175" y="1253" type="line"/>
      <point x="224" y="1290"/>
      <point x="305" y="1316"/>
      <point x="375" y="1316" type="curve" smooth="yes"/>
      <point x="447" y="1316"/>
      <point x="508" y="1288"/>
      <point x="508" y="1215" type="curve" smooth="yes"/>
      <point x="508" y="1102"/>
      <point x="405" y="1088"/>
      <point x="290" y="1085" type="curve" smooth="yes"/>
      <point x="264" y="1085" type="line"/>
      <point x="264" y="989" type="line"/>
      <point x="290" y="989" type="line" smooth="yes"/>
      <point x="424" y="986"/>
      <point x="537" y="958"/>
      <point x="537" y="855" type="curve" smooth="yes"/>
      <point x="537" y="844" type="line" smooth="yes"/>
    </contour>
  </outline>
</glyph>
<glyph name="acute" format="1">
  <advance width="581"/>
  <unicode hex="00B4"/>
  <outline>
    <contour>
      <point x="116" y="1138" type="line"/>
      <point x="286" y="1491" type="line"/>
      <point x="516" y="1491" type="line"/>
      <point x="220" y="1138" type="line"/>
    </contour>
  </outline>
</glyph>
<glyph name="paragraph" format="1">
  <advance width="1043"/>
  <unicode hex="00B6"/>
  <outline>
    <contour>
      <point x="557" y="-144" type="line"/>
      <point x="557" y="1301" type="line"/>
      <point x="756" y="1301" type="line"/>
      <point x="756" y="-144" type="line"/>
      <point x="861" y="-144" type="line"/>
      <point x="861" y="1301" type="line"/>
      <point x="929" y="1301" type="line"/>
      <point x="929" y="1421" type="line"/>
      <point x="505" y="1421" type="line" smooth="yes"/>
      <point x="211" y="1421"/>
      <point x="97" y="1263"/>
      <point x="97" y="1103" type="curve" smooth="yes"/>
      <point x="97" y="940"/>
      <point x="241" y="775"/>
      <point x="443" y="771" type="curve"/>
      <point x="443" y="-144" type="line"/>
    </contour>
  </outline>
</glyph>
<glyph name="periodcentered" format="1">
  <advance width="372"/>
  <unicode hex="00B7"/>
  <outline>
    <contour>
      <point x="107" y="511" type="line"/>
      <point x="107" y="691" type="line"/>
      <point x="260" y="691" type="line"/>
      <point x="260" y="511" type="line"/>
    </contour>
  </outline>
</glyph>
<glyph name="cedilla" format="1">
  <advance width="542"/>
  <unicode hex="00B8"/>
  <outline>
    <contour>
      <point x="104" y="-373" type="line"/>
      <point x="206" y="15" type="line"/>
      <point x="284" y="15" type="line"/>
      <point x="244" y="-373" type="line"/>
    </contour>
  </outline>
</glyph>
<glyph name="uni00B9" format="1">
  <advance width="810"/>
  <unicode hex="00B9"/>
  <outline>
    <contour>
      <point x="208" y="755" type="line"/>
      <point x="208" y="655" type="line"/>
      <point x="687" y="655" type="line"/>
      <point x="687" y="755" type="line"/>
      <point x="518" y="755" type="line"/>
      <point x="518" y="1390" type="line"/>
      <point x="405" y="1390" type="line"/>
      <point x="369" y="1354"/>
      <point x="254" y="1307"/>
      <point x="208" y="1297" type="curve"/>
      <point x="208" y="1188" type="line"/>
      <point x="259" y="1199"/>
      <point x="354" y="1233"/>
      <point x="389" y="1256" type="curve"/>
      <point x="389" y="755" type="line"/>
    </contour>
  </outline>
</glyph>
<glyph name="uni00B9" format="1">
  <advance width="569"/>
  <unicode hex="00B9"/>
  <outline>
    <contour>
      <point x="130" y="679" type="line"/>
      <point x="238" y="679" type="line"/>
      <point x="238" y="1282" type="line"/>
      <point x="203" y="1259"/>
      <point x="158" y="1235"/>
      <point x="118" y="1214" type="curve"/>
      <point x="118" y="1307" type="line"/>
      <point x="174" y="1335"/>
      <point x="218" y="1364"/>
      <point x="254" y="1400" type="curve"/>
      <point x="342" y="1400" type="line"/>
      <point x="342" y="679" type="line"/>
      <point x="455" y="679" type="line"/>
      <point x="455" y="592" type="line"/>
      <point x="130" y="592" type="line"/>
    </contour>
  </outline>
</glyph>
<glyph name="guillemotright" format="1">
  <advance width="960"/>
  <unicode hex="00BB"/>
  <outline>
    <contour>
      <point x="233" y="883" type="line"/>
      <point x="117" y="851" type="line"/>
      <point x="351" y="511" type="line"/>
      <point x="116" y="168" type="line"/>
      <point x="232" y="136" type="line"/>
      <point x="509" y="504" type="line"/>
    </contour>
    <contour>
      <point x="592" y="883" type="line"/>
      <point x="467" y="851" type="line"/>
      <point x="708" y="511" type="line"/>
      <point x="462" y="168" type="line"/>
      <point x="589" y="136" type="line"/>
      <point x="855" y="504" type="line"/>
    </contour>
  </outline>
</glyph>
<glyph name="onequarter" format="1">
  <advance width="1506"/>
  <unicode hex="00BC"/>
  <outline>
    <contour>
      <point x="1254" y="652" type="line"/>
      <point x="1030" y="326" type="line"/>
      <point x="1254" y="326" type="line"/>
    </contour>
    <contour>
      <point x="313" y="0" type="line"/>
      <point x="1150" y="1408" type="line"/>
      <point x="1273" y="1408" type="line"/>
      <point x="435" y="0" type="line"/>
    </contour>
    <contour>
      <point x="1245" y="818" type="line"/>
      <point x="1354" y="818" type="line"/>
      <point x="1354" y="326" type="line"/>
      <point x="1440" y="326" type="line"/>
      <point x="1449" y="218" type="line"/>
      <point x="1352" y="218" type="line"/>
      <point x="1352" y="36" type="line"/>
      <point x="1254" y="36" type="line"/>
      <point x="1254" y="218" type="line"/>
      <point x="900" y="218" type="line"/>
      <point x="900" y="308" type="line"/>
    </contour>
    <contour>
      <point x="133" y="679" type="line"/>
      <point x="240" y="679" type="line"/>
      <point x="240" y="1282" type="line"/>
      <point x="205" y="1259"/>
      <point x="161" y="1235"/>
      <point x="121" y="1214" type="curve"/>
      <point x="121" y="1307" type="line"/>
      <point x="177" y="1335"/>
      <point x="221" y="1364"/>
      <point x="257" y="1400" type="curve"/>
      <point x="345" y="1400" type="line"/>
      <point x="345" y="679" type="line"/>
      <point x="458" y="679" type="line"/>
      <point x="458" y="592" type="line"/>
      <point x="133" y="592" type="line"/>
    </contour>
  </outline>
</glyph>
<glyph name="Agrave" format="1">
  <advance width="1283"/>
  <unicode hex="00C0"/>
  <outline>
    <contour>
      <point x="590.5" y="1576" type="line"/>
      <point x="692.5" y="1576" type="line"/>
      <point x="524.5" y="1929" type="line"/>
      <point x="296.5" y="1929" type="line"/>
    </contour>
    <contour>
      <point x="37.0" y="0" type="line"/>
      <point x="215.0" y="0" type="line"/>
      <point x="375.0" y="430" type="line"/>
      <point x="919.0" y="430" type="line"/>
      <point x="1078.0" y="0" type="line"/>
      <point x="1246.0" y="0" type="line"/>
      <point x="743.0" y="1390" type="line"/>
      <point x="541.0" y="1390" type="line"/>
    </contour>
    <contour>
      <point x="426.0" y="561" type="line"/>
      <point x="641.0" y="1223" type="line"/>
      <point x="870.0" y="561" type="line"/>
    </contour>
  </outline>
</glyph>
<glyph name="Agrave" format="1">
  <advance width="1379"/>
  <unicode hex="00C0"/>
  <outline>
    <contour>
      <point x="638.5" y="1535" type="line"/>
      <point x="344.5" y="1888" type="line"/>
      <point x="572.5" y="1888" type="line"/>
      <point x="740.5" y="1535" type="line"/>
    </contour>
    <contour>
      <point x="85.0" y="0" type="line"/>
      <point x="589.0" y="1390" type="line"/>
      <point x="791.0" y="1390" type="line"/>
      <point x="1294.0" y="0" type="line"/>
      <point x="1126.0" y="0" type="line"/>
      <point x="967.0" y="430" type="line"/>
      <point x="423.0" y="430" type="line"/>
      <point x="263.0" y="0" type="line"/>
    </contour>
    <contour>
      <point x="474.0" y="561" type="line"/>
      <point x="918.0" y="561" type="line"/>
      <point x="689.0" y="1223" type="line"/>
    </contour>
  </outline>
</glyph>
<glyph name="Aacute" format="1">
  <advance width="1379"/>
  <unicode hex="00C1"/>
  <outline>
    <contour>
      <point x="637.5" y="1576" type="line"/>
      <point x="741.5" y="1576" type="line"/>
      <point x="1037.5" y="1929" type="line"/>
      <point x="807.5" y="1929" type="line"/>
    </contour>
    <contour>
      <point x="474.0" y="561" type="line"/>
      <point x="689.0" y="1223" type="line"/>
      <point x="918.0" y="561" type="line"/>
    </contour>
    <contour>
      <point x="85.0" y="0" type="line"/>
      <point x="263.0" y="0" type="line"/>
      <point x="423.0" y="430" type="line"/>
      <point x="967.0" y="430" type="line"/>
      <point x="1126.0" y="0" type="line"/>
      <point x="1294.0" y="0" type="line"/>
      <point x="791.0" y="1390" type="line"/>
      <point x="589.0" y="1390" type="line"/>
    </contour>
  </outline>
</glyph>
<glyph name="Acircumflex" format="1">
  <advance width="1283"/>
  <unicode hex="00C2"/>
  <outline>
    <contour>
      <point x="374.5" y="1576" type="line"/>
      <point x="493.5" y="1576" type="line"/>
      <point x="640.5" y="1824" type="line"/>
      <point x="787.5" y="1576" type="line"/>
      <point x="908.5" y="1576" type="line"/>
      <point x="738.5" y="1929" type="line"/>
      <point x="544.5" y="1929" type="line"/>
    </contour>
    <contour>
      <point x="37.0" y="0" type="line"/>
      <point x="215.0" y="0" type="line"/>
      <point x="375.0" y="430" type="line"/>
      <point x="919.0" y="430" type="line"/>
      <point x="1078.0" y="0" type="line"/>
      <point x="1246.0" y="0" type="line"/>
      <point x="743.0" y="1390" type="line"/>
      <point x="541.0" y="1390" type="line"/>
    </contour>
    <contour>
      <point x="426.0" y="561" type="line"/>
      <point x="641.0" y="1223" type="line"/>
      <point x="870.0" y="561" type="line"/>
    </contour>
  </outline>
</glyph>
<glyph name="Atilde" format="1">
  <advance width="1283"/>
  <unicode hex="00C3"/>
  <outline>
    <contour>
      <point x="358" y="1576" type="curve"/>
      <point x="455" y="1576" type="line"/>
      <point x="458" y="1626"/>
      <point x="475" y="1663"/>
      <point x="505" y="1664" type="curve"/>
      <point x="505" y="1664"/>
      <point x="707" y="1576"/>
      <point x="789" y="1576" type="curve" smooth="yes"/>
      <point x="885" y="1576"/>
      <point x="925" y="1650"/>
      <point x="925" y="1775" type="curve"/>
      <point x="825" y="1775" type="line"/>
      <point x="822" y="1737"/>
      <point x="819" y="1693"/>
      <point x="783" y="1690" type="curve"/>
      <point x="783" y="1690"/>
      <point x="627" y="1775"/>
      <point x="514" y="1775" type="curve" smooth="yes"/>
      <point x="417" y="1775"/>
      <point x="358" y="1712"/>
    </contour>
    <contour>
      <point x="37" y="0" type="line"/>
      <point x="215" y="0" type="line"/>
      <point x="375" y="430" type="line"/>
      <point x="919" y="430" type="line"/>
      <point x="1078" y="0" type="line"/>
      <point x="1246" y="0" type="line"/>
      <point x="743" y="1390" type="line"/>
      <point x="541" y="1390" type="line"/>
    </contour>
    <contour>
      <point x="426" y="561" type="line"/>
      <point x="641" y="1223" type="line"/>
      <point x="870" y="561" type="line"/>
    </contour>
  </outline>
</glyph>
<glyph name="Atilde" format="1">
  <advance width="1379"/>
  <unicode hex="00C3"/>
  <outline>
    <contour>
      <point x="406" y="1535" type="line"/>
      <point x="406" y="1671"/>
      <point x="465" y="1734"/>
      <point x="562" y="1734" type="curve" smooth="yes"/>
      <point x="675" y="1734"/>
      <point x="831" y="1649"/>
      <point x="831" y="1649" type="curve"/>
      <point x="867" y="1652"/>
      <point x="870" y="1696"/>
      <point x="873" y="1734" type="curve"/>
      <point x="973" y="1734" type="line"/>
      <point x="973" y="1609"/>
      <point x="933" y="1535"/>
      <point x="837" y="1535" type="curve" smooth="yes"/>
      <point x="755" y="1535"/>
      <point x="553" y="1623"/>
      <point x="553" y="1623" type="curve"/>
      <point x="523" y="1622"/>
      <point x="506" y="1585"/>
      <point x="503" y="1535" type="curve"/>
    </contour>
    <contour>
      <point x="85" y="0" type="line"/>
      <point x="589" y="1390" type="line"/>
      <point x="791" y="1390" type="line"/>
      <point x="1294" y="0" type="line"/>
      <point x="1126" y="0" type="line"/>
      <point x="967" y="430" type="line"/>
      <point x="423" y="430" type="line"/>
      <point x="263" y="0" type="line"/>
    </contour>
    <contour>
      <point x="474" y="561" type="line"/>
      <point x="918" y="561" type="line"/>
      <point x="689" y="1223" type="line"/>
    </contour>
  </outline>
</glyph>
<glyph name="Ccedilla" format="1">
  <advance width="1306"/>
  <unicode hex="00C7"/>
  <outline>
    <contour>
      <point x="520" y="-393.694335938" type="line"/>
      <point x="622" y="-5.6943359375" type="line"/>
      <point x="700" y="-5.6943359375" type="line"/>
      <point x="660" y="-393.694335938" type="line"/>
    </contour>
    <contour>
      <point x="777" y="-18.0" type="curve" smooth="yes"/>
      <point x="361" y="-2.0"/>
      <point x="137" y="310.0"/>
      <point x="137" y="725.0" type="curve" smooth="yes"/>
      <point x="137" y="1130.0"/>
      <point x="383" y="1413.0"/>
      <point x="795" y="1413.0" type="curve" smooth="yes"/>
      <point x="957" y="1413.0"/>
      <point x="1084" y="1377.0"/>
      <point x="1185" y="1313.0" type="curve"/>
      <point x="1131" y="1189.0" type="line"/>
      <point x="1040" y="1243.0"/>
      <point x="919" y="1275.0"/>
      <point x="797" y="1275.0" type="curve" smooth="yes"/>
      <point x="480" y="1275.0"/>
      <point x="309" y="1038.0"/>
      <point x="309" y="719.0" type="curve" smooth="yes"/>
      <point x="309" y="401.0"/>
      <point x="448" y="129.0"/>
      <point x="813" y="120.0" type="curve" smooth="yes"/>
      <point x="930" y="117.0"/>
      <point x="1040" y="149.0"/>
      <point x="1139" y="196.0" type="curve"/>
      <point x="1165" y="68.0" type="line"/>
      <point x="1100" y="28.0"/>
      <point x="948" y="-25.0"/>
    </contour>
  </outline>
</glyph>
<glyph name="Egrave" format="1">
  <advance width="1114"/>
  <unicode hex="00C8"/>
  <outline>
    <contour>
      <point x="536" y="1576" type="line"/>
      <point x="638" y="1576" type="line"/>
      <point x="470" y="1929" type="line"/>
      <point x="242" y="1929" type="line"/>
    </contour>
    <contour>
      <point x="356" y="1251" type="line"/>
      <point x="989" y="1251" type="line"/>
      <point x="996" y="1390" type="line"/>
      <point x="178" y="1390" type="line"/>
      <point x="178" y="0" type="line"/>
      <point x="988" y="0" type="line"/>
      <point x="996" y="139" type="line"/>
      <point x="356" y="139" type="line"/>
      <point x="356" y="662" type="line"/>
      <point x="936" y="662" type="line"/>
      <point x="936" y="799" type="line"/>
      <point x="356" y="799" type="line"/>
    </contour>
  </outline>
</glyph>
<glyph name="Igrave" format="1">
  <advance width="607"/>
  <unicode hex="00CC"/>
  <outline>
    <contour>
      <point x="252.5" y="1576" type="line"/>
      <point x="354.5" y="1576" type="line"/>
      <point x="186.5" y="1929" type="line"/>
      <point x="-41.5" y="1929" type="line"/>
    </contour>
    <contour>
      <point x="214.0" y="0" type="line"/>
      <point x="393.0" y="0" type="line"/>
      <point x="393.0" y="1390" type="line"/>
      <point x="214.0" y="1390" type="line"/>
    </contour>
  </outline>
</glyph>
<glyph name="Iacute" format="1">
  <advance width="557"/>
  <unicode hex="00CD"/>
  <outline>
    <contour>
      <point x="233.5" y="1576" type="line"/>
      <point x="337.5" y="1576" type="line"/>
      <point x="633.5" y="1929" type="line"/>
      <point x="403.5" y="1929" type="line"/>
    </contour>
    <contour>
      <point x="196.0" y="0" type="line"/>
      <point x="375.0" y="0" type="line"/>
      <point x="375.0" y="1390" type="line"/>
      <point x="196.0" y="1390" type="line"/>
    </contour>
  </outline>
</glyph>
<glyph name="Icircumflex" format="1">
  <advance width="607"/>
  <unicode hex="00CE"/>
  <outline>
    <contour>
      <point x="36.5" y="1576" type="line"/>
      <point x="155.5" y="1576" type="line"/>
      <point x="302.5" y="1824" type="line"/>
      <point x="449.5" y="1576" type="line"/>
      <point x="570.5" y="1576" type="line"/>
      <point x="400.5" y="1929" type="line"/>
      <point x="206.5" y="1929" type="line"/>
    </contour>
    <contour>
      <point x="214.0" y="0" type="line"/>
      <point x="393.0" y="0" type="line"/>
      <point x="393.0" y="1390" type="line"/>
      <point x="214.0" y="1390" type="line"/>
    </contour>
  </outline>
</glyph>
<glyph name="Idieresis" format="1">
  <advance width="607"/>
  <unicode hex="00CF"/>
  <outline>
    <contour>
      <point x="55.5" y="1576" type="line"/>
      <point x="196.5" y="1576" type="line"/>
      <point x="196.5" y="1769" type="line"/>
      <point x="55.5" y="1769" type="line"/>
    </contour>
    <contour>
      <point x="410.5" y="1576" type="line"/>
      <point x="551.5" y="1576" type="line"/>
      <point x="551.5" y="1769" type="line"/>
      <point x="410.5" y="1769" type="line"/>
    </contour>
    <contour>
      <point x="214.0" y="0" type="line"/>
      <point x="393.0" y="0" type="line"/>
      <point x="393.0" y="1390" type="line"/>
      <point x="214.0" y="1390" type="line"/>
    </contour>
  </outline>
</glyph>
<glyph name="Ntilde" format="1">
  <advance width="1485"/>
  <unicode hex="00D1"/>
  <outline>
    <contour>
      <point x="459" y="1576" type="curve"/>
      <point x="556" y="1576" type="line"/>
      <point x="559" y="1626"/>
      <point x="576" y="1663"/>
      <point x="606" y="1664" type="curve"/>
      <point x="606" y="1664"/>
      <point x="808" y="1576"/>
      <point x="890" y="1576" type="curve" smooth="yes"/>
      <point x="986" y="1576"/>
      <point x="1026" y="1650"/>
      <point x="1026" y="1775" type="curve"/>
      <point x="926" y="1775" type="line"/>
      <point x="923" y="1737"/>
      <point x="920" y="1693"/>
      <point x="884" y="1690" type="curve"/>
      <point x="884" y="1690"/>
      <point x="728" y="1775"/>
      <point x="615" y="1775" type="curve" smooth="yes"/>
      <point x="518" y="1775"/>
      <point x="459" y="1712"/>
    </contour>
    <contour>
      <point x="1156" y="208" type="line"/>
      <point x="357" y="1390" type="line"/>
      <point x="178" y="1390" type="line"/>
      <point x="178" y="0" type="line"/>
      <point x="334" y="0" type="line"/>
      <point x="334" y="830" type="line"/>
      <point x="329" y="1181" type="line"/>
      <point x="1124" y="0" type="line"/>
      <point x="1307" y="0" type="line"/>
      <point x="1307" y="1390" type="line"/>
      <point x="1151" y="1390" type="line"/>
      <point x="1151" y="555" type="line"/>
    </contour>
  </outline>
</glyph>
<glyph name="Ntilde" format="1">
  <advance width="1557"/>
  <unicode hex="00D1"/>
  <outline>
    <contour>
      <point x="495" y="1535" type="line"/>
      <point x="495" y="1671"/>
      <point x="554" y="1734"/>
      <point x="651" y="1734" type="curve" smooth="yes"/>
      <point x="764" y="1734"/>
      <point x="920" y="1649"/>
      <point x="920" y="1649" type="curve"/>
      <point x="956" y="1652"/>
      <point x="959" y="1696"/>
      <point x="962" y="1734" type="curve"/>
      <point x="1062" y="1734" type="line"/>
      <point x="1062" y="1609"/>
      <point x="1022" y="1535"/>
      <point x="926" y="1535" type="curve" smooth="yes"/>
      <point x="844" y="1535"/>
      <point x="642" y="1623"/>
      <point x="642" y="1623" type="curve"/>
      <point x="612" y="1622"/>
      <point x="595" y="1585"/>
      <point x="592" y="1535" type="curve"/>
    </contour>
    <contour>
      <point x="1192" y="208" type="line"/>
      <point x="1187" y="555" type="line"/>
      <point x="1187" y="1390" type="line"/>
      <point x="1343" y="1390" type="line"/>
      <point x="1343" y="0" type="line"/>
      <point x="1160" y="0" type="line"/>
      <point x="365" y="1181" type="line"/>
      <point x="370" y="830" type="line"/>
      <point x="370" y="0" type="line"/>
      <point x="214" y="0" type="line"/>
      <point x="214" y="1390" type="line"/>
      <point x="393" y="1390" type="line"/>
    </contour>
  </outline>
</glyph>
<glyph name="Ocircumflex" format="1">
  <advance width="1581"/>
  <unicode hex="00D4"/>
  <outline>
    <contour>
      <point x="523.5" y="1535" type="line"/>
      <point x="693.5" y="1888" type="line"/>
      <point x="887.5" y="1888" type="line"/>
      <point x="1057.5" y="1535" type="line"/>
      <point x="936.5" y="1535" type="line"/>
      <point x="789.5" y="1783" type="line"/>
      <point x="642.5" y="1535" type="line"/>
    </contour>
    <contour>
      <point x="791.0" y="120" type="curve" smooth="yes"/>
      <point x="1115.0" y="120"/>
      <point x="1265.0" y="379"/>
      <point x="1265.0" y="697" type="curve" smooth="yes"/>
      <point x="1265.0" y="1027"/>
      <point x="1109.0" y="1275"/>
      <point x="792.0" y="1275" type="curve" smooth="yes"/>
      <point x="475.0" y="1275"/>
      <point x="316.0" y="1028"/>
      <point x="316.0" y="697" type="curve" smooth="yes"/>
      <point x="316.0" y="379"/>
      <point x="467.0" y="120"/>
    </contour>
    <contour>
      <point x="1444.0" y="697" type="curve" smooth="yes"/>
      <point x="1444.0" y="287"/>
      <point x="1209.0" y="-18"/>
      <point x="791.0" y="-18" type="curve" smooth="yes"/>
      <point x="368.0" y="-18"/>
      <point x="137.0" y="281"/>
      <point x="137.0" y="698" type="curve" smooth="yes"/>
      <point x="137.0" y="1125"/>
      <point x="376.0" y="1413"/>
      <point x="792.0" y="1413" type="curve" smooth="yes"/>
      <point x="1201.0" y="1413"/>
      <point x="1444.0" y="1122"/>
    </contour>
  </outline>
</glyph>
<glyph name="Otilde" format="1">
  <advance width="1513"/>
  <unicode hex="00D5"/>
  <outline>
    <contour>
      <point x="473" y="1576" type="curve"/>
      <point x="570" y="1576" type="line"/>
      <point x="573" y="1626"/>
      <point x="590" y="1663"/>
      <point x="620" y="1664" type="curve"/>
      <point x="620" y="1664"/>
      <point x="822" y="1576"/>
      <point x="904" y="1576" type="curve" smooth="yes"/>
      <point x="1000" y="1576"/>
      <point x="1040" y="1650"/>
      <point x="1040" y="1775" type="curve"/>
      <point x="940" y="1775" type="line"/>
      <point x="937" y="1737"/>
      <point x="934" y="1693"/>
      <point x="898" y="1690" type="curve"/>
      <point x="898" y="1690"/>
      <point x="742" y="1775"/>
      <point x="629" y="1775" type="curve" smooth="yes"/>
      <point x="532" y="1775"/>
      <point x="473" y="1712"/>
    </contour>
    <contour>
      <point x="757" y="120" type="curve" smooth="yes"/>
      <point x="433" y="120"/>
      <point x="282" y="379"/>
      <point x="282" y="697" type="curve" smooth="yes"/>
      <point x="282" y="1028"/>
      <point x="441" y="1275"/>
      <point x="758" y="1275" type="curve" smooth="yes"/>
      <point x="1075" y="1275"/>
      <point x="1231" y="1027"/>
      <point x="1231" y="697" type="curve" smooth="yes"/>
      <point x="1231" y="379"/>
      <point x="1081" y="120"/>
    </contour>
    <contour>
      <point x="1410" y="697" type="curve" smooth="yes"/>
      <point x="1410" y="1122"/>
      <point x="1167" y="1413"/>
      <point x="758" y="1413" type="curve" smooth="yes"/>
      <point x="342" y="1413"/>
      <point x="103" y="1125"/>
      <point x="103" y="698" type="curve" smooth="yes"/>
      <point x="103" y="281"/>
      <point x="334" y="-18"/>
      <point x="757" y="-18" type="curve" smooth="yes"/>
      <point x="1175" y="-18"/>
      <point x="1410" y="287"/>
    </contour>
  </outline>
</glyph>
<glyph name="Otilde" format="1">
  <advance width="1581"/>
  <unicode hex="00D5"/>
  <outline>
    <contour>
      <point x="507" y="1535" type="line"/>
      <point x="507" y="1671"/>
      <point x="566" y="1734"/>
      <point x="663" y="1734" type="curve" smooth="yes"/>
      <point x="776" y="1734"/>
      <point x="932" y="1649"/>
      <point x="932" y="1649" type="curve"/>
      <point x="968" y="1652"/>
      <point x="971" y="1696"/>
      <point x="974" y="1734" type="curve"/>
      <point x="1074" y="1734" type="line"/>
      <point x="1074" y="1609"/>
      <point x="1034" y="1535"/>
      <point x="938" y="1535" type="curve" smooth="yes"/>
      <point x="856" y="1535"/>
      <point x="654" y="1623"/>
      <point x="654" y="1623" type="curve"/>
      <point x="624" y="1622"/>
      <point x="607" y="1585"/>
      <point x="604" y="1535" type="curve"/>
    </contour>
    <contour>
      <point x="791" y="120" type="curve" smooth="yes"/>
      <point x="1115" y="120"/>
      <point x="1265" y="379"/>
      <point x="1265" y="697" type="curve" smooth="yes"/>
      <point x="1265" y="1027"/>
      <point x="1109" y="1275"/>
      <point x="792" y="1275" type="curve" smooth="yes"/>
      <point x="475" y="1275"/>
      <point x="316" y="1028"/>
      <point x="316" y="697" type="curve" smooth="yes"/>
      <point x="316" y="379"/>
      <point x="467" y="120"/>
    </contour>
    <contour>
      <point x="1444" y="697" type="curve" smooth="yes"/>
      <point x="1444" y="287"/>
      <point x="1209" y="-18"/>
      <point x="791" y="-18" type="curve" smooth="yes"/>
      <point x="368" y="-18"/>
      <point x="137" y="281"/>
      <point x="137" y="698" type="curve" smooth="yes"/>
      <point x="137" y="1125"/>
      <point x="376" y="1413"/>
      <point x="792" y="1413" type="curve" smooth="yes"/>
      <point x="1201" y="1413"/>
      <point x="1444" y="1122"/>
    </contour>
  </outline>
</glyph>
<glyph name="multiply" format="1">
  <advance width="920"/>
  <unicode hex="00D7"/>
  <outline>
    <contour>
      <point x="373" y="550" type="line"/>
      <point x="114" y="253" type="line"/>
      <point x="212" y="165" type="line"/>
      <point x="460" y="450" type="line"/>
      <point x="707" y="165" type="line"/>
      <point x="805" y="253" type="line"/>
      <point x="546" y="550" type="line"/>
      <point x="805" y="848" type="line"/>
      <point x="709" y="935" type="line"/>
      <point x="460" y="649" type="line"/>
      <point x="210" y="935" type="line"/>
      <point x="114" y="848" type="line"/>
    </contour>
  </outline>
</glyph>
<glyph name="Oslash" format="1">
  <advance width="1560"/>
  <unicode hex="00D8"/>
  <outline>
    <contour>
      <point x="779" y="138" type="curve" smooth="yes"/>
      <point x="1110" y="138"/>
      <point x="1269" y="390"/>
      <point x="1269" y="714" type="curve" smooth="yes"/>
      <point x="1269" y="923"/>
      <point x="1199" y="1104"/>
      <point x="1056" y="1203" type="curve"/>
      <point x="631" y="157" type="line"/>
      <point x="676" y="144"/>
      <point x="724" y="138"/>
    </contour>
    <contour>
      <point x="520" y="207" type="curve"/>
      <point x="944" y="1258" type="line"/>
      <point x="895" y="1274"/>
      <point x="840" y="1282"/>
      <point x="779" y="1282" type="curve" smooth="yes"/>
      <point x="450" y="1282"/>
      <point x="288" y="1031"/>
      <point x="288" y="714" type="curve" smooth="yes"/>
      <point x="288" y="491"/>
      <point x="364" y="302"/>
    </contour>
    <contour>
      <point x="500" y="-164" type="line"/>
      <point x="386" y="-125" type="line"/>
      <point x="456" y="48" type="line"/>
      <point x="231" y="162"/>
      <point x="115" y="406"/>
      <point x="115" y="708" type="curve" smooth="yes"/>
      <point x="115" y="1156"/>
      <point x="358" y="1443"/>
      <point x="779" y="1443" type="curve" smooth="yes"/>
      <point x="861" y="1443"/>
      <point x="937" y="1432"/>
      <point x="1006" y="1411" type="curve"/>
      <point x="1077" y="1588" type="line"/>
      <point x="1196" y="1546" type="line"/>
      <point x="1121" y="1362" type="line"/>
      <point x="1329" y="1246"/>
      <point x="1443" y="1017"/>
      <point x="1443" y="708" type="curve" smooth="yes"/>
      <point x="1443" y="283"/>
      <point x="1216" y="-23"/>
      <point x="779" y="-23" type="curve" smooth="yes"/>
      <point x="702" y="-23"/>
      <point x="632" y="-13"/>
      <point x="568" y="5" type="curve"/>
    </contour>
  </outline>
</glyph>
<glyph name="Uacute" format="1">
  <advance width="1327"/>
  <unicode hex="00DA"/>
  <outline>
    <contour>
      <point x="611.5" y="1576" type="line"/>
      <point x="715.5" y="1576" type="line"/>
      <point x="1011.5" y="1929" type="line"/>
      <point x="781.5" y="1929" type="line"/>
    </contour>
    <contour>
      <point x="663.0" y="-18" type="curve" smooth="yes"/>
      <point x="1028.0" y="-18"/>
      <point x="1195.0" y="195"/>
      <point x="1195.0" y="493" type="curve" smooth="yes"/>
      <point x="1195.0" y="1390" type="line"/>
      <point x="1018.0" y="1390" type="line"/>
      <point x="1018.0" y="492" type="line" smooth="yes"/>
      <point x="1018.0" y="248"/>
      <point x="903.0" y="120"/>
      <point x="663.0" y="120" type="curve" smooth="yes"/>
      <point x="417.0" y="120"/>
      <point x="309.0" y="248"/>
      <point x="309.0" y="492" type="curve" smooth="yes"/>
      <point x="309.0" y="1390" type="line"/>
      <point x="132.0" y="1390" type="line"/>
      <point x="132.0" y="495" type="line" smooth="yes"/>
      <point x="132.0" y="196"/>
      <point x="298.0" y="-18"/>
    </contour>
  </outline>
</glyph>
<glyph name="Uacute" format="1">
  <advance width="1401"/>
  <unicode hex="00DA"/>
  <outline>
    <contour>
      <point x="648.5" y="1576" type="line"/>
      <point x="752.5" y="1576" type="line"/>
      <point x="1048.5" y="1929" type="line"/>
      <point x="818.5" y="1929" type="line"/>
    </contour>
    <contour>
      <point x="700.0" y="-18" type="curve" smooth="yes"/>
      <point x="1065.0" y="-18"/>
      <point x="1232.0" y="195"/>
      <point x="1232.0" y="493" type="curve" smooth="yes"/>
      <point x="1232.0" y="1390" type="line"/>
      <point x="1055.0" y="1390" type="line"/>
      <point x="1055.0" y="492" type="line" smooth="yes"/>
      <point x="1055.0" y="248"/>
      <point x="940.0" y="120"/>
      <point x="700.0" y="120" type="curve" smooth="yes"/>
      <point x="454.0" y="120"/>
      <point x="346.0" y="248"/>
      <point x="346.0" y="492" type="curve" smooth="yes"/>
      <point x="346.0" y="1390" type="line"/>
      <point x="169.0" y="1390" type="line"/>
      <point x="169.0" y="495" type="line" smooth="yes"/>
      <point x="169.0" y="196"/>
      <point x="335.0" y="-18"/>
    </contour>
  </outline>
</glyph>
<glyph name="Ucircumflex" format="1">
  <advance width="1401"/>
  <unicode hex="00DB"/>
  <outline>
    <contour>
      <point x="433.5" y="1576" type="line"/>
      <point x="552.5" y="1576" type="line"/>
      <point x="699.5" y="1824" type="line"/>
      <point x="846.5" y="1576" type="line"/>
      <point x="967.5" y="1576" type="line"/>
      <point x="797.5" y="1929" type="line"/>
      <point x="603.5" y="1929" type="line"/>
    </contour>
    <contour>
      <point x="700.0" y="-18" type="curve" smooth="yes"/>
      <point x="1065.0" y="-18"/>
      <point x="1232.0" y="195"/>
      <point x="1232.0" y="493" type="curve" smooth="yes"/>
      <point x="1232.0" y="1390" type="line"/>
      <point x="1055.0" y="1390" type="line"/>
      <point x="1055.0" y="492" type="line" smooth="yes"/>
      <point x="1055.0" y="248"/>
      <point x="940.0" y="120"/>
      <point x="700.0" y="120" type="curve" smooth="yes"/>
      <point x="454.0" y="120"/>
      <point x="346.0" y="248"/>
      <point x="346.0" y="492" type="curve" smooth="yes"/>
      <point x="346.0" y="1390" type="line"/>
      <point x="169.0" y="1390" type="line"/>
      <point x="169.0" y="495" type="line" smooth="yes"/>
      <point x="169.0" y="196"/>
      <point x="335.0" y="-18"/>
    </contour>
  </outline>
</glyph>
<glyph name="Udieresis" format="1">
  <advance width="1401"/>
  <unicode hex="00DC"/>
  <outline>
    <contour>
      <point x="452.5" y="1576" type="line"/>
      <point x="593.5" y="1576" type="line"/>
      <point x="593.5" y="1769" type="line"/>
      <point x="452.5" y="1769" type="line"/>
    </contour>
    <contour>
      <point x="807.5" y="1576" type="line"/>
      <point x="948.5" y="1576" type="line"/>
      <point x="948.5" y="1769" type="line"/>
      <point x="807.5" y="1769" type="line"/>
    </contour>
    <contour>
      <point x="700.0" y="-18" type="curve" smooth="yes"/>
      <point x="1065.0" y="-18"/>
      <point x="1232.0" y="195"/>
      <point x="1232.0" y="493" type="curve" smooth="yes"/>
      <point x="1232.0" y="1390" type="line"/>
      <point x="1055.0" y="1390" type="line"/>
      <point x="1055.0" y="492" type="line" smooth="yes"/>
      <point x="1055.0" y="248"/>
      <point x="940.0" y="120"/>
      <point x="700.0" y="120" type="curve" smooth="yes"/>
      <point x="454.0" y="120"/>
      <point x="346.0" y="248"/>
      <point x="346.0" y="492" type="curve" smooth="yes"/>
      <point x="346.0" y="1390" type="line"/>
      <point x="169.0" y="1390" type="line"/>
      <point x="169.0" y="495" type="line" smooth="yes"/>
      <point x="169.0" y="196"/>
      <point x="335.0" y="-18"/>
    </contour>
  </outline>
</glyph>
<glyph name="Yacute" format="1">
  <advance width="1181"/>
  <unicode hex="00DD"/>
  <outline>
    <contour>
      <point x="538.5" y="1576" type="line"/>
      <point x="642.5" y="1576" type="line"/>
      <point x="938.5" y="1929" type="line"/>
      <point x="708.5" y="1929" type="line"/>
    </contour>
    <contour>
      <point x="604.0" y="723" type="line"/>
      <point x="190.0" y="1390" type="line"/>
      <point x="12.0" y="1390" type="line"/>
      <point x="516.0" y="573" type="line"/>
      <point x="516.0" y="0" type="line"/>
      <point x="694.0" y="0" type="line"/>
      <point x="694.0" y="577" type="line"/>
      <point x="1169.0" y="1390" type="line"/>
      <point x="991.0" y="1390" type="line"/>
    </contour>
  </outline>
</glyph>
<glyph name="Yacute" format="1">
  <advance width="1309"/>
  <unicode hex="00DD"/>
  <outline>
    <contour>
      <point x="602.5" y="1576" type="line"/>
      <point x="706.5" y="1576" type="line"/>
      <point x="1002.5" y="1929" type="line"/>
      <point x="772.5" y="1929" type="line"/>
    </contour>
    <contour>
      <point x="668.0" y="723" type="line"/>
      <point x="254.0" y="1390" type="line"/>
      <point x="76.0" y="1390" type="line"/>
      <point x="580.0" y="573" type="line"/>
      <point x="580.0" y="0" type="line"/>
      <point x="758.0" y="0" type="line"/>
      <point x="758.0" y="577" type="line"/>
      <point x="1233.0" y="1390" type="line"/>
      <point x="1055.0" y="1390" type="line"/>
    </contour>
  </outline>
</glyph>
<glyph name="Thorn" format="1">
  <advance width="1213"/>
  <unicode hex="00DE"/>
  <outline>
    <contour>
      <point x="298" y="972" type="line"/>
      <point x="298" y="449" type="line"/>
      <point x="647" y="449" type="line" smooth="yes"/>
      <point x="873" y="449"/>
      <point x="949" y="560"/>
      <point x="949" y="712" type="curve" smooth="yes"/>
      <point x="949" y="891"/>
      <point x="859" y="972"/>
      <point x="609" y="972" type="curve" smooth="yes"/>
    </contour>
    <contour>
      <point x="298" y="1361" type="line"/>
      <point x="298" y="1107" type="line"/>
      <point x="592" y="1107" type="line" smooth="yes"/>
      <point x="920" y="1107"/>
      <point x="1103" y="1008"/>
      <point x="1103" y="720" type="curve" smooth="yes"/>
      <point x="1103" y="478"/>
      <point x="973" y="311"/>
      <point x="657" y="311" type="curve" smooth="yes"/>
      <point x="650" y="311"/>
      <point x="298" y="318"/>
      <point x="298" y="318" type="curve"/>
      <point x="298" y="0" type="line"/>
      <point x="136" y="0" type="line"/>
      <point x="136" y="1361" type="line"/>
    </contour>
  </outline>
</glyph>
<glyph name="aring" format="1">
  <advance width="1116"/>
  <unicode hex="00E5"/>
  <outline>
    <contour>
      <point x="543.5" y="1141" type="curve" smooth="yes"/>
      <point x="448.5" y="1141"/>
      <point x="364.5" y="1204"/>
      <point x="364.5" y="1309" type="curve" smooth="yes"/>
      <point x="364.5" y="1417"/>
      <point x="449.5" y="1488"/>
      <point x="541.5" y="1488" type="curve" smooth="yes"/>
      <point x="636.5" y="1488"/>
      <point x="718.5" y="1411"/>
      <point x="718.5" y="1309" type="curve" smooth="yes"/>
      <point x="718.5" y="1204"/>
      <point x="633.5" y="1141"/>
    </contour>
    <contour>
      <point x="541.5" y="1207" type="curve" smooth="yes"/>
      <point x="587.5" y="1207"/>
      <point x="629.5" y="1253"/>
      <point x="629.5" y="1309" type="curve" smooth="yes"/>
      <point x="629.5" y="1365"/>
      <point x="591.5" y="1414"/>
      <point x="541.5" y="1414" type="curve" smooth="yes"/>
      <point x="495.5" y="1414"/>
      <point x="451.5" y="1365"/>
      <point x="451.5" y="1309" type="curve" smooth="yes"/>
      <point x="451.5" y="1248"/>
      <point x="485.5" y="1207"/>
    </contour>
    <contour>
      <point x="468.0" y="102" type="curve" smooth="yes"/>
      <point x="589.0" y="102"/>
      <point x="742.5" y="165"/>
      <point x="774.0" y="251" type="curve"/>
      <point x="774.0" y="490" type="line"/>
      <point x="774.0" y="490"/>
      <point x="681.0" y="481"/>
      <point x="658.0" y="478" type="curve" smooth="yes"/>
      <point x="397.0" y="447"/>
      <point x="308.0" y="402"/>
      <point x="308.0" y="262" type="curve" smooth="yes"/>
      <point x="308.0" y="152"/>
      <point x="385.0" y="102"/>
    </contour>
    <contour>
      <point x="445.0" y="-21.0" type="curve" smooth="yes"/>
      <point x="269.0" y="-21"/>
      <point x="134.0" y="79"/>
      <point x="134.0" y="263" type="curve" smooth="yes"/>
      <point x="134.0" y="478"/>
      <point x="314.0" y="562"/>
      <point x="599.0" y="583" type="curve" smooth="yes"/>
      <point x="645.0" y="587"/>
      <point x="774.0" y="597"/>
      <point x="774.0" y="597" type="curve"/>
      <point x="774.0" y="685" type="line" smooth="yes"/>
      <point x="774.0" y="823"/>
      <point x="704.0" y="886"/>
      <point x="561.0" y="886" type="curve" smooth="yes"/>
      <point x="465.0" y="886"/>
      <point x="328.0" y="858"/>
      <point x="234.0" y="812" type="curve"/>
      <point x="226.0" y="831"/>
      <point x="194.0" y="916"/>
      <point x="187.0" y="935" type="curve"/>
      <point x="273.0" y="983"/>
      <point x="428.0" y="1019"/>
      <point x="557.0" y="1019" type="curve" smooth="yes"/>
      <point x="801.0" y="1019"/>
      <point x="949.0" y="927"/>
      <point x="949.0" y="661" type="curve" smooth="yes"/>
      <point x="949.0" y="0" type="line"/>
      <point x="808.0" y="0" type="line"/>
      <point x="781.0" y="112" type="line"/>
      <point x="719.500976562" y="21.5302734375"/>
      <point x="579.099609375" y="-21.0"/>
    </contour>
  </outline>
</glyph>
<glyph name="ccedilla" format="1">
  <advance width="945"/>
  <unicode hex="00E7"/>
  <outline>
    <contour>
      <point x="420" y="-396.06640625" type="line"/>
      <point x="560" y="-396.06640625" type="line"/>
      <point x="600" y="-8.06640625" type="line"/>
      <point x="522" y="-8.06640625" type="line"/>
    </contour>
    <contour>
      <point x="581" y="-21.0" type="curve" smooth="yes"/>
      <point x="681" y="-21.0"/>
      <point x="786" y="3.0"/>
      <point x="852" y="51.0" type="curve"/>
      <point x="829" y="175.0" type="line"/>
      <point x="757" y="138.0"/>
      <point x="696" y="112.0"/>
      <point x="610" y="112.0" type="curve" smooth="yes"/>
      <point x="396" y="112.0"/>
      <point x="277" y="265.0"/>
      <point x="277" y="495.0" type="curve" smooth="yes"/>
      <point x="277" y="733.0"/>
      <point x="400" y="886.0"/>
      <point x="610" y="886.0" type="curve" smooth="yes"/>
      <point x="676" y="886.0"/>
      <point x="745" y="870.0"/>
      <point x="816" y="832.0" type="curve"/>
      <point x="858" y="950.0" type="line"/>
      <point x="803" y="990.0"/>
      <point x="692" y="1019.0"/>
      <point x="587" y="1019.0" type="curve" smooth="yes"/>
      <point x="307" y="1019.0"/>
      <point x="103" y="810.0"/>
      <point x="103" y="496.0" type="curve" smooth="yes"/>
      <point x="103" y="195.0"/>
      <point x="300" y="-21.0"/>
    </contour>
  </outline>
</glyph>
<glyph name="egrave" format="1">
  <advance width="1128"/>
  <unicode hex="00E8"/>
  <outline>
    <contour>
      <point x="508.5" y="1141" type="line"/>
      <point x="214.5" y="1494" type="line"/>
      <point x="442.5" y="1494" type="line"/>
      <point x="610.5" y="1141" type="line"/>
    </contour>
    <contour>
      <point x="616.0" y="-21" type="curve" smooth="yes"/>
      <point x="327.0" y="-21"/>
      <point x="122.0" y="176"/>
      <point x="122.0" y="496" type="curve" smooth="yes"/>
      <point x="122.0" y="805"/>
      <point x="334.0" y="1019"/>
      <point x="597.0" y="1019" type="curve" smooth="yes"/>
      <point x="854.0" y="1019"/>
      <point x="997.0" y="832"/>
      <point x="997.0" y="553" type="curve" smooth="yes"/>
      <point x="997.0" y="530"/>
      <point x="991.0" y="469"/>
      <point x="991.0" y="469" type="curve"/>
      <point x="294.0" y="469" type="line"/>
      <point x="298.0" y="240"/>
      <point x="451.0" y="112"/>
      <point x="641.0" y="112" type="curve" smooth="yes"/>
      <point x="766.0" y="112"/>
      <point x="863.0" y="151"/>
      <point x="951.0" y="197" type="curve"/>
      <point x="975.0" y="65" type="line"/>
      <point x="879.0" y="7"/>
      <point x="765.0" y="-21"/>
    </contour>
    <contour>
      <point x="298.0" y="582" type="curve"/>
      <point x="833.0" y="582" type="line"/>
      <point x="828.0" y="779"/>
      <point x="763.0" y="888"/>
      <point x="602.0" y="888" type="curve" smooth="yes"/>
      <point x="446.0" y="888"/>
      <point x="315.0" y="772"/>
    </contour>
  </outline>
</glyph>
<glyph name="eacute" format="1">
  <advance width="1132"/>
  <unicode hex="00E9"/>
  <outline>
    <contour>
      <point x="511.5" y="1182" type="line"/>
      <point x="615.5" y="1182" type="line"/>
      <point x="911.5" y="1535" type="line"/>
      <point x="681.5" y="1535" type="line"/>
    </contour>
    <contour>
      <point x="302.0" y="582" type="line"/>
      <point x="319.0" y="772"/>
      <point x="450.0" y="888"/>
      <point x="606.0" y="888" type="curve" smooth="yes"/>
      <point x="767.0" y="888"/>
      <point x="832.0" y="779"/>
      <point x="837.0" y="582" type="curve"/>
    </contour>
    <contour>
      <point x="620.0" y="-21" type="curve" smooth="yes"/>
      <point x="769.0" y="-21"/>
      <point x="883.0" y="7"/>
      <point x="979.0" y="65" type="curve"/>
      <point x="955.0" y="197" type="line"/>
      <point x="867.0" y="151"/>
      <point x="770.0" y="112"/>
      <point x="645.0" y="112" type="curve" smooth="yes"/>
      <point x="455.0" y="112"/>
      <point x="302.0" y="240"/>
      <point x="298.0" y="469" type="curve"/>
      <point x="995.0" y="469" type="line"/>
      <point x="995.0" y="469"/>
      <point x="1001.0" y="530"/>
      <point x="1001.0" y="553" type="curve" smooth="yes"/>
      <point x="1001.0" y="832"/>
      <point x="858.0" y="1019"/>
      <point x="601.0" y="1019" type="curve" smooth="yes"/>
      <point x="338.0" y="1019"/>
      <point x="126.0" y="805"/>
      <point x="126.0" y="496" type="curve" smooth="yes"/>
      <point x="126.0" y="176"/>
      <point x="331.0" y="-21"/>
    </contour>
  </outline>
</glyph>
<glyph name="igrave" format="1">
  <advance width="413"/>
  <unicode hex="00EC"/>
  <outline>
    <contour>
      <point x="156" y="1182" type="line"/>
      <point x="258" y="1182" type="line"/>
      <point x="90" y="1535" type="line"/>
      <point x="-138" y="1535" type="line"/>
    </contour>
    <contour>
      <point x="130" y="0" type="line"/>
      <point x="284" y="0" type="line"/>
      <point x="284" y="999" type="line"/>
      <point x="130" y="999" type="line"/>
    </contour>
  </outline>
</glyph>
<glyph name="iacute" format="1">
  <advance width="413"/>
  <unicode hex="00ED"/>
  <outline>
    <contour>
      <point x="155" y="1182" type="line"/>
      <point x="259" y="1182" type="line"/>
      <point x="555" y="1535" type="line"/>
      <point x="325" y="1535" type="line"/>
    </contour>
    <contour>
      <point x="130" y="0" type="line"/>
      <point x="284" y="0" type="line"/>
      <point x="284" y="999" type="line"/>
      <point x="130" y="999" type="line"/>
    </contour>
  </outline>
</glyph>
<glyph name="ntilde" format="1">
  <advance width="1115"/>
  <unicode hex="00F1"/>
  <outline>
    <contour>
      <point x="283" y="1182" type="curve"/>
      <point x="380" y="1182" type="line"/>
      <point x="383" y="1232"/>
      <point x="400" y="1269"/>
      <point x="430" y="1270" type="curve"/>
      <point x="430" y="1270"/>
      <point x="632" y="1182"/>
      <point x="714" y="1182" type="curve" smooth="yes"/>
      <point x="810" y="1182"/>
      <point x="850" y="1256"/>
      <point x="850" y="1381" type="curve"/>
      <point x="750" y="1381" type="line"/>
      <point x="747" y="1343"/>
      <point x="744" y="1299"/>
      <point x="708" y="1296" type="curve"/>
      <point x="708" y="1296"/>
      <point x="552" y="1381"/>
      <point x="439" y="1381" type="curve" smooth="yes"/>
      <point x="342" y="1381"/>
      <point x="283" y="1318"/>
    </contour>
    <contour>
      <point x="147" y="0" type="line"/>
      <point x="322" y="0" type="line"/>
      <point x="322" y="546" type="line" smooth="yes"/>
      <point x="322" y="752"/>
      <point x="391" y="889"/>
      <point x="607" y="889" type="curve" smooth="yes"/>
      <point x="760" y="889"/>
      <point x="811" y="788"/>
      <point x="811" y="623" type="curve" smooth="yes"/>
      <point x="811" y="0" type="line"/>
      <point x="986" y="0" type="line"/>
      <point x="986" y="612" type="line" smooth="yes"/>
      <point x="986" y="880"/>
      <point x="871" y="1019"/>
      <point x="641" y="1019" type="curve" smooth="yes"/>
      <point x="498" y="1019"/>
      <point x="387" y="963"/>
      <point x="315" y="855" type="curve"/>
      <point x="296" y="998" type="line"/>
      <point x="147" y="998" type="line"/>
    </contour>
  </outline>
</glyph>
<glyph name="divide" format="1">
  <advance width="1119"/>
  <unicode hex="00F7"/>
  <outline>
    <contour>
      <point x="460" y="20" type="line"/>
      <point x="633" y="20" type="line"/>
      <point x="633" y="227" type="line"/>
      <point x="460" y="227" type="line"/>
    </contour>
    <contour>
      <point x="101" y="476" type="line"/>
      <point x="1012" y="476" type="line"/>
      <point x="1012" y="612" type="line"/>
      <point x="101" y="612" type="line"/>
    </contour>
    <contour>
      <point x="460" y="854" type="line"/>
      <point x="664" y="854" type="line"/>
      <point x="664" y="1061" type="line"/>
      <point x="460" y="1061" type="line"/>
    </contour>
  </outline>
</glyph>
<glyph name="oslash" format="1">
  <advance width="1158"/>
  <unicode hex="00F8"/>
  <outline>
    <contour>
      <point x="582" y="103" type="curve" smooth="yes"/>
      <point x="798" y="103"/>
      <point x="884" y="294"/>
      <point x="884" y="498" type="curve" smooth="yes"/>
      <point x="884" y="637"/>
      <point x="849" y="766"/>
      <point x="762" y="838" type="curve"/>
      <point x="460" y="126" type="line"/>
      <point x="495" y="111"/>
      <point x="536" y="103"/>
    </contour>
    <contour>
      <point x="396" y="166" type="curve"/>
      <point x="697" y="876" type="line"/>
      <point x="663" y="890"/>
      <point x="625" y="897"/>
      <point x="580" y="897" type="curve" smooth="yes"/>
      <point x="365" y="897"/>
      <point x="267" y="699"/>
      <point x="267" y="495" type="curve" smooth="yes"/>
      <point x="267" y="365"/>
      <point x="308" y="239"/>
    </contour>
    <contour>
      <point x="299" y="-250" type="line"/>
      <point x="235" y="-216" type="line"/>
      <point x="342" y="37" type="line"/>
      <point x="191" y="124"/>
      <point x="109" y="299"/>
      <point x="109" y="498" type="curve" smooth="yes"/>
      <point x="109" y="784"/>
      <point x="280" y="1023"/>
      <point x="582" y="1023" type="curve" smooth="yes"/>
      <point x="643" y="1023"/>
      <point x="699" y="1013"/>
      <point x="748" y="996" type="curve"/>
      <point x="853" y="1244" type="line"/>
      <point x="923" y="1216" type="line"/>
      <point x="816" y="965" type="line"/>
      <point x="966" y="878"/>
      <point x="1042" y="701"/>
      <point x="1042" y="500" type="curve" smooth="yes"/>
      <point x="1042" y="223"/>
      <point x="879" y="-23"/>
      <point x="580" y="-23" type="curve" smooth="yes"/>
      <point x="517" y="-23"/>
      <point x="460" y="-13"/>
      <point x="409" y="6" type="curve"/>
    </contour>
  </outline>
</glyph>
<glyph name="ugrave" format="1">
  <advance width="1124"/>
  <unicode hex="00F9"/>
  <outline>
    <contour>
      <point x="506.5" y="1182" type="line"/>
      <point x="608.5" y="1182" type="line"/>
      <point x="440.5" y="1535" type="line"/>
      <point x="212.5" y="1535" type="line"/>
    </contour>
    <contour>
      <point x="977.0" y="998" type="line"/>
      <point x="802.0" y="998" type="line"/>
      <point x="802.0" y="452" type="line" smooth="yes"/>
      <point x="802.0" y="247"/>
      <point x="727.0" y="109"/>
      <point x="512.0" y="109" type="curve" smooth="yes"/>
      <point x="359.0" y="109"/>
      <point x="312.0" y="210"/>
      <point x="312.0" y="375" type="curve" smooth="yes"/>
      <point x="312.0" y="998" type="line"/>
      <point x="138.0" y="998" type="line"/>
      <point x="138.0" y="387" type="line" smooth="yes"/>
      <point x="138.0" y="119"/>
      <point x="252.0" y="-21"/>
      <point x="482.0" y="-21" type="curve" smooth="yes"/>
      <point x="625.0" y="-21"/>
      <point x="756.0" y="27"/>
      <point x="810.0" y="143" type="curve"/>
      <point x="829.0" y="0" type="line"/>
      <point x="977.0" y="0" type="line"/>
    </contour>
  </outline>
</glyph>
<glyph name="udieresis" format="1">
  <advance width="1124"/>
  <unicode hex="00FC"/>
  <outline>
    <contour>
      <point x="664.5" y="1182" type="line"/>
      <point x="805.5" y="1182" type="line"/>
      <point x="805.5" y="1375" type="line"/>
      <point x="664.5" y="1375" type="line"/>
    </contour>
    <contour>
      <point x="309.5" y="1182" type="line"/>
      <point x="450.5" y="1182" type="line"/>
      <point x="450.5" y="1375" type="line"/>
      <point x="309.5" y="1375" type="line"/>
    </contour>
    <contour>
      <point x="977.0" y="998" type="line"/>
      <point x="802.0" y="998" type="line"/>
      <point x="802.0" y="452" type="line" smooth="yes"/>
      <point x="802.0" y="247"/>
      <point x="727.0" y="109"/>
      <point x="512.0" y="109" type="curve" smooth="yes"/>
      <point x="359.0" y="109"/>
      <point x="312.0" y="210"/>
      <point x="312.0" y="375" type="curve" smooth="yes"/>
      <point x="312.0" y="998" type="line"/>
      <point x="138.0" y="998" type="line"/>
      <point x="138.0" y="387" type="line" smooth="yes"/>
      <point x="138.0" y="119"/>
      <point x="252.0" y="-21"/>
      <point x="482.0" y="-21" type="curve" smooth="yes"/>
      <point x="625.0" y="-21"/>
      <point x="756.0" y="27"/>
      <point x="810.0" y="143" type="curve"/>
      <point x="829.0" y="0" type="line"/>
      <point x="977.0" y="0" type="line"/>
    </contour>
  </outline>
</glyph>
<glyph name="thorn" format="1">
  <advance width="1136"/>
  <unicode hex="00FE"/>
  <outline>
    <contour>
      <point x="592" y="103" type="curve" smooth="yes"/>
      <point x="805" y="103"/>
      <point x="866" y="327"/>
      <point x="866" y="501" type="curve" smooth="yes"/>
      <point x="866" y="676"/>
      <point x="806" y="897"/>
      <point x="598" y="897" type="curve" smooth="yes"/>
      <point x="392" y="897"/>
      <point x="288" y="710"/>
      <point x="288" y="501" type="curve" smooth="yes"/>
      <point x="288" y="291"/>
      <point x="375" y="103"/>
    </contour>
    <contour>
      <point x="136" y="1374" type="line"/>
      <point x="289" y="1374" type="line"/>
      <point x="289" y="849" type="line"/>
      <point x="367" y="965"/>
      <point x="473" y="1023"/>
      <point x="609" y="1023" type="curve"/>
      <point x="860" y="1021"/>
      <point x="1024" y="800"/>
      <point x="1024" y="510" type="curve" smooth="yes"/>
      <point x="1024" y="244"/>
      <point x="889" y="-23"/>
      <point x="609" y="-23" type="curve" smooth="yes"/>
      <point x="471" y="-23"/>
      <point x="357" y="31"/>
      <point x="289" y="147" type="curve"/>
      <point x="289" y="-418" type="line"/>
      <point x="136" y="-418" type="line"/>
    </contour>
  </outline>
</glyph>
<glyph name="ydieresis" format="1">
  <advance width="1071"/>
  <unicode hex="00FF"/>
  <outline>
    <contour>
      <point x="319.5" y="1182" type="line"/>
      <point x="460.5" y="1182" type="line"/>
      <point x="460.5" y="1375" type="line"/>
      <point x="319.5" y="1375" type="line"/>
    </contour>
    <contour>
      <point x="674.5" y="1182" type="line"/>
      <point x="815.5" y="1182" type="line"/>
      <point x="815.5" y="1375" type="line"/>
      <point x="674.5" y="1375" type="line"/>
    </contour>
    <contour>
      <point x="328.0" y="-405" type="line"/>
      <point x="501.0" y="-405" type="line"/>
      <point x="514.0" y="-371"/>
      <point x="1048.0" y="998"/>
      <point x="1048.0" y="998" type="curve"/>
      <point x="860.0" y="998" type="line"/>
      <point x="570.0" y="199" type="line"/>
      <point x="275.0" y="998" type="line"/>
      <point x="87.0" y="998" type="line"/>
      <point x="484.0" y="11" type="line"/>
    </contour>
  </outline>
</glyph>
<glyph name="Amacron" format="1">
  <advance width="1283"/>
  <unicode hex="0100"/>
  <outline>
    <contour>
      <point x="337.5" y="1576" type="line"/>
      <point x="945.5" y="1576" type="line"/>
      <point x="945.5" y="1703" type="line"/>
      <point x="337.5" y="1703" type="line"/>
    </contour>
    <contour>
      <point x="37.0" y="0" type="line"/>
      <point x="215.0" y="0" type="line"/>
      <point x="375.0" y="430" type="line"/>
      <point x="919.0" y="430" type="line"/>
      <point x="1078.0" y="0" type="line"/>
      <point x="1246.0" y="0" type="line"/>
      <point x="743.0" y="1390" type="line"/>
      <point x="541.0" y="1390" type="line"/>
    </contour>
    <contour>
      <point x="426.0" y="561" type="line"/>
      <point x="641.0" y="1223" type="line"/>
      <point x="870.0" y="561" type="line"/>
    </contour>
  </outline>
</glyph>
<glyph name="Abreve" format="1">
  <advance width="1283"/>
  <unicode hex="0102"/>
  <outline>
    <contour>
      <point x="870" y="1798" type="curve"/>
      <point x="764" y="1798" type="line"/>
      <point x="764" y="1711"/>
      <point x="706" y="1670"/>
      <point x="640" y="1670" type="curve" smooth="yes"/>
      <point x="574" y="1670"/>
      <point x="519" y="1711"/>
      <point x="519" y="1798" type="curve"/>
      <point x="413" y="1798" type="line"/>
      <point x="413" y="1641"/>
      <point x="528" y="1576"/>
      <point x="640" y="1576" type="curve" smooth="yes"/>
      <point x="753" y="1576"/>
      <point x="870" y="1641"/>
    </contour>
    <contour>
      <point x="37" y="0" type="line"/>
      <point x="215" y="0" type="line"/>
      <point x="375" y="430" type="line"/>
      <point x="919" y="430" type="line"/>
      <point x="1078" y="0" type="line"/>
      <point x="1246" y="0" type="line"/>
      <point x="743" y="1390" type="line"/>
      <point x="541" y="1390" type="line"/>
    </contour>
    <contour>
      <point x="426" y="561" type="line"/>
      <point x="641" y="1223" type="line"/>
      <point x="870" y="561" type="line"/>
    </contour>
  </outline>
</glyph>
<glyph name="Abreve" format="1">
  <advance width="1379"/>
  <unicode hex="0102"/>
  <outline>
    <contour>
      <point x="918" y="1798" type="curve"/>
      <point x="812" y="1798" type="line"/>
      <point x="812" y="1711"/>
      <point x="754" y="1670"/>
      <point x="688" y="1670" type="curve" smooth="yes"/>
      <point x="622" y="1670"/>
      <point x="567" y="1711"/>
      <point x="567" y="1798" type="curve"/>
      <point x="461" y="1798" type="line"/>
      <point x="461" y="1641"/>
      <point x="576" y="1576"/>
      <point x="688" y="1576" type="curve" smooth="yes"/>
      <point x="801" y="1576"/>
      <point x="918" y="1641"/>
    </contour>
    <contour>
      <point x="474" y="561" type="line"/>
      <point x="689" y="1223" type="line"/>
      <point x="918" y="561" type="line"/>
    </contour>
    <contour>
      <point x="85" y="0" type="line"/>
      <point x="263" y="0" type="line"/>
      <point x="423" y="430" type="line"/>
      <point x="967" y="430" type="line"/>
      <point x="1126" y="0" type="line"/>
      <point x="1294" y="0" type="line"/>
      <point x="791" y="1390" type="line"/>
      <point x="589" y="1390" type="line"/>
    </contour>
  </outline>
</glyph>
<glyph name="Aogonek" format="1">
  <advance width="1379"/>
  <unicode hex="0104"/>
  <outline>
    <contour>
      <point x="691.5" y="-373.133789062" type="curve" smooth="yes"/>
      <point x="740.5" y="-373.133789062"/>
      <point x="799.5" y="-359.133789062"/>
      <point x="834.5" y="-344.133789062" type="curve"/>
      <point x="834.5" y="-238.133789062" type="line"/>
      <point x="788.5" y="-257.133789062"/>
      <point x="758.5" y="-268.133789062"/>
      <point x="709.5" y="-268.133789062" type="curve" smooth="yes"/>
      <point x="672.5" y="-268.133789062"/>
      <point x="629.5" y="-235.133789062"/>
      <point x="629.5" y="-187.133789062" type="curve" smooth="yes"/>
      <point x="629.5" y="-125.133789062"/>
      <point x="698.5" y="-57.1337890625"/>
      <point x="793.5" y="12.8662109375" type="curve"/>
      <point x="689.5" y="12.8662109375" type="line"/>
      <point x="602.5" y="-38.1337890625"/>
      <point x="515.5" y="-114.133789062"/>
      <point x="515.5" y="-213.133789062" type="curve" smooth="yes"/>
      <point x="515.5" y="-317.133789062"/>
      <point x="593.5" y="-373.133789062"/>
    </contour>
    <contour>
      <point x="474.0" y="561.0" type="line"/>
      <point x="689.0" y="1223.0" type="line"/>
      <point x="918.0" y="561.0" type="line"/>
    </contour>
    <contour>
      <point x="85.0" y="0.0" type="line"/>
      <point x="263.0" y="0.0" type="line"/>
      <point x="423.0" y="430.0" type="line"/>
      <point x="967.0" y="430.0" type="line"/>
      <point x="1126.0" y="0.0" type="line"/>
      <point x="1294.0" y="0.0" type="line"/>
      <point x="791.0" y="1390.0" type="line"/>
      <point x="589.0" y="1390.0" type="line"/>
    </contour>
  </outline>
</glyph>
<glyph name="aogonek" format="1">
  <advance width="1116"/>
  <unicode hex="0105"/>
  <outline>
    <contour>
      <point x="543.5" y="-394.1328125" type="curve" smooth="yes"/>
      <point x="445.5" y="-394.1328125"/>
      <point x="367.5" y="-338.1328125"/>
      <point x="367.5" y="-234.1328125" type="curve" smooth="yes"/>
      <point x="367.5" y="-135.1328125"/>
      <point x="454.5" y="-59.1328125"/>
      <point x="541.5" y="-8.1328125" type="curve"/>
      <point x="645.5" y="-8.1328125" type="line"/>
      <point x="550.5" y="-78.1328125"/>
      <point x="481.5" y="-146.1328125"/>
      <point x="481.5" y="-208.1328125" type="curve" smooth="yes"/>
      <point x="481.5" y="-256.1328125"/>
      <point x="524.5" y="-289.1328125"/>
      <point x="561.5" y="-289.1328125" type="curve" smooth="yes"/>
      <point x="610.5" y="-289.1328125"/>
      <point x="640.5" y="-278.1328125"/>
      <point x="686.5" y="-259.1328125" type="curve"/>
      <point x="686.5" y="-365.1328125" type="line"/>
      <point x="651.5" y="-380.1328125"/>
      <point x="592.5" y="-394.1328125"/>
    </contour>
    <contour>
      <point x="468.0" y="102.0" type="curve" smooth="yes"/>
      <point x="589.0" y="102.0"/>
      <point x="742.5" y="165.0"/>
      <point x="774.0" y="251.0" type="curve"/>
      <point x="774.0" y="490.0" type="line"/>
      <point x="774.0" y="490.0"/>
      <point x="681.0" y="481.0"/>
      <point x="658.0" y="478.0" type="curve" smooth="yes"/>
      <point x="397.0" y="447.0"/>
      <point x="308.0" y="402.0"/>
      <point x="308.0" y="262.0" type="curve" smooth="yes"/>
      <point x="308.0" y="152.0"/>
      <point x="385.0" y="102.0"/>
    </contour>
    <contour>
      <point x="445.0" y="-21.0" type="curve" smooth="yes"/>
      <point x="269.0" y="-21.0"/>
      <point x="134.0" y="79.0"/>
      <point x="134.0" y="263.0" type="curve" smooth="yes"/>
      <point x="134.0" y="478.0"/>
      <point x="314.0" y="562.0"/>
      <point x="599.0" y="583.0" type="curve" smooth="yes"/>
      <point x="645.0" y="587.0"/>
      <point x="774.0" y="597.0"/>
      <point x="774.0" y="597.0" type="curve"/>
      <point x="774.0" y="685.0" type="line" smooth="yes"/>
      <point x="774.0" y="823.0"/>
      <point x="704.0" y="886.0"/>
      <point x="561.0" y="886.0" type="curve" smooth="yes"/>
      <point x="465.0" y="886.0"/>
      <point x="328.0" y="858.0"/>
      <point x="234.0" y="812.0" type="curve"/>
      <point x="226.0" y="831.0"/>
      <point x="194.0" y="916.0"/>
      <point x="187.0" y="935.0" type="curve"/>
      <point x="273.0" y="983.0"/>
      <point x="428.0" y="1019.0"/>
      <point x="557.0" y="1019.0" type="curve" smooth="yes"/>
      <point x="801.0" y="1019.0"/>
      <point x="949.0" y="927.0"/>
      <point x="949.0" y="661.0" type="curve" smooth="yes"/>
      <point x="949.0" y="0.0" type="line"/>
      <point x="808.0" y="0.0" type="line"/>
      <point x="781.0" y="112.0" type="line"/>
      <point x="719.500976562" y="21.5302734375"/>
      <point x="579.099609375" y="-21.0"/>
    </contour>
  </outline>
</glyph>
<glyph name="Cdotaccent" format="1">
  <advance width="1346"/>
  <unicode hex="010A"/>
  <outline>
    <contour>
      <point x="624.5" y="1576" type="line"/>
      <point x="777.5" y="1576" type="line"/>
      <point x="777.5" y="1756" type="line"/>
      <point x="624.5" y="1756" type="line"/>
    </contour>
    <contour>
      <point x="817.0" y="-18" type="curve" smooth="yes"/>
      <point x="988.0" y="-25"/>
      <point x="1140.0" y="28"/>
      <point x="1205.0" y="68" type="curve"/>
      <point x="1179.0" y="196" type="line"/>
      <point x="1080.0" y="149"/>
      <point x="970.0" y="117"/>
      <point x="853.0" y="120" type="curve" smooth="yes"/>
      <point x="488.0" y="129"/>
      <point x="349.0" y="401"/>
      <point x="349.0" y="719" type="curve" smooth="yes"/>
      <point x="349.0" y="1038"/>
      <point x="520.0" y="1275"/>
      <point x="837.0" y="1275" type="curve" smooth="yes"/>
      <point x="959.0" y="1275"/>
      <point x="1080.0" y="1243"/>
      <point x="1171.0" y="1189" type="curve"/>
      <point x="1225.0" y="1313" type="line"/>
      <point x="1124.0" y="1377"/>
      <point x="997.0" y="1413"/>
      <point x="835.0" y="1413" type="curve" smooth="yes"/>
      <point x="423.0" y="1413"/>
      <point x="177.0" y="1130"/>
      <point x="177.0" y="725" type="curve" smooth="yes"/>
      <point x="177.0" y="310"/>
      <point x="401.0" y="-2"/>
    </contour>
  </outline>
</glyph>
<glyph name="cdotaccent" format="1">
  <advance width="945"/>
  <unicode hex="010B"/>
  <outline>
    <contour>
      <point x="394.5" y="1182" type="line"/>
      <point x="547.5" y="1182" type="line"/>
      <point x="547.5" y="1362" type="line"/>
      <point x="394.5" y="1362" type="line"/>
    </contour>
    <contour>
      <point x="581.0" y="-21" type="curve" smooth="yes"/>
      <point x="681.0" y="-21"/>
      <point x="786.0" y="3"/>
      <point x="852.0" y="51" type="curve"/>
      <point x="829.0" y="175" type="line"/>
      <point x="757.0" y="138"/>
      <point x="696.0" y="112"/>
      <point x="610.0" y="112" type="curve" smooth="yes"/>
      <point x="396.0" y="112"/>
      <point x="277.0" y="265"/>
      <point x="277.0" y="495" type="curve" smooth="yes"/>
      <point x="277.0" y="733"/>
      <point x="400.0" y="886"/>
      <point x="610.0" y="886" type="curve" smooth="yes"/>
      <point x="676.0" y="886"/>
      <point x="745.0" y="870"/>
      <point x="816.0" y="832" type="curve"/>
      <point x="858.0" y="950" type="line"/>
      <point x="803.0" y="990"/>
      <point x="692.0" y="1019"/>
      <point x="587.0" y="1019" type="curve" smooth="yes"/>
      <point x="307.0" y="1019"/>
      <point x="103.0" y="810"/>
      <point x="103.0" y="496" type="curve" smooth="yes"/>
      <point x="103.0" y="195"/>
      <point x="300.0" y="-21"/>
    </contour>
  </outline>
</glyph>
<glyph name="Ccaron" format="1">
  <advance width="1306"/>
  <unicode hex="010C"/>
  <outline>
    <contour>
      <point x="564" y="1535" type="line"/>
      <point x="394" y="1888" type="line"/>
      <point x="513" y="1888" type="line"/>
      <point x="660" y="1605" type="line"/>
      <point x="807" y="1888" type="line"/>
      <point x="928" y="1888" type="line"/>
      <point x="758" y="1535" type="line"/>
    </contour>
    <contour>
      <point x="777" y="-18" type="curve" smooth="yes"/>
      <point x="361" y="-2"/>
      <point x="137" y="310"/>
      <point x="137" y="725" type="curve" smooth="yes"/>
      <point x="137" y="1130"/>
      <point x="383" y="1413"/>
      <point x="795" y="1413" type="curve" smooth="yes"/>
      <point x="957" y="1413"/>
      <point x="1084" y="1377"/>
      <point x="1185" y="1313" type="curve"/>
      <point x="1131" y="1189" type="line"/>
      <point x="1040" y="1243"/>
      <point x="919" y="1275"/>
      <point x="797" y="1275" type="curve" smooth="yes"/>
      <point x="480" y="1275"/>
      <point x="309" y="1038"/>
      <point x="309" y="719" type="curve" smooth="yes"/>
      <point x="309" y="401"/>
      <point x="448" y="129"/>
      <point x="813" y="120" type="curve" smooth="yes"/>
      <point x="930" y="117"/>
      <point x="1040" y="149"/>
      <point x="1139" y="196" type="curve"/>
      <point x="1165" y="68" type="line"/>
      <point x="1100" y="28"/>
      <point x="948" y="-25"/>
    </contour>
  </outline>
</glyph>
<glyph name="Dcaron" format="1">
  <advance width="1410"/>
  <unicode hex="010E"/>
  <outline>
    <contour>
      <point x="645.5" y="1576" type="line"/>
      <point x="839.5" y="1576" type="line"/>
      <point x="1009.5" y="1929" type="line"/>
      <point x="888.5" y="1929" type="line"/>
      <point x="741.5" y="1646" type="line"/>
      <point x="594.5" y="1929" type="line"/>
      <point x="475.5" y="1929" type="line"/>
    </contour>
    <contour>
      <point x="178.0" y="0" type="line"/>
      <point x="586.0" y="0" type="line" smooth="yes"/>
      <point x="1034.0" y="0"/>
      <point x="1307.0" y="253"/>
      <point x="1307.0" y="698" type="curve" smooth="yes"/>
      <point x="1307.0" y="1166"/>
      <point x="1008.0" y="1390"/>
      <point x="558.0" y="1390" type="curve" smooth="yes"/>
      <point x="178.0" y="1390" type="line"/>
    </contour>
    <contour>
      <point x="356.0" y="1252" type="line"/>
      <point x="554.0" y="1252" type="line" smooth="yes"/>
      <point x="919.0" y="1252"/>
      <point x="1129.0" y="1082"/>
      <point x="1129.0" y="694" type="curve" smooth="yes"/>
      <point x="1129.0" y="340"/>
      <point x="939.0" y="137"/>
      <point x="581.0" y="137" type="curve" smooth="yes"/>
      <point x="356.0" y="137" type="line"/>
    </contour>
  </outline>
</glyph>
<glyph name="Dcaron" format="1">
  <advance width="1480"/>
  <unicode hex="010E"/>
  <outline>
    <contour>
      <point x="681.5" y="1535" type="line"/>
      <point x="511.5" y="1888" type="line"/>
      <point x="630.5" y="1888" type="line"/>
      <point x="777.5" y="1605" type="line"/>
      <point x="924.5" y="1888" type="line"/>
      <point x="1045.5" y="1888" type="line"/>
      <point x="875.5" y="1535" type="line"/>
    </contour>
    <contour>
      <point x="214.0" y="0" type="line"/>
      <point x="214.0" y="1390" type="line"/>
      <point x="594.0" y="1390" type="line" smooth="yes"/>
      <point x="1044.0" y="1390"/>
      <point x="1343.0" y="1166"/>
      <point x="1343.0" y="698" type="curve" smooth="yes"/>
      <point x="1343.0" y="253"/>
      <point x="1070.0" y="0"/>
      <point x="622.0" y="0" type="curve" smooth="yes"/>
    </contour>
    <contour>
      <point x="392.0" y="1252" type="line"/>
      <point x="392.0" y="137" type="line"/>
      <point x="617.0" y="137" type="line" smooth="yes"/>
      <point x="975.0" y="137"/>
      <point x="1165.0" y="340"/>
      <point x="1165.0" y="694" type="curve" smooth="yes"/>
      <point x="1165.0" y="1082"/>
      <point x="955.0" y="1252"/>
      <point x="590.0" y="1252" type="curve" smooth="yes"/>
    </contour>
  </outline>
</glyph>
<glyph name="Dcroat" format="1">
  <advance width="1490"/>
  <unicode hex="0110"/>
  <outline>
    <contour>
      <point x="223" y="757" type="line"/>
      <point x="223" y="1361" type="line"/>
      <point x="561" y="1361" type="line" smooth="yes"/>
      <point x="1031" y="1361"/>
      <point x="1374" y="1197"/>
      <point x="1374" y="672" type="curve" smooth="yes"/>
      <point x="1374" y="219"/>
      <point x="1084" y="0"/>
      <point x="654" y="0" type="curve" smooth="yes"/>
      <point x="223" y="0" type="line"/>
      <point x="223" y="634" type="line"/>
      <point x="116" y="634" type="line"/>
      <point x="116" y="757" type="line"/>
    </contour>
    <contour>
      <point x="384" y="634" type="line"/>
      <point x="384" y="141" type="line"/>
      <point x="671" y="141" type="line" smooth="yes"/>
      <point x="1004" y="141"/>
      <point x="1202" y="316"/>
      <point x="1202" y="668" type="curve" smooth="yes"/>
      <point x="1202" y="1097"/>
      <point x="953" y="1220"/>
      <point x="581" y="1220" type="curve" smooth="yes"/>
      <point x="384" y="1220" type="line"/>
      <point x="384" y="757" type="line"/>
      <point x="604" y="757" type="line"/>
      <point x="604" y="634" type="line"/>
    </contour>
  </outline>
</glyph>
<glyph name="dcroat" format="1">
  <advance width="1193"/>
  <unicode hex="0111"/>
  <outline>
    <component base="d"/>
    <component base="d"/>
    <component base="d"/>
    <component base="d"/>
    <component base="d"/>
    <contour>
      <point x="586" y="1166" type="line"/>
      <point x="586" y="1268" type="line"/>
      <point x="1153" y="1268" type="line"/>
      <point x="1153" y="1166" type="line"/>
    </contour>
  </outline>
</glyph>
<glyph name="Emacron" format="1">
  <advance width="1114"/>
  <unicode hex="0112"/>
  <outline>
    <contour>
      <point x="283" y="1576" type="line"/>
      <point x="891" y="1576" type="line"/>
      <point x="891" y="1703" type="line"/>
      <point x="283" y="1703" type="line"/>
    </contour>
    <contour>
      <point x="356" y="1251" type="line"/>
      <point x="989" y="1251" type="line"/>
      <point x="996" y="1390" type="line"/>
      <point x="178" y="1390" type="line"/>
      <point x="178" y="0" type="line"/>
      <point x="988" y="0" type="line"/>
      <point x="996" y="139" type="line"/>
      <point x="356" y="139" type="line"/>
      <point x="356" y="662" type="line"/>
      <point x="936" y="662" type="line"/>
      <point x="936" y="799" type="line"/>
      <point x="356" y="799" type="line"/>
    </contour>
  </outline>
</glyph>
<glyph name="Ebreve" format="1">
  <advance width="1192"/>
  <unicode hex="0114"/>
  <outline>
    <contour>
      <point x="864.5" y="1798" type="curve"/>
      <point x="758.5" y="1798" type="line"/>
      <point x="758.5" y="1711"/>
      <point x="700.5" y="1670"/>
      <point x="634.5" y="1670" type="curve" smooth="yes"/>
      <point x="568.5" y="1670"/>
      <point x="513.5" y="1711"/>
      <point x="513.5" y="1798" type="curve"/>
      <point x="407.5" y="1798" type="line"/>
      <point x="407.5" y="1641"/>
      <point x="522.5" y="1576"/>
      <point x="634.5" y="1576" type="curve" smooth="yes"/>
      <point x="747.5" y="1576"/>
      <point x="864.5" y="1641"/>
    </contour>
    <contour>
      <point x="392.0" y="1251" type="line"/>
      <point x="1030.0" y="1251" type="line"/>
      <point x="1037.0" y="1390" type="line"/>
      <point x="214.0" y="1390" type="line"/>
      <point x="214.0" y="0" type="line"/>
      <point x="1050.0" y="0" type="line"/>
      <point x="1058.0" y="139" type="line"/>
      <point x="392.0" y="139" type="line"/>
      <point x="392.0" y="653" type="line"/>
      <point x="982.0" y="653" type="line"/>
      <point x="982.0" y="790" type="line"/>
      <point x="392.0" y="790" type="line"/>
    </contour>
  </outline>
</glyph>
<glyph name="Edotaccent" format="1">
  <advance width="1192"/>
  <unicode hex="0116"/>
  <outline>
    <contour>
      <point x="559.5" y="1576" type="line"/>
      <point x="712.5" y="1576" type="line"/>
      <point x="712.5" y="1756" type="line"/>
      <point x="559.5" y="1756" type="line"/>
    </contour>
    <contour>
      <point x="392.0" y="1251" type="line"/>
      <point x="1030.0" y="1251" type="line"/>
      <point x="1037.0" y="1390" type="line"/>
      <point x="214.0" y="1390" type="line"/>
      <point x="214.0" y="0" type="line"/>
      <point x="1050.0" y="0" type="line"/>
      <point x="1058.0" y="139" type="line"/>
      <point x="392.0" y="139" type="line"/>
      <point x="392.0" y="653" type="line"/>
      <point x="982.0" y="653" type="line"/>
      <point x="982.0" y="790" type="line"/>
      <point x="392.0" y="790" type="line"/>
    </contour>
  </outline>
</glyph>
<glyph name="edotaccent" format="1">
  <advance width="1132"/>
  <unicode hex="0117"/>
  <outline>
    <contour>
      <point x="487" y="1182" type="line"/>
      <point x="640" y="1182" type="line"/>
      <point x="640" y="1362" type="line"/>
      <point x="487" y="1362" type="line"/>
    </contour>
    <contour>
      <point x="302" y="582" type="line"/>
      <point x="319" y="772"/>
      <point x="450" y="888"/>
      <point x="606" y="888" type="curve" smooth="yes"/>
      <point x="767" y="888"/>
      <point x="832" y="779"/>
      <point x="837" y="582" type="curve"/>
    </contour>
    <contour>
      <point x="620" y="-21" type="curve" smooth="yes"/>
      <point x="769" y="-21"/>
      <point x="883" y="7"/>
      <point x="979" y="65" type="curve"/>
      <point x="955" y="197" type="line"/>
      <point x="867" y="151"/>
      <point x="770" y="112"/>
      <point x="645" y="112" type="curve" smooth="yes"/>
      <point x="455" y="112"/>
      <point x="302" y="240"/>
      <point x="298" y="469" type="curve"/>
      <point x="995" y="469" type="line"/>
      <point x="995" y="469"/>
      <point x="1001" y="530"/>
      <point x="1001" y="553" type="curve" smooth="yes"/>
      <point x="1001" y="832"/>
      <point x="858" y="1019"/>
      <point x="601" y="1019" type="curve" smooth="yes"/>
      <point x="338" y="1019"/>
      <point x="126" y="805"/>
      <point x="126" y="496" type="curve" smooth="yes"/>
      <point x="126" y="176"/>
      <point x="331" y="-21"/>
    </contour>
  </outline>
</glyph>
<glyph name="Eogonek" format="1">
  <advance width="1114"/>
  <unicode hex="0118"/>
  <outline>
    <contour>
      <point x="589" y="-373.133789062" type="curve" smooth="yes"/>
      <point x="638" y="-373.133789062"/>
      <point x="697" y="-359.133789062"/>
      <point x="732" y="-344.133789062" type="curve"/>
      <point x="732" y="-238.133789062" type="line"/>
      <point x="686" y="-257.133789062"/>
      <point x="656" y="-268.133789062"/>
      <point x="607" y="-268.133789062" type="curve" smooth="yes"/>
      <point x="570" y="-268.133789062"/>
      <point x="527" y="-235.133789062"/>
      <point x="527" y="-187.133789062" type="curve" smooth="yes"/>
      <point x="527" y="-125.133789062"/>
      <point x="596" y="-57.1337890625"/>
      <point x="691" y="12.8662109375" type="curve"/>
      <point x="587" y="12.8662109375" type="line"/>
      <point x="500" y="-38.1337890625"/>
      <point x="413" y="-114.133789062"/>
      <point x="413" y="-213.133789062" type="curve" smooth="yes"/>
      <point x="413" y="-317.133789062"/>
      <point x="491" y="-373.133789062"/>
    </contour>
    <contour>
      <point x="356" y="1251.0" type="line"/>
      <point x="989" y="1251.0" type="line"/>
      <point x="996" y="1390.0" type="line"/>
      <point x="178" y="1390.0" type="line"/>
      <point x="178" y="0.0" type="line"/>
      <point x="988" y="0.0" type="line"/>
      <point x="996" y="139.0" type="line"/>
      <point x="356" y="139.0" type="line"/>
      <point x="356" y="662.0" type="line"/>
      <point x="936" y="662.0" type="line"/>
      <point x="936" y="799.0" type="line"/>
      <point x="356" y="799.0" type="line"/>
    </contour>
  </outline>
</glyph>
<glyph name="Eogonek" format="1">
  <advance width="1192"/>
  <unicode hex="0118"/>
  <outline>
    <contour>
      <point x="638" y="-373.133789062" type="curve" smooth="yes"/>
      <point x="540" y="-373.133789062"/>
      <point x="462" y="-317.133789062"/>
      <point x="462" y="-213.133789062" type="curve" smooth="yes"/>
      <point x="462" y="-114.133789062"/>
      <point x="549" y="-38.1337890625"/>
      <point x="636" y="12.8662109375" type="curve"/>
      <point x="740" y="12.8662109375" type="line"/>
      <point x="645" y="-57.1337890625"/>
      <point x="576" y="-125.133789062"/>
      <point x="576" y="-187.133789062" type="curve" smooth="yes"/>
      <point x="576" y="-235.133789062"/>
      <point x="619" y="-268.133789062"/>
      <point x="656" y="-268.133789062" type="curve" smooth="yes"/>
      <point x="705" y="-268.133789062"/>
      <point x="735" y="-257.133789062"/>
      <point x="781" y="-238.133789062" type="curve"/>
      <point x="781" y="-344.133789062" type="line"/>
      <point x="746" y="-359.133789062"/>
      <point x="687" y="-373.133789062"/>
    </contour>
    <contour>
      <point x="392" y="1251.0" type="line"/>
      <point x="392" y="790.0" type="line"/>
      <point x="982" y="790.0" type="line"/>
      <point x="982" y="653.0" type="line"/>
      <point x="392" y="653.0" type="line"/>
      <point x="392" y="139.0" type="line"/>
      <point x="1058" y="139.0" type="line"/>
      <point x="1050" y="0.0" type="line"/>
      <point x="214" y="0.0" type="line"/>
      <point x="214" y="1390.0" type="line"/>
      <point x="1037" y="1390.0" type="line"/>
      <point x="1030" y="1251.0" type="line"/>
    </contour>
  </outline>
</glyph>
<glyph name="eogonek" format="1">
  <advance width="1108"/>
  <unicode hex="0119"/>
  <outline>
    <contour>
      <point x="483.5" y="-394.1328125" type="curve" smooth="yes"/>
      <point x="532.5" y="-394.1328125"/>
      <point x="591.5" y="-380.1328125"/>
      <point x="626.5" y="-365.1328125" type="curve"/>
      <point x="626.5" y="-259.1328125" type="line"/>
      <point x="580.5" y="-278.1328125"/>
      <point x="550.5" y="-289.1328125"/>
      <point x="501.5" y="-289.1328125" type="curve" smooth="yes"/>
      <point x="464.5" y="-289.1328125"/>
      <point x="421.5" y="-256.1328125"/>
      <point x="421.5" y="-208.1328125" type="curve" smooth="yes"/>
      <point x="421.5" y="-146.1328125"/>
      <point x="490.5" y="-78.1328125"/>
      <point x="585.5" y="-8.1328125" type="curve"/>
      <point x="481.5" y="-8.1328125" type="line"/>
      <point x="394.5" y="-59.1328125"/>
      <point x="307.5" y="-135.1328125"/>
      <point x="307.5" y="-234.1328125" type="curve" smooth="yes"/>
      <point x="307.5" y="-338.1328125"/>
      <point x="385.5" y="-394.1328125"/>
    </contour>
    <contour>
      <point x="597.0" y="-21.0" type="curve" smooth="yes"/>
      <point x="746.0" y="-21.0"/>
      <point x="860.0" y="7.0"/>
      <point x="956.0" y="65.0" type="curve"/>
      <point x="932.0" y="197.0" type="line"/>
      <point x="844.0" y="151.0"/>
      <point x="747.0" y="112.0"/>
      <point x="622.0" y="112.0" type="curve" smooth="yes"/>
      <point x="432.0" y="112.0"/>
      <point x="279.0" y="240.0"/>
      <point x="275.0" y="469.0" type="curve"/>
      <point x="972.0" y="469.0" type="line"/>
      <point x="972.0" y="469.0"/>
      <point x="978.0" y="530.0"/>
      <point x="978.0" y="553.0" type="curve" smooth="yes"/>
      <point x="978.0" y="832.0"/>
      <point x="835.0" y="1019.0"/>
      <point x="578.0" y="1019.0" type="curve" smooth="yes"/>
      <point x="315.0" y="1019.0"/>
      <point x="103.0" y="805.0"/>
      <point x="103.0" y="496.0" type="curve" smooth="yes"/>
      <point x="103.0" y="176.0"/>
      <point x="308.0" y="-21.0"/>
    </contour>
    <contour>
      <point x="279.0" y="582.0" type="line"/>
      <point x="296.0" y="772.0"/>
      <point x="427.0" y="888.0"/>
      <point x="583.0" y="888.0" type="curve" smooth="yes"/>
      <point x="744.0" y="888.0"/>
      <point x="809.0" y="779.0"/>
      <point x="814.0" y="582.0" type="curve"/>
    </contour>
  </outline>
</glyph>
<glyph name="Ecaron" format="1">
  <advance width="1114"/>
  <unicode hex="011A"/>
  <outline>
    <contour>
      <point x="490" y="1576" type="line"/>
      <point x="684" y="1576" type="line"/>
      <point x="854" y="1929" type="line"/>
      <point x="733" y="1929" type="line"/>
      <point x="586" y="1646" type="line"/>
      <point x="439" y="1929" type="line"/>
      <point x="320" y="1929" type="line"/>
    </contour>
    <contour>
      <point x="356" y="1251" type="line"/>
      <point x="989" y="1251" type="line"/>
      <point x="996" y="1390" type="line"/>
      <point x="178" y="1390" type="line"/>
      <point x="178" y="0" type="line"/>
      <point x="988" y="0" type="line"/>
      <point x="996" y="139" type="line"/>
      <point x="356" y="139" type="line"/>
      <point x="356" y="662" type="line"/>
      <point x="936" y="662" type="line"/>
      <point x="936" y="799" type="line"/>
      <point x="356" y="799" type="line"/>
    </contour>
  </outline>
</glyph>
<glyph name="Gbreve" format="1">
  <advance width="1425"/>
  <unicode hex="011E"/>
  <outline>
    <contour>
      <point x="916.5" y="1798" type="curve"/>
      <point x="810.5" y="1798" type="line"/>
      <point x="810.5" y="1711"/>
      <point x="752.5" y="1670"/>
      <point x="686.5" y="1670" type="curve" smooth="yes"/>
      <point x="620.5" y="1670"/>
      <point x="565.5" y="1711"/>
      <point x="565.5" y="1798" type="curve"/>
      <point x="459.5" y="1798" type="line"/>
      <point x="459.5" y="1641"/>
      <point x="574.5" y="1576"/>
      <point x="686.5" y="1576" type="curve" smooth="yes"/>
      <point x="799.5" y="1576"/>
      <point x="916.5" y="1641"/>
    </contour>
    <contour>
      <point x="768.0" y="-18" type="curve" smooth="yes"/>
      <point x="956.0" y="-18"/>
      <point x="1130.0" y="4"/>
      <point x="1273.0" y="59" type="curve"/>
      <point x="1273.0" y="716" type="line"/>
      <point x="774.0" y="716" type="line"/>
      <point x="766.0" y="579" type="line"/>
      <point x="1095.0" y="579" type="line"/>
      <point x="1095.0" y="147" type="line"/>
      <point x="1037.0" y="131"/>
      <point x="883.0" y="120"/>
      <point x="778.0" y="120" type="curve" smooth="yes"/>
      <point x="428.0" y="120"/>
      <point x="281.0" y="361"/>
      <point x="281.0" y="692" type="curve" smooth="yes"/>
      <point x="281.0" y="1011"/>
      <point x="425.0" y="1275"/>
      <point x="800.0" y="1275" type="curve" smooth="yes"/>
      <point x="1021.0" y="1275"/>
      <point x="1148.0" y="1208"/>
      <point x="1192.0" y="1185" type="curve"/>
      <point x="1242.0" y="1307" type="line"/>
      <point x="1129.0" y="1380"/>
      <point x="961.0" y="1413"/>
      <point x="800.0" y="1413" type="curve" smooth="yes"/>
      <point x="319.0" y="1413"/>
      <point x="103.0" y="1098"/>
      <point x="103.0" y="692" type="curve" smooth="yes"/>
      <point x="103.0" y="291"/>
      <point x="308.0" y="-18"/>
    </contour>
  </outline>
</glyph>
<glyph name="Gbreve" format="1">
  <advance width="1516"/>
  <unicode hex="011E"/>
  <outline>
    <contour>
      <point x="990.5" y="1798" type="curve"/>
      <point x="884.5" y="1798" type="line"/>
      <point x="884.5" y="1711"/>
      <point x="826.5" y="1670"/>
      <point x="760.5" y="1670" type="curve" smooth="yes"/>
      <point x="694.5" y="1670"/>
      <point x="639.5" y="1711"/>
      <point x="639.5" y="1798" type="curve"/>
      <point x="533.5" y="1798" type="line"/>
      <point x="533.5" y="1641"/>
      <point x="648.5" y="1576"/>
      <point x="760.5" y="1576" type="curve" smooth="yes"/>
      <point x="873.5" y="1576"/>
      <point x="990.5" y="1641"/>
    </contour>
    <contour>
      <point x="842.0" y="-18" type="curve" smooth="yes"/>
      <point x="1030.0" y="-18"/>
      <point x="1204.0" y="4"/>
      <point x="1347.0" y="59" type="curve"/>
      <point x="1347.0" y="716" type="line"/>
      <point x="848.0" y="716" type="line"/>
      <point x="840.0" y="579" type="line"/>
      <point x="1169.0" y="579" type="line"/>
      <point x="1169.0" y="147" type="line"/>
      <point x="1111.0" y="131"/>
      <point x="957.0" y="120"/>
      <point x="852.0" y="120" type="curve" smooth="yes"/>
      <point x="502.0" y="120"/>
      <point x="355.0" y="361"/>
      <point x="355.0" y="692" type="curve" smooth="yes"/>
      <point x="355.0" y="1011"/>
      <point x="499.0" y="1275"/>
      <point x="874.0" y="1275" type="curve" smooth="yes"/>
      <point x="1095.0" y="1275"/>
      <point x="1222.0" y="1208"/>
      <point x="1266.0" y="1185" type="curve"/>
      <point x="1316.0" y="1307" type="line"/>
      <point x="1203.0" y="1380"/>
      <point x="1035.0" y="1413"/>
      <point x="874.0" y="1413" type="curve" smooth="yes"/>
      <point x="393.0" y="1413"/>
      <point x="177.0" y="1098"/>
      <point x="177.0" y="692" type="curve" smooth="yes"/>
      <point x="177.0" y="291"/>
      <point x="382.0" y="-18"/>
    </contour>
  </outline>
</glyph>
<glyph name="gbreve" format="1">
  <advance width="1233"/>
  <unicode hex="011F"/>
  <outline>
    <contour>
      <point x="816.5" y="1404" type="curve"/>
      <point x="710.5" y="1404" type="line"/>
      <point x="710.5" y="1317"/>
      <point x="652.5" y="1276"/>
      <point x="586.5" y="1276" type="curve" smooth="yes"/>
      <point x="520.5" y="1276"/>
      <point x="465.5" y="1317"/>
      <point x="465.5" y="1404" type="curve"/>
      <point x="359.5" y="1404" type="line"/>
      <point x="359.5" y="1247"/>
      <point x="474.5" y="1182"/>
      <point x="586.5" y="1182" type="curve" smooth="yes"/>
      <point x="699.5" y="1182"/>
      <point x="816.5" y="1247"/>
    </contour>
    <contour>
      <point x="582.0" y="130" type="curve" smooth="yes"/>
      <point x="375.0" y="130"/>
      <point x="296.0" y="333"/>
      <point x="296.0" y="504" type="curve" smooth="yes"/>
      <point x="296.0" y="677"/>
      <point x="369.0" y="891"/>
      <point x="586.0" y="891" type="curve" smooth="yes"/>
      <point x="793.0" y="891"/>
      <point x="879.0" y="732"/>
      <point x="879.0" y="543" type="curve" smooth="yes"/>
      <point x="879.0" y="470" type="line" smooth="yes"/>
      <point x="879.0" y="291"/>
      <point x="797.0" y="130"/>
    </contour>
    <contour>
      <point x="543.0" y="-425" type="curve" smooth="yes"/>
      <point x="952.0" y="-425"/>
      <point x="1054.0" y="-187"/>
      <point x="1054.0" y="148" type="curve" smooth="yes"/>
      <point x="1054.0" y="998" type="line"/>
      <point x="895.0" y="998" type="line"/>
      <point x="883.0" y="865" type="line"/>
      <point x="807.0" y="968"/>
      <point x="705.0" y="1019"/>
      <point x="572.0" y="1019" type="curve" smooth="yes"/>
      <point x="267.0" y="1019"/>
      <point x="122.0" y="780"/>
      <point x="122.0" y="496" type="curve" smooth="yes"/>
      <point x="122.0" y="249"/>
      <point x="273.0" y="0"/>
      <point x="569.0" y="0" type="curve" smooth="yes"/>
      <point x="727.0" y="0"/>
      <point x="832.0" y="73"/>
      <point x="879.0" y="191" type="curve"/>
      <point x="879.0" y="73" type="line" smooth="yes"/>
      <point x="879.0" y="-199"/>
      <point x="774.0" y="-291"/>
      <point x="530.0" y="-291" type="curve" smooth="yes"/>
      <point x="429.0" y="-291"/>
      <point x="337.0" y="-273"/>
      <point x="297.0" y="-262" type="curve"/>
      <point x="286.0" y="-390" type="line"/>
      <point x="326.0" y="-400"/>
      <point x="424.0" y="-425"/>
    </contour>
  </outline>
</glyph>
<glyph name="gdotaccent" format="1">
  <advance width="1233"/>
  <unicode hex="0121"/>
  <outline>
    <contour>
      <point x="511.5" y="1141" type="line"/>
      <point x="511.5" y="1321" type="line"/>
      <point x="664.5" y="1321" type="line"/>
      <point x="664.5" y="1141" type="line"/>
    </contour>
    <contour>
      <point x="543.0" y="-425" type="curve" smooth="yes"/>
      <point x="424.0" y="-425"/>
      <point x="326.0" y="-400"/>
      <point x="286.0" y="-390" type="curve"/>
      <point x="297.0" y="-262" type="line"/>
      <point x="337.0" y="-273"/>
      <point x="429.0" y="-291"/>
      <point x="530.0" y="-291" type="curve" smooth="yes"/>
      <point x="774.0" y="-291"/>
      <point x="879.0" y="-199"/>
      <point x="879.0" y="73" type="curve" smooth="yes"/>
      <point x="879.0" y="191" type="line"/>
      <point x="832.0" y="73"/>
      <point x="727.0" y="0"/>
      <point x="569.0" y="0" type="curve" smooth="yes"/>
      <point x="273.0" y="0"/>
      <point x="122.0" y="249"/>
      <point x="122.0" y="496" type="curve" smooth="yes"/>
      <point x="122.0" y="780"/>
      <point x="267.0" y="1019"/>
      <point x="572.0" y="1019" type="curve" smooth="yes"/>
      <point x="705.0" y="1019"/>
      <point x="807.0" y="968"/>
      <point x="883.0" y="865" type="curve"/>
      <point x="895.0" y="998" type="line"/>
      <point x="1054.0" y="998" type="line"/>
      <point x="1054.0" y="148" type="line" smooth="yes"/>
      <point x="1054.0" y="-187"/>
      <point x="952.0" y="-425"/>
    </contour>
    <contour>
      <point x="582.0" y="130" type="curve" smooth="yes"/>
      <point x="797.0" y="130"/>
      <point x="879.0" y="291"/>
      <point x="879.0" y="470" type="curve" smooth="yes"/>
      <point x="879.0" y="543" type="line" smooth="yes"/>
      <point x="879.0" y="732"/>
      <point x="793.0" y="891"/>
      <point x="586.0" y="891" type="curve" smooth="yes"/>
      <point x="369.0" y="891"/>
      <point x="296.0" y="677"/>
      <point x="296.0" y="504" type="curve" smooth="yes"/>
      <point x="296.0" y="333"/>
      <point x="375.0" y="130"/>
    </contour>
  </outline>
</glyph>
<glyph name="Gcommaaccent" format="1">
  <advance width="1516"/>
  <unicode hex="0122"/>
  <outline>
    <contour>
      <point x="643.5" y="-635" type="line"/>
      <point x="750.5" y="-635" type="line"/>
      <point x="880.5" y="-181" type="line"/>
      <point x="729.5" y="-181" type="line"/>
    </contour>
    <contour>
      <point x="842.0" y="-18" type="curve" smooth="yes"/>
      <point x="1030.0" y="-18"/>
      <point x="1204.0" y="4"/>
      <point x="1347.0" y="59" type="curve"/>
      <point x="1347.0" y="716" type="line"/>
      <point x="848.0" y="716" type="line"/>
      <point x="840.0" y="579" type="line"/>
      <point x="1169.0" y="579" type="line"/>
      <point x="1169.0" y="147" type="line"/>
      <point x="1111.0" y="131"/>
      <point x="957.0" y="120"/>
      <point x="852.0" y="120" type="curve" smooth="yes"/>
      <point x="502.0" y="120"/>
      <point x="355.0" y="361"/>
      <point x="355.0" y="692" type="curve" smooth="yes"/>
      <point x="355.0" y="1011"/>
      <point x="499.0" y="1275"/>
      <point x="874.0" y="1275" type="curve" smooth="yes"/>
      <point x="1095.0" y="1275"/>
      <point x="1222.0" y="1208"/>
      <point x="1266.0" y="1185" type="curve"/>
      <point x="1316.0" y="1307" type="line"/>
      <point x="1203.0" y="1380"/>
      <point x="1035.0" y="1413"/>
      <point x="874.0" y="1413" type="curve" smooth="yes"/>
      <point x="393.0" y="1413"/>
      <point x="177.0" y="1098"/>
      <point x="177.0" y="692" type="curve" smooth="yes"/>
      <point x="177.0" y="291"/>
      <point x="382.0" y="-18"/>
    </contour>
  </outline>
</glyph>
<glyph name="Hcircumflex" format="1">
  <advance width="1435"/>
  <unicode hex="0124"/>
  <outline>
    <contour>
      <point x="450.5" y="1576" type="line"/>
      <point x="569.5" y="1576" type="line"/>
      <point x="716.5" y="1824" type="line"/>
      <point x="863.5" y="1576" type="line"/>
      <point x="984.5" y="1576" type="line"/>
      <point x="814.5" y="1929" type="line"/>
      <point x="620.5" y="1929" type="line"/>
    </contour>
    <contour>
      <point x="356.0" y="766" type="line"/>
      <point x="356.0" y="1390" type="line"/>
      <point x="178.0" y="1390" type="line"/>
      <point x="178.0" y="0" type="line"/>
      <point x="356.0" y="0" type="line"/>
      <point x="356.0" y="634" type="line"/>
      <point x="1079.0" y="634" type="line"/>
      <point x="1079.0" y="0" type="line"/>
      <point x="1257.0" y="0" type="line"/>
      <point x="1257.0" y="1390" type="line"/>
      <point x="1079.0" y="1390" type="line"/>
      <point x="1079.0" y="766" type="line"/>
    </contour>
  </outline>
</glyph>
<glyph name="Hcircumflex" format="1">
  <advance width="1507"/>
  <unicode hex="0124"/>
  <outline>
    <contour>
      <point x="486.5" y="1576" type="line"/>
      <point x="605.5" y="1576" type="line"/>
      <point x="752.5" y="1824" type="line"/>
      <point x="899.5" y="1576" type="line"/>
      <point x="1020.5" y="1576" type="line"/>
      <point x="850.5" y="1929" type="line"/>
      <point x="656.5" y="1929" type="line"/>
    </contour>
    <contour>
      <point x="392.0" y="766" type="line"/>
      <point x="392.0" y="1390" type="line"/>
      <point x="214.0" y="1390" type="line"/>
      <point x="214.0" y="0" type="line"/>
      <point x="392.0" y="0" type="line"/>
      <point x="392.0" y="634" type="line"/>
      <point x="1115.0" y="634" type="line"/>
      <point x="1115.0" y="0" type="line"/>
      <point x="1293.0" y="0" type="line"/>
      <point x="1293.0" y="1390" type="line"/>
      <point x="1115.0" y="1390" type="line"/>
      <point x="1115.0" y="766" type="line"/>
    </contour>
  </outline>
</glyph>
<glyph name="Hbar" format="1">
  <advance width="1458"/>
  <unicode hex="0126"/>
  <outline>
    <contour>
      <point x="357" y="772" type="line"/>
      <point x="1100" y="772" type="line"/>
      <point x="1100" y="1043" type="line"/>
      <point x="357" y="1043" type="line"/>
    </contour>
    <contour>
      <point x="196" y="1138" type="line"/>
      <point x="196" y="1361" type="line"/>
      <point x="357" y="1361" type="line"/>
      <point x="357" y="1138" type="line"/>
      <point x="1100" y="1138" type="line"/>
      <point x="1100" y="1361" type="line"/>
      <point x="1261" y="1361" type="line"/>
      <point x="1261" y="1138" type="line"/>
      <point x="1343" y="1138" type="line"/>
      <point x="1343" y="1043" type="line"/>
      <point x="1261" y="1043" type="line"/>
      <point x="1261" y="0" type="line"/>
      <point x="1100" y="0" type="line"/>
      <point x="1100" y="633" type="line"/>
      <point x="357" y="633" type="line"/>
      <point x="357" y="0" type="line"/>
      <point x="196" y="0" type="line"/>
      <point x="196" y="1043" type="line"/>
      <point x="114" y="1043" type="line"/>
      <point x="114" y="1138" type="line"/>
    </contour>
  </outline>
</glyph>
<glyph name="hbar" format="1">
  <advance width="1130"/>
  <unicode hex="0127"/>
  <outline>
    <component base="h"/>
    <component base="h"/>
    <component base="h"/>
    <component base="h"/>
    <component base="h"/>
    <component base="h"/>
    <component base="h"/>
    <component base="h"/>
    <component base="h"/>
    <component base="h"/>
    <component base="h"/>
    <component base="h"/>
    <component base="h"/>
    <contour>
      <point x="509" y="1271" type="line"/>
      <point x="509" y="1166" type="line"/>
      <point x="20" y="1166" type="line"/>
      <point x="20" y="1271" type="line"/>
    </contour>
  </outline>
</glyph>
<glyph name="Itilde" format="1">
  <advance width="607"/>
  <unicode hex="0128"/>
  <outline>
    <contour>
      <point x="20" y="1535" type="line"/>
      <point x="20" y="1671"/>
      <point x="79" y="1734"/>
      <point x="176" y="1734" type="curve" smooth="yes"/>
      <point x="289" y="1734"/>
      <point x="445" y="1649"/>
      <point x="445" y="1649" type="curve"/>
      <point x="481" y="1652"/>
      <point x="484" y="1696"/>
      <point x="487" y="1734" type="curve"/>
      <point x="587" y="1734" type="line"/>
      <point x="587" y="1609"/>
      <point x="547" y="1535"/>
      <point x="451" y="1535" type="curve" smooth="yes"/>
      <point x="369" y="1535"/>
      <point x="167" y="1623"/>
      <point x="167" y="1623" type="curve"/>
      <point x="137" y="1622"/>
      <point x="120" y="1585"/>
      <point x="117" y="1535" type="curve"/>
    </contour>
    <contour>
      <point x="214" y="0" type="line"/>
      <point x="214" y="1390" type="line"/>
      <point x="393" y="1390" type="line"/>
      <point x="393" y="0" type="line"/>
    </contour>
  </outline>
</glyph>
<glyph name="Imacron" format="1">
  <advance width="557"/>
  <unicode hex="012A"/>
  <outline>
    <contour>
      <point x="-18.5" y="1576" type="line"/>
      <point x="589.5" y="1576" type="line"/>
      <point x="589.5" y="1703" type="line"/>
      <point x="-18.5" y="1703" type="line"/>
    </contour>
    <contour>
      <point x="196.0" y="0" type="line"/>
      <point x="375.0" y="0" type="line"/>
      <point x="375.0" y="1390" type="line"/>
      <point x="196.0" y="1390" type="line"/>
    </contour>
  </outline>
</glyph>
<glyph name="Imacron" format="1">
  <advance width="607"/>
  <unicode hex="012A"/>
  <outline>
    <contour>
      <point x="-0.5" y="1576" type="line"/>
      <point x="607.5" y="1576" type="line"/>
      <point x="607.5" y="1703" type="line"/>
      <point x="-0.5" y="1703" type="line"/>
    </contour>
    <contour>
      <point x="214.0" y="0" type="line"/>
      <point x="393.0" y="0" type="line"/>
      <point x="393.0" y="1390" type="line"/>
      <point x="214.0" y="1390" type="line"/>
    </contour>
  </outline>
</glyph>
<glyph name="Ibreve" format="1">
  <advance width="557"/>
  <unicode hex="012C"/>
  <outline>
    <contour>
      <point x="514" y="1798" type="curve"/>
      <point x="408" y="1798" type="line"/>
      <point x="408" y="1711"/>
      <point x="350" y="1670"/>
      <point x="284" y="1670" type="curve" smooth="yes"/>
      <point x="218" y="1670"/>
      <point x="163" y="1711"/>
      <point x="163" y="1798" type="curve"/>
      <point x="57" y="1798" type="line"/>
      <point x="57" y="1641"/>
      <point x="172" y="1576"/>
      <point x="284" y="1576" type="curve" smooth="yes"/>
      <point x="397" y="1576"/>
      <point x="514" y="1641"/>
    </contour>
    <contour>
      <point x="196" y="0" type="line"/>
      <point x="375" y="0" type="line"/>
      <point x="375" y="1390" type="line"/>
      <point x="196" y="1390" type="line"/>
    </contour>
  </outline>
</glyph>
